<svg width="125" height="40" viewBox="0 0 125 40" fill="none" xmlns="http://www.w3.org/2000/svg">
<g clip-path="url(#clip0)">
<path d="M3.52834 22.1262C2.90701 22.0674 2.28114 22.076 1.66167 22.152C1.46172 22.164 1.26509 22.0967 1.11437 21.9648C0.963638 21.8329 0.870938 21.6469 0.856338 21.4471C0.849891 21.3407 0.879441 21.2353 0.940231 21.1477C1.00102 21.0601 1.08951 20.9956 1.19145 20.9644C1.33278 20.92 1.47945 20.8978 1.627 20.8987C2.08389 20.8987 2.54078 20.8987 2.99767 20.9289C3.15767 20.9289 3.16656 20.9289 3.18434 20.7689C3.27856 20.1289 3.29989 19.48 3.24567 18.8364C3.1879 17.9672 3.1879 17.095 3.24567 16.2258C3.28917 15.4026 3.28917 14.5778 3.24567 13.7547C3.22345 13.3191 3.23234 12.8836 3.27234 12.448C3.31197 11.9376 3.29707 11.4245 3.22789 10.9173C3.17599 10.4987 3.15579 10.0768 3.16745 9.65511C3.16949 8.88835 3.12139 8.12227 3.02345 7.36178C3.02294 7.34498 3.01895 7.32846 3.01175 7.31328C3.00454 7.29809 2.99427 7.28456 2.98158 7.27354C2.96888 7.26252 2.95405 7.25424 2.938 7.24924C2.92196 7.24423 2.90505 7.2426 2.88834 7.24445C2.53927 7.21157 2.19494 7.14002 1.86167 7.03111C1.73286 6.99572 1.60232 6.96694 1.47056 6.94489C1.39322 6.93313 1.32004 6.90226 1.25764 6.85507C1.19525 6.80789 1.14561 6.74588 1.11323 6.67467C1.04128 6.49739 1.04128 6.29905 1.11323 6.12178C1.11323 6.048 1.22256 5.97867 1.29634 5.93956C1.53989 5.81778 1.81189 5.76356 2.08389 5.78311H2.51945L2.81901 5.80889C3.00567 5.80889 3.19323 5.83911 3.38078 5.83911C3.63678 5.83911 3.89367 5.83911 4.15056 5.80445C4.28656 5.79289 4.41723 5.86045 4.48567 5.97867C4.59501 6.12178 4.65012 6.29867 4.64212 6.47911C4.64212 6.648 4.62078 6.81422 4.61545 6.97956C4.61545 7.01422 4.61545 7.05778 4.64212 7.07111C4.67145 7.08267 4.70434 7.08267 4.73367 7.07111C5.03412 6.888 5.32478 6.68889 5.60389 6.47467C5.81367 6.28978 6.05367 6.14311 6.31323 6.03911C6.36459 6.01845 6.41277 5.99062 6.45634 5.95645C6.94881 5.58608 7.54203 5.37377 8.15767 5.34756C8.78745 5.25279 9.43057 5.30357 10.0377 5.496C10.211 5.54045 10.387 5.57334 10.5639 5.59556C10.9292 5.63289 11.2839 5.736 11.6128 5.90045C11.9683 6.08534 12.3106 6.29156 12.6395 6.51822C13.2003 6.90934 13.6866 7.39645 14.0759 7.95822C14.2021 8.15378 14.2928 8.37067 14.3452 8.59822C14.4021 8.85867 14.4279 9.12889 14.5061 9.38045C14.5906 9.69245 14.6519 10.0098 14.6892 10.3298C14.7106 10.4836 14.7195 10.64 14.7159 10.7956C14.7159 11.2089 14.6803 11.6178 14.6537 12.0311C14.6166 12.5759 14.4687 13.1073 14.219 13.5929C14.0021 14.0196 13.739 14.4196 13.4368 14.7893C13.1861 15.1029 12.8929 15.38 12.5657 15.6124L11.5648 16.3298C11.3319 16.4809 11.0741 16.5911 10.8039 16.656C10.6643 16.696 10.5168 16.7129 10.3683 16.7609C10.1283 16.8524 9.87056 16.8827 9.61545 16.848C9.5285 16.8262 9.43751 16.8262 9.35056 16.848C9.15763 16.9069 8.9515 16.9069 8.75856 16.848C8.45367 16.7822 8.15767 16.6782 7.85367 16.6302C7.32774 16.5346 6.82613 16.3352 6.37812 16.0436C5.94256 15.7822 5.50789 15.5378 5.07323 15.2818C4.96245 15.2066 4.8562 15.125 4.755 15.0373C4.67678 14.9769 4.60389 14.912 4.52034 14.8551C4.43767 14.7982 4.41634 14.8551 4.41634 14.912C4.40549 15.0567 4.40549 15.202 4.41634 15.3467C4.48123 16.1236 4.499 16.904 4.46789 17.6836C4.46789 17.8969 4.44656 18.1191 4.42878 18.3182C4.37432 19.007 4.38742 19.6995 4.46789 20.3858C4.46789 20.5244 4.49456 20.6684 4.507 20.8213C4.651 20.8773 4.78612 20.7902 4.94256 20.8213C5.099 20.8507 5.25545 20.8213 5.41278 20.8213C5.79142 20.837 6.17068 20.8266 6.54789 20.7902C6.72567 20.7671 6.90612 20.7689 7.083 20.7947C7.35856 20.856 7.59856 21.0258 7.74967 21.264C7.78893 21.325 7.81422 21.3939 7.82371 21.4658C7.8332 21.5377 7.82667 21.6108 7.80458 21.6798C7.78249 21.7489 7.74539 21.8123 7.69594 21.8653C7.64649 21.9183 7.58592 21.9598 7.51856 21.9867C7.28745 22.0658 7.04478 22.1084 6.80034 22.1129H5.195C5.00834 22.1129 4.81634 22.152 4.62878 22.152C4.259 22.1476 3.89367 22.1342 3.52834 22.1253V22.1262ZM13.4403 10.5422C13.4468 10.3433 13.4379 10.1442 13.4137 9.94667C13.3108 9.44614 13.0556 8.98971 12.683 8.64C12.427 8.39292 12.1817 8.1349 11.9479 7.86667C11.8181 7.71386 11.656 7.5918 11.4732 7.50934C11.0698 7.32393 10.654 7.16681 10.2288 7.03911C9.496 6.79468 8.71364 6.73784 7.95323 6.87378C7.68499 6.85352 7.41756 6.92225 7.19234 7.06933C6.94378 7.21588 6.70533 7.37892 6.47856 7.55733C6.39412 7.62845 6.315 7.70311 6.23856 7.78311C6.02523 7.97511 5.82167 8.17867 5.62967 8.39289C5.291 8.78845 4.98967 9.21511 4.651 9.61511C4.53898 9.74648 4.47613 9.91271 4.47323 10.0853C4.46781 10.3184 4.44702 10.551 4.41101 10.7813C4.3546 11.1661 4.34594 11.5563 4.38523 11.9431C4.38789 11.9876 4.39589 12.032 4.41189 12.0738C4.65545 12.5893 4.947 13.0791 5.28212 13.5404C5.41101 13.6613 5.54612 13.776 5.68656 13.8836C6.01012 14.2071 6.38345 14.4756 6.79145 14.68C7.00923 14.7884 7.20034 14.9458 7.427 15.0409C7.87412 15.2098 8.34612 15.3004 8.82345 15.3111H8.85901C9.33778 15.2975 9.81478 15.2467 10.2857 15.1591C10.6883 15.0702 11.0706 14.9058 11.4128 14.6756C12.0999 14.2018 12.4483 13.4756 12.8439 12.7822C12.8456 12.771 12.8456 12.7596 12.8439 12.7484C12.9968 12.2862 13.1488 11.8213 13.3061 11.36C13.3897 11.0951 13.435 10.8196 13.4403 10.5422ZM59.9115 11.496C59.8616 12.3189 59.8616 13.1442 59.9115 13.9671C59.9381 14.3547 59.9417 14.7422 59.9897 15.1289C60.0012 15.2178 60.0163 15.304 60.0377 15.3902C60.0431 15.4235 60.0608 15.4535 60.0873 15.4744C60.1138 15.4953 60.1471 15.5056 60.1808 15.5031C60.2475 15.4987 60.3141 15.4987 60.3808 15.5031C60.6261 15.4996 60.8706 15.5298 61.1079 15.5902C61.2501 15.624 61.3968 15.6409 61.5434 15.6427C61.6477 15.6352 61.7509 15.6681 61.8317 15.7344C61.9126 15.8006 61.965 15.8954 61.9781 15.9991C61.9781 16.0649 62.0048 16.1298 62.0172 16.1947C62.0741 16.5129 61.9817 16.6658 61.6688 16.7262C61.4813 16.7515 61.2926 16.7661 61.1034 16.7698C60.9139 16.7683 60.7247 16.7844 60.5381 16.8178C60.2202 16.8765 59.8942 16.8765 59.5763 16.8178C59.4021 16.8178 59.2234 16.7698 59.0501 16.7609C58.7888 16.7609 58.7363 16.7218 58.7106 16.4516C58.6975 16.2183 58.6975 15.9844 58.7106 15.7511C58.7106 15.608 58.6714 15.5822 58.5577 15.6471C58.1221 15.8729 57.6874 16.104 57.2528 16.3253C57.0928 16.4018 56.9283 16.4676 56.7612 16.5262C56.5526 16.5965 56.3479 16.6778 56.1479 16.7698C55.7479 16.944 55.3212 17.0453 54.8857 17.0693C54.555 17.1138 54.2199 17.1262 53.8892 17.1529C53.811 17.1618 53.7319 17.1618 53.6546 17.1529C53.0537 17.0436 52.4448 16.952 51.8528 16.8044C51.1411 16.6357 50.5076 16.2309 50.0555 15.656C49.8647 15.3703 49.6987 15.0687 49.5594 14.7547C49.4434 14.5263 49.3923 14.2705 49.4119 14.0151C49.4279 13.6151 49.4777 13.2151 49.5594 12.8231C49.6537 12.4427 49.819 12.0836 50.0474 11.7653C50.227 11.4702 50.4617 11.2116 50.739 11.0044C51.043 10.744 51.3621 10.5022 51.6963 10.2818C52.055 10.0535 52.4584 9.90498 52.8794 9.84622C53.267 9.82045 53.6546 9.808 54.0368 9.78578L55.1381 9.72534C55.1712 9.72106 55.2046 9.72106 55.2377 9.72534C55.7603 9.72534 56.2866 9.72534 56.8092 9.75111C57.0297 9.77245 57.2483 9.81334 57.4617 9.87289C57.8181 9.95111 58.171 10.0471 58.5283 10.1298C58.6706 10.16 58.7106 10.1298 58.7061 9.97334C58.7042 9.28134 58.5558 8.59759 58.2706 7.96711C58.2008 7.75656 58.1091 7.55395 57.9968 7.36267C57.8751 7.18846 57.7197 7.04037 57.5399 6.92711C57.2114 6.74511 56.8642 6.59908 56.5043 6.49156C56.3201 6.44865 56.1317 6.42541 55.9426 6.42222C55.4425 6.38019 54.939 6.40801 54.4466 6.50489C53.9674 6.59645 53.4848 6.67911 53.0066 6.78311C52.8352 6.83267 52.6663 6.89082 52.5008 6.95733C52.1657 7.05334 51.835 7.14933 51.5008 7.232C51.3644 7.2654 51.2207 7.25324 51.0919 7.19739C50.963 7.14154 50.8559 7.04506 50.787 6.92267C50.7351 6.8239 50.718 6.71052 50.7385 6.60084C50.759 6.49116 50.8158 6.39159 50.8999 6.31822C51.1168 6.12445 51.3808 5.99289 51.6661 5.93511C51.9746 5.88267 52.2839 5.83911 52.5835 5.77422C52.8839 5.70845 53.1017 5.63911 53.3586 5.56978C53.4314 5.54134 53.507 5.52089 53.5843 5.50845C54.0494 5.47115 54.5099 5.38959 54.9594 5.26489C55.0252 5.24978 55.0928 5.24089 55.1595 5.23822L56.6306 5.29511C56.915 5.33956 57.1941 5.41689 57.4617 5.52622C57.6528 5.57867 57.8439 5.64356 58.0359 5.70045C58.2981 5.79467 58.5319 5.95556 58.715 6.16534C58.963 6.42133 59.195 6.69156 59.411 6.97422C59.7932 7.48978 60.0003 8.11378 60.003 8.75467V9.45511C60.0297 10.1369 59.9986 10.8196 59.9115 11.496ZM53.6412 15.8729C54.0008 15.8924 54.3612 15.8528 54.7079 15.7556C54.8786 15.7156 55.0475 15.6631 55.2119 15.5991C55.6474 15.4338 56.0341 15.2551 56.4474 15.0942C56.7826 14.9787 57.1008 14.8187 57.3923 14.616C57.5951 14.4621 57.8104 14.3253 58.0359 14.2071C58.2208 14.1031 58.3923 13.976 58.5452 13.8284C58.5887 13.7868 58.623 13.7367 58.6461 13.6812C58.6692 13.6256 58.6806 13.5659 58.6795 13.5058C58.6795 12.8711 58.6537 12.24 58.6057 11.6044C58.6099 11.5237 58.5844 11.4441 58.5339 11.3809C58.4835 11.3177 58.4116 11.2751 58.3319 11.2613C58.0783 11.173 57.8179 11.1058 57.5532 11.0604C57.3488 11.0258 57.1399 10.9733 56.9354 10.9387C56.7918 10.9131 56.6457 10.903 56.4999 10.9084C56.291 10.9084 56.0643 10.9564 55.8688 10.9778C55.1461 11.0489 54.4199 11.0773 53.6937 11.0649C53.3465 11.0602 53.0043 11.1473 52.7017 11.3173C52.4058 11.4881 52.136 11.7007 51.9008 11.9484C51.3098 12.5438 50.9086 13.3011 50.7479 14.1244C50.6963 14.3911 50.763 14.6667 50.9301 14.8809C51.1648 15.1831 51.4821 15.408 51.8439 15.5298C52.4275 15.714 53.0308 15.8291 53.6412 15.8729ZM29.531 15.6169C29.8208 15.6009 30.1079 15.6702 30.3577 15.8169C30.4345 15.8619 30.5011 15.9224 30.5532 15.9947C30.6076 16.063 30.6423 16.1449 30.6534 16.2316C30.6646 16.3182 30.6518 16.4063 30.6164 16.4861C30.5811 16.566 30.5245 16.6347 30.4529 16.6847C30.3812 16.7347 30.2973 16.7641 30.2101 16.7698C29.9035 16.83 29.5907 16.8532 29.2786 16.8391H28.2777C28.1896 16.8367 28.1021 16.8236 28.0172 16.8C27.8039 16.7387 27.7994 16.7218 27.7906 16.4951C27.7817 16.2693 27.7603 16.0338 27.7337 15.8036C27.7351 15.7864 27.7314 15.7692 27.7231 15.7541C27.7147 15.739 27.7021 15.7267 27.6868 15.7188C27.6715 15.7109 27.6541 15.7077 27.637 15.7097C27.6199 15.7116 27.6037 15.7186 27.5906 15.7298C27.4163 15.8293 27.2377 15.9209 27.0723 16.0338C26.7159 16.2827 26.3283 16.4693 25.9541 16.6827C25.3941 16.9564 24.7879 17.1271 24.1657 17.1876C23.9993 17.1984 23.8325 17.1984 23.6661 17.1876C23.387 17.1876 23.1088 17.1876 22.835 17.2356C22.4892 17.268 22.1404 17.2339 21.8074 17.1351C21.3695 17.048 20.9583 16.8585 20.6074 16.5822C20.0799 16.1314 19.6966 15.5354 19.5052 14.8684C19.4399 14.6346 19.4064 14.393 19.4057 14.1502C19.4039 14.0613 19.395 13.9724 19.379 13.8844C19.3076 13.4444 19.2772 12.9986 19.2883 12.5529C19.2883 12.0747 19.3497 11.6 19.3888 11.1262C19.4146 10.7956 19.4279 10.4596 19.4235 10.1253C19.4235 9.58134 19.3932 9.03734 19.3755 8.49334C19.3668 8.3818 19.3668 8.26976 19.3755 8.15822C19.3843 7.80089 19.3399 7.44445 19.2403 7.10045C19.2386 7.08133 19.233 7.06277 19.224 7.04584C19.2149 7.02891 19.2026 7.01396 19.1877 7.00187C19.1728 6.98978 19.1556 6.98079 19.1372 6.97543C19.1187 6.97007 19.0994 6.96845 19.0803 6.97067C18.98 6.9641 18.8793 6.9641 18.779 6.97067C18.4332 7.00711 18.0857 6.91734 17.8003 6.71822C17.7435 6.68267 17.6786 6.66133 17.6226 6.63111C17.5642 6.60199 17.5138 6.55919 17.4756 6.50637C17.4373 6.45354 17.4124 6.39226 17.403 6.32774C17.3936 6.26322 17.3999 6.19738 17.4214 6.13582C17.4429 6.07427 17.479 6.01883 17.5266 5.97422C17.645 5.8549 17.7969 5.77432 17.9621 5.74311C18.7162 5.57667 19.4964 5.56639 20.2546 5.71289C20.363 5.71289 20.4723 5.744 20.5852 5.75734C20.6378 5.75507 20.6902 5.76627 20.7372 5.78988C20.7843 5.8135 20.8246 5.84874 20.8542 5.89227C20.8839 5.9358 20.9019 5.98618 20.9066 6.03863C20.9114 6.09108 20.9026 6.14387 20.8812 6.192C20.7705 6.65803 20.7135 7.13522 20.7115 7.61422C20.7115 8.01067 20.7115 8.41067 20.7381 8.81156C20.7381 9.68178 20.7852 10.5956 20.7941 11.4871C20.7941 12.1662 20.7639 12.8444 20.7941 13.5236C20.795 13.8462 20.8226 14.1671 20.8768 14.4853C20.9203 14.7164 21.003 14.9209 21.0679 15.16C21.1203 15.3698 21.2546 15.5511 21.4421 15.6596C21.6795 15.8062 21.9301 15.9289 22.1906 16.0258C22.4386 16.088 22.6928 16.12 22.9479 16.1209H23.7834C24.0279 16.0942 24.2679 16.0302 24.4928 15.9298C25.192 15.7081 25.8493 15.3714 26.4377 14.9333C26.8661 14.632 27.2377 14.256 27.5337 13.824C27.6469 13.6705 27.7065 13.484 27.7035 13.2933C27.6732 12.2142 27.7035 11.1173 27.7559 10.056C27.7529 9.61037 27.7193 9.16548 27.6555 8.72445C27.5996 8.33835 27.585 7.94741 27.6119 7.55822C27.6119 7.40534 27.6652 7.25333 27.6946 7.12267C27.7257 6.992 27.6946 6.88356 27.5346 6.87911H26.7683C26.5114 6.87911 26.2155 6.94489 25.9372 6.95289C25.7806 6.96545 25.6232 6.9422 25.4769 6.88491C25.3306 6.82762 25.1992 6.73779 25.0928 6.62222C25.0523 6.58772 25.0191 6.5454 24.9954 6.49779C24.9716 6.45018 24.9577 6.39827 24.9544 6.34515C24.9512 6.29204 24.9587 6.23882 24.9765 6.18868C24.9943 6.13853 25.0221 6.0925 25.0581 6.05334C25.2306 5.79645 25.5203 5.64445 25.8279 5.648C26.5506 5.648 27.2732 5.61245 28.0039 5.60356C28.2146 5.6 28.4252 5.60889 28.635 5.63022C28.8954 5.65689 28.987 5.77422 28.9746 6.02667C28.9852 6.11556 28.9852 6.20622 28.9746 6.296C28.8897 6.72578 28.8661 7.16539 28.9043 7.60178V8.672C28.8934 9.31682 28.9195 9.96173 28.9826 10.6036C29.0226 11.1369 29.0341 11.6711 29.0181 12.2053C29.0181 12.8969 28.939 13.5884 28.9088 14.2764C28.8759 14.6551 28.8848 15.0356 28.9354 15.4116C28.9701 15.6071 28.9915 15.6293 29.1959 15.6204C29.2741 15.6338 29.3826 15.6249 29.531 15.6169ZM37.259 12.4622C37.2857 11.8916 37.3417 11.3218 37.3283 10.7556C37.3436 9.99766 37.3174 9.2395 37.2501 8.48445C37.238 8.18494 37.2541 7.88495 37.2981 7.58845C37.2981 7.37956 37.3461 7.15289 37.3586 6.95733C37.3719 6.76178 37.3328 6.78311 37.1897 6.76622C36.6997 6.72286 36.2066 6.7318 35.7186 6.79289C35.5628 6.81732 35.4035 6.80601 35.2527 6.75981C35.102 6.71361 34.9637 6.63373 34.8483 6.52622C34.789 6.47755 34.7426 6.41495 34.7132 6.344C34.6483 6.18756 34.6786 6.10933 34.8226 6C35.1035 5.78667 35.4483 5.67378 35.8012 5.67822H38.203C38.2804 5.68368 38.3567 5.69983 38.4297 5.72622C38.643 5.79556 38.7168 5.87378 38.7034 6.08711C38.6821 6.52267 38.6386 6.92711 38.603 7.34933C38.603 7.54045 38.5683 7.728 38.5594 7.91467C38.5594 7.97156 38.595 8.00178 38.643 7.96711C38.9123 7.79289 39.1906 7.62756 39.443 7.432C39.7692 7.17956 40.0608 6.888 40.3914 6.64C40.848 6.23726 41.3526 5.89243 41.8937 5.61334C42.2137 5.45511 42.563 5.36445 42.9195 5.34756C43.1941 5.34756 43.4768 5.31733 43.7506 5.34756C44.0741 5.35022 44.3906 5.43378 44.6732 5.59111C44.8003 5.66045 44.9328 5.71911 45.0697 5.76534C45.2626 5.86756 45.4163 6.032 45.5052 6.23111C45.6128 6.44889 45.7435 6.66667 45.8652 6.87111C45.9425 7.02103 45.9673 7.19257 45.9354 7.35822C45.9354 7.45067 45.8626 7.52711 45.7701 7.53156C45.5936 7.57045 45.4089 7.53785 45.2563 7.44089C45.1559 7.36622 45.0652 7.288 44.9692 7.21422C44.6038 6.89855 44.1453 6.71068 43.6634 6.67911C43.5641 6.68136 43.4658 6.69905 43.3719 6.73156C42.7763 6.94756 42.2039 7.22578 41.667 7.56267C41.4661 7.68 41.2617 7.79378 41.0661 7.91467C40.7221 8.12356 40.3746 8.32356 40.0528 8.55467C39.7639 8.76356 39.4883 8.98845 39.2261 9.22934C39.0039 9.42934 38.7906 9.664 38.5861 9.86045C38.5391 9.89785 38.5025 9.94663 38.4796 10.0022C38.4567 10.0577 38.4484 10.1181 38.4555 10.1778V11.0133C38.4555 11.3911 38.4119 11.7698 38.3941 12.1484C38.3719 12.5262 38.3914 12.9058 38.451 13.28C38.4954 13.5342 38.5212 13.792 38.5292 14.0498C38.5559 14.5591 38.5683 15.072 38.5906 15.5858C38.5906 15.7298 38.6252 15.76 38.7772 15.7556L40.9532 15.7031H42.6848C42.7524 15.6983 42.8194 15.6867 42.8848 15.6684C43.2181 15.6124 43.5595 15.6871 43.8377 15.8773C43.9476 15.9466 44.0398 16.0404 44.1071 16.1515C44.1744 16.2626 44.2148 16.3879 44.2252 16.5173C44.2331 16.6188 44.2076 16.72 44.1525 16.8055C44.0975 16.8911 44.0159 16.9563 43.9203 16.9911C43.7843 17.0551 43.6359 17.0889 43.4848 17.0916C43.2635 17.0916 43.0501 17.0916 42.8199 17.1307C42.5017 17.1307 42.1799 17.1307 41.8581 17.104C41.7133 17.0888 41.5673 17.0888 41.4226 17.104C41.024 17.1518 40.6211 17.1518 40.2226 17.104C39.891 17.0782 39.5603 17.104 39.2252 17.104H38.3257C38.2258 17.0931 38.1251 17.0931 38.0252 17.104C37.6608 17.1369 37.2946 17.1467 36.9292 17.1351C36.3026 17.1351 35.6803 17.1351 35.0581 17.1084C34.731 17.0705 34.4252 16.927 34.187 16.6996C34.1412 16.6653 34.1051 16.6197 34.0825 16.5671C34.0599 16.5145 34.0515 16.457 34.0582 16.4001C34.0648 16.3433 34.0863 16.2892 34.1205 16.2434C34.1546 16.1975 34.2003 16.1614 34.2528 16.1387C34.4261 16.0409 34.6066 15.9564 34.7923 15.8862C34.9304 15.8307 35.0811 15.8141 35.2279 15.8382C35.5906 15.9058 35.9621 15.9058 36.3239 15.8382C36.4886 15.8186 36.6551 15.8186 36.8199 15.8382C36.8646 15.8349 36.9095 15.8425 36.9506 15.8604C37.2732 15.8604 37.3159 15.8604 37.2599 15.5298C37.1689 14.8342 37.154 14.1308 37.2155 13.432C37.2155 13.1538 37.2155 12.8756 37.251 12.5964L37.2599 12.4622H37.259ZM85.683 3.11111C85.9861 3.52889 86.4723 3.77511 86.9888 3.77245C87.1008 3.77245 87.2119 3.75645 87.3195 3.72445C87.4599 3.69156 87.5932 3.63556 87.715 3.55911C88.0297 3.37778 88.2323 3.05156 88.2546 2.68889V2.44089V1.77956C88.2421 1.33511 88.043 0.917335 87.707 0.626668C87.4806 0.429647 87.2002 0.30523 86.9022 0.269565C86.6042 0.233901 86.3024 0.288637 86.0359 0.426668H86.0057C85.3008 0.835557 85.4226 2.54578 85.6919 3.08978L85.683 3.11111ZM107.321 14.92C107.163 14.9316 107.003 14.9316 106.843 14.92C106.843 14.6764 106.843 14.4284 106.879 14.1804C106.9 13.5849 106.926 12.9716 106.978 12.3707C107.014 11.9351 107.008 11.4782 107.005 11.0649V8.41067V7.40178C107.005 7.06222 106.951 6.80089 106.921 6.53067C106.921 6.40089 106.891 6.27022 106.874 6.13956V6.04356C106.874 5.96533 106.874 5.88711 106.852 5.81245C106.859 5.38489 106.895 4.95733 106.961 4.53422C106.983 4.38133 107 4.22489 107.017 4.06845C107.017 4.02045 107.017 3.97245 107.039 3.92C107.061 3.86845 107.065 3.72 107.07 3.62045C107.097 3.05156 107.086 2.48178 107.034 1.91378C107.034 1.67111 107.004 1.42311 106.996 1.17511C106.991 1.04983 106.979 0.924908 106.96 0.800891C106.939 0.59554 106.84 0.405988 106.684 0.270294C106.529 0.134599 106.328 0.0628083 106.121 0.069335C105.973 0.069335 105.839 0.069335 105.686 0.0960017H105.538C105.285 0.128635 105.029 0.128635 104.776 0.0960017C104.439 0.0480776 104.096 0.0480776 103.759 0.0960017C103.568 0.126322 103.382 0.181922 103.206 0.261335L103.149 0.288002C103.005 0.353663 102.879 0.4519 102.78 0.574891C102.682 0.697882 102.613 0.842231 102.58 0.996446L102.558 1.06578C102.536 1.13763 102.528 1.21316 102.536 1.28794C102.543 1.36273 102.565 1.43528 102.601 1.50134C102.685 1.68889 102.819 1.84978 102.988 1.96711C103.248 2.13067 103.551 2.21511 103.859 2.21067C103.941 2.21511 104.023 2.21511 104.106 2.21067H104.315C104.488 2.21956 104.662 2.21067 104.833 2.17956V3.23289C104.833 3.57245 104.855 3.91645 104.872 4.25511V4.96445C104.872 5.19556 104.886 5.42667 104.911 5.65689C104.953 5.98667 104.969 6.32 104.959 6.65245C104.633 6.33765 104.297 6.03176 103.954 5.73511L103.911 5.69956C103.682 5.46491 103.387 5.30449 103.066 5.23911C103.021 5.21138 102.973 5.18787 102.923 5.16889C102.818 5.12713 102.711 5.09239 102.601 5.06489L102.214 4.97778C101.991 4.92978 101.778 4.88622 101.578 4.82578C101.244 4.73142 100.899 4.68445 100.551 4.68622C100.167 4.69248 99.7847 4.73173 99.4074 4.80356C99.046 4.87924 98.692 4.98692 98.3497 5.12533L98.1932 5.18222C97.9799 5.26578 97.7772 5.37156 97.5888 5.49956C97.1559 5.77156 96.747 6.07822 96.3657 6.41778C95.9941 6.72445 95.6963 7.11111 95.4946 7.54934L95.299 7.98489C95.1301 8.38045 94.9603 8.776 94.8039 9.17245C94.6761 9.46841 94.5825 9.77796 94.5248 10.0951C94.3724 11.031 94.444 11.9896 94.7337 12.8924C94.8341 13.184 94.9257 13.4756 95.0163 13.7636C95.1835 14.3816 95.4903 14.9531 95.9132 15.4338C95.9657 15.4862 96.0128 15.5378 96.0608 15.5947C96.2563 15.8329 96.4857 16.0427 96.7399 16.2169C96.9657 16.3609 97.2181 16.5084 97.531 16.6827C97.6688 16.7636 97.8155 16.8293 97.9666 16.8782L98.4021 17L98.9328 17.1484C99.4091 17.2949 99.9056 17.3654 100.404 17.3573C100.621 17.3573 100.839 17.3573 101.113 17.3262C101.651 17.2609 102.18 17.1339 102.688 16.9476C102.728 16.9342 102.767 16.9182 102.806 16.9004L103.058 16.8C103.215 16.7351 103.371 16.6693 103.532 16.6133C103.951 16.488 104.348 16.2969 104.707 16.0471L104.68 16.1867C104.661 16.2589 104.656 16.3344 104.666 16.4086C104.676 16.4828 104.701 16.5542 104.739 16.6187C104.777 16.6831 104.828 16.7393 104.888 16.7839C104.948 16.8285 105.016 16.8605 105.089 16.8782L105.255 16.9262C105.535 17.0187 105.83 17.0631 106.126 17.0569C106.406 17.0427 106.687 17.0676 106.961 17.1307C107.095 17.1609 107.232 17.1733 107.37 17.1662C107.722 17.1262 108.057 17.0782 108.344 17.0347C108.515 17.0112 108.674 16.9348 108.799 16.8161C108.924 16.6975 109.008 16.5426 109.04 16.3733C109.133 16.0293 109.023 15.6622 108.758 15.4249C108.566 15.2462 108.34 15.1091 108.093 15.0222C107.846 14.9353 107.583 14.9005 107.322 14.92H107.321ZM104.985 11.744C104.994 11.9956 104.919 12.2436 104.772 12.4489C104.685 12.6009 104.603 12.7538 104.524 12.9102C104.464 13.0345 104.398 13.1564 104.328 13.2756C104.271 13.3663 104.202 13.4496 104.124 13.5236L103.972 13.6498C103.915 13.6924 103.86 13.7375 103.807 13.7849L103.575 14.0018C103.471 14.1022 103.367 14.2027 103.258 14.2933C103.027 14.4844 102.763 14.632 102.479 14.7289C102.01 14.9184 101.516 15.0399 101.013 15.0898C100.639 15.1236 100.264 15.1342 99.8901 15.12C99.6552 15.0924 99.4252 15.0325 99.2066 14.9422C98.8483 14.8 98.4963 14.64 98.1541 14.4631C97.9902 14.3798 97.8356 14.2794 97.6928 14.1636C97.6235 14.1067 97.5577 14.0418 97.4928 13.9804C97.427 13.9191 97.3399 13.8329 97.2572 13.7627C97.1294 13.647 97.0401 13.495 97.0012 13.3271C96.9568 13.1796 96.9186 13.0276 96.8794 12.8924C96.8403 12.7573 96.8261 12.6791 96.7968 12.5751C96.6391 12.0007 96.6135 11.3981 96.7221 10.8124C96.7221 10.7084 96.7532 10.6036 96.7666 10.504C96.779 10.4036 96.7968 10.2951 96.8137 10.1947C96.9046 9.73957 97.0373 9.29384 97.2101 8.86311C97.2883 8.68534 97.4012 8.52534 97.5408 8.38933C97.9678 7.91359 98.4816 7.52353 99.0546 7.24L99.155 7.19289C99.3802 7.06941 99.6217 6.97843 99.8723 6.92267H99.9817C100.15 6.89067 100.319 6.87378 100.491 6.87022C100.586 6.86934 100.68 6.87911 100.774 6.90134C101.138 6.99022 101.494 7.11289 101.835 7.26578L102.579 7.584C102.819 7.69956 103.028 7.872 103.188 8.08445C103.332 8.26222 103.488 8.43734 103.623 8.61067C103.759 8.78489 103.933 8.95911 104.085 9.14222V9.168C104.323 9.43111 104.526 9.72356 104.689 10.0382C104.83 10.3271 104.903 10.6436 104.907 10.9653C104.907 11.1609 104.907 11.3564 104.937 11.5484C104.985 11.5787 104.985 11.6569 104.985 11.744ZM123.583 15.064C123.374 15.064 123.169 15.0373 122.96 15.0338C122.751 15.0293 122.616 15.0338 122.442 15.0027H122.316V14.92C122.321 14.884 122.321 14.8475 122.316 14.8116V14.7378V14.3804V14.0107V13.5751C122.316 13.4453 122.316 13.1796 122.338 12.9796V12.688C122.36 12.2068 122.36 11.7248 122.338 11.2436V10.808V10.2036C122.329 10.0585 122.329 9.91304 122.338 9.768V9.57245C122.363 9.01011 122.306 8.44712 122.168 7.90134C122.056 7.47054 121.9 7.05236 121.703 6.65334C121.602 6.43542 121.453 6.24329 121.267 6.09156L121.059 5.92622C120.61 5.52729 120.096 5.20803 119.54 4.98222L119.401 4.92533C119.267 4.87089 119.129 4.82719 118.988 4.79467C118.798 4.75758 118.606 4.7344 118.413 4.72534C118.289 4.71876 118.165 4.7057 118.043 4.68622C117.975 4.67965 117.907 4.67965 117.839 4.68622L116.86 4.71289H116.812C116.703 4.70313 116.594 4.71491 116.49 4.74756C116.348 4.78311 116.201 4.80267 116.055 4.808C115.908 4.81585 115.763 4.83337 115.619 4.86045L115.35 4.904C115.177 4.92738 115.005 4.96212 114.837 5.008C114.527 5.09511 114.219 5.19467 113.923 5.29511L113.487 5.43467C113.218 5.53245 112.963 5.66756 112.73 5.83467L112.635 5.896C112.514 5.97096 112.418 6.07973 112.358 6.20882C112.299 6.33792 112.279 6.48166 112.3 6.62222C112.327 6.98222 112.561 7.29156 112.9 7.41422C113.021 7.46311 113.149 7.488 113.279 7.488C113.447 7.48267 113.616 7.45067 113.775 7.39289L113.923 7.336C113.965 7.31551 114.009 7.29942 114.054 7.288L114.358 7.20978C114.741 7.11822 115.133 7.01867 115.519 6.94845L115.733 6.90134C115.902 6.85067 116.079 6.82845 116.255 6.83556C116.538 6.86667 116.823 6.84622 117.099 6.77511C117.429 6.69678 117.773 6.69678 118.103 6.77511C118.748 6.88945 119.361 7.14338 119.897 7.51911C119.989 7.57495 120.066 7.65343 120.119 7.7471C120.172 7.84077 120.2 7.9465 120.201 8.05422V8.98045C120.2 9.00946 120.2 9.03854 120.201 9.06756V9.50311C120.009 9.44803 119.81 9.4202 119.61 9.42045H119.479C118.992 9.34578 118.501 9.31022 118.008 9.31556H116.803L115.863 9.264C115.727 9.26489 115.591 9.28178 115.459 9.312L115.115 9.39822C114.941 9.44889 114.763 9.488 114.584 9.51645C114.236 9.57312 113.905 9.71005 113.618 9.91645C113.34 10.1031 113.061 10.2898 112.787 10.4862L112.718 10.5307C112.572 10.6234 112.439 10.7342 112.321 10.8604C112.106 11.116 111.902 11.3803 111.708 11.6524C111.335 12.1465 111.143 12.7532 111.164 13.3716C111.164 13.6889 111.164 14.0116 111.186 14.3289C111.194 14.632 111.271 14.9298 111.412 15.1991C111.582 15.5076 111.782 15.7991 112.007 16.0693L112.104 16.1911C112.17 16.2764 112.243 16.3564 112.321 16.4302L112.366 16.4738C112.722 16.7999 113.145 17.0449 113.605 17.192C113.936 17.3164 114.28 17.4053 114.632 17.4569C114.937 17.4889 115.244 17.5031 115.55 17.5013H115.942C116.014 17.5019 116.085 17.4929 116.155 17.4747L116.486 17.3831L116.825 17.2871L117.695 17.0649H117.787C118.148 16.9911 118.497 16.8693 118.827 16.704C119.001 16.6151 119.183 16.5431 119.37 16.4871L119.64 16.3911C119.736 16.3556 119.831 16.3218 119.927 16.2951L120.123 16.2258C120.119 16.4005 120.176 16.5711 120.284 16.7084C120.374 16.8124 120.491 16.8903 120.622 16.9341C120.753 16.9779 120.893 16.9859 121.028 16.9573C121.66 16.8781 122.299 16.8692 122.934 16.9307C123.063 16.9369 123.192 16.9369 123.321 16.9307H123.539C123.868 16.9076 124.17 16.7404 124.366 16.4738C124.455 16.3715 124.503 16.2397 124.501 16.104C124.504 15.8478 124.411 15.5996 124.242 15.4075C124.072 15.2154 123.837 15.093 123.583 15.064ZM115.554 15.2204H115.05C114.744 15.2115 114.445 15.1279 114.179 14.9769C114.042 14.9091 113.917 14.8193 113.809 14.7111C113.589 14.4494 113.411 14.1561 113.279 13.8409C113.252 13.7891 113.238 13.7316 113.238 13.6733C113.238 13.615 113.252 13.5576 113.279 13.5058C113.409 13.2062 113.558 12.888 113.714 12.5707C113.749 12.5233 113.79 12.4808 113.836 12.4444C114.049 12.2613 114.271 12.0791 114.488 11.9004C114.567 11.8263 114.665 11.7753 114.771 11.7529C114.954 11.7173 115.136 11.6747 115.315 11.6267C115.493 11.5787 115.546 11.5698 115.663 11.5484C116.092 11.4542 116.53 11.4151 116.968 11.4302C117.212 11.4409 117.456 11.4213 117.695 11.3742C118.106 11.3185 118.523 11.3374 118.927 11.4302C119.239 11.4944 119.547 11.5775 119.849 11.6791L120.111 11.7573C120.137 12.168 120.124 12.5804 120.071 12.9884C120.047 13.2107 120.062 13.4364 120.115 13.6542C120.1 13.6756 120.082 13.6945 120.062 13.7102C119.859 13.8867 119.632 14.0333 119.388 14.1458C118.84 14.4204 118.273 14.6524 117.69 14.8418C117.412 14.9389 117.135 15.0405 116.86 15.1467C116.684 15.2142 116.495 15.2453 116.307 15.2382L115.607 15.2071H115.524L115.554 15.2204ZM78.7479 5.39111C78.616 5.27458 78.4623 5.18535 78.2957 5.12859C78.1291 5.07184 77.9529 5.04867 77.7772 5.06045L77.251 5.08711L76.611 5.11733L76.3541 5.13867H75.1363C74.9833 5.14219 74.8302 5.13058 74.6795 5.104C74.5183 5.08282 74.3546 5.09004 74.1959 5.12533C74.016 5.163 73.8314 5.17349 73.6483 5.15645C73.465 5.14099 73.2804 5.15116 73.0999 5.18667C72.9016 5.22645 72.7225 5.33183 72.5914 5.48583C72.4603 5.63982 72.3848 5.83346 72.3772 6.03556C72.3562 6.23042 72.4043 6.42648 72.5132 6.58945C72.622 6.75243 72.7847 6.87195 72.9728 6.92711C73.2394 7.00356 73.515 7.04622 73.7915 7.05334L74.5141 7.09245H74.7452C74.7141 7.16178 74.6883 7.23645 74.6572 7.30578C74.5772 7.52356 74.4768 7.73334 74.3577 7.93245C74.2907 8.03556 74.2406 8.14868 74.2092 8.26756C74.1648 8.40889 74.1088 8.54578 74.0403 8.67645C73.9914 8.776 73.9435 8.87645 73.9008 8.98045C73.8475 9.11111 73.7861 9.23734 73.7177 9.35911C73.6021 9.56711 73.5043 9.78578 73.4306 10.0124C73.3301 10.3387 73.2083 10.6604 73.0777 10.9956L72.9346 11.3609L72.8688 11.544C72.8083 11.7191 72.7372 11.8907 72.6554 12.0569C72.531 12.2889 72.4332 12.5342 72.3648 12.7884C72.3453 12.855 72.3218 12.9203 72.2946 12.984L72.2208 13.1582C72.0812 13.4756 71.947 13.7893 71.8074 14.1022L71.5986 14.5378C71.5292 14.6764 71.4634 14.8116 71.3986 14.9511L71.2546 14.6898C71.0059 14.2692 70.8005 13.8246 70.6412 13.3627C70.6231 13.2992 70.5984 13.2378 70.5675 13.1796C70.5188 13.0721 70.4666 12.9663 70.411 12.8622C70.3017 12.6356 70.1977 12.4267 70.1061 12.2044L70.0279 12.0133C69.8457 11.6044 69.6866 11.184 69.5532 10.7564C69.3697 10.1922 69.1414 9.6435 68.8706 9.11556L68.7177 8.80267C68.6395 8.64267 68.5577 8.48622 68.4697 8.33245C68.3879 8.19219 68.3154 8.04669 68.2528 7.89689C68.187 7.73689 68.0741 7.51467 67.9914 7.32267C68.1115 7.31645 68.2314 7.31645 68.3523 7.32267C68.6661 7.33333 68.9799 7.31022 69.2883 7.25333L69.5319 7.21422C69.6119 7.20089 69.6919 7.17689 69.7666 7.14489H69.8057C70.1701 6.99378 70.4279 6.664 70.4892 6.27378C70.5138 6.16536 70.5136 6.05279 70.4887 5.94445C70.4638 5.8361 70.4147 5.73478 70.3452 5.648C70.2132 5.44528 70.0225 5.28756 69.7986 5.19579C69.5748 5.10401 69.3283 5.08254 69.0919 5.13422C69.0093 5.13949 68.9265 5.13949 68.8439 5.13422H68.5523L67.8563 5.17334H67.6563C67.4883 5.19378 67.3186 5.19378 67.1515 5.17334C66.8848 5.12889 66.6137 5.10845 66.3426 5.11289H65.0332C64.8395 5.11791 64.6474 5.14993 64.4626 5.208C64.1408 5.29511 63.8848 5.53956 63.7834 5.85689C63.6946 6.14934 63.7346 6.46578 63.8928 6.72711C64.0466 6.95289 64.291 7.09867 64.563 7.12711C64.707 7.14667 64.8519 7.15467 64.9986 7.15378H65.0501C65.0867 7.16544 65.1246 7.1726 65.163 7.17511H65.5417C65.7923 7.53422 66.0048 7.91734 66.1772 8.31911L67.0083 10.2684C67.1515 10.608 67.2999 10.952 67.4439 11.2907C67.5132 11.4569 67.5737 11.6267 67.6395 11.792C67.7043 11.9573 67.7523 12.1004 67.8128 12.2533C67.9701 12.6489 68.1355 13.0409 68.3043 13.432C68.4181 13.6933 68.5266 13.9547 68.635 14.2196C68.8439 14.7333 69.0706 15.264 69.3186 15.7822C69.3541 15.8427 69.3799 15.904 69.4101 15.9689C69.4403 16.0338 69.5319 16.2124 69.5968 16.3342C69.7497 16.7742 70.1479 17.0827 70.6101 17.1218C71.1506 17.1218 71.6857 17.1218 72.2208 17.0951C72.394 17.0997 72.5639 17.0479 72.7052 16.9475C72.8464 16.8472 72.9512 16.7037 73.0039 16.5387C73.1043 16.256 73.2306 15.9822 73.339 15.7511C73.3959 15.6382 73.4519 15.5342 73.5132 15.4249C73.5945 15.2842 73.6672 15.1388 73.731 14.9893C73.8572 14.7111 73.979 14.4293 74.0955 14.1458C74.1523 14.0151 74.2048 13.8844 74.2617 13.7582C74.2744 13.7272 74.289 13.6969 74.3052 13.6676C74.3603 13.5698 74.4012 13.4631 74.427 13.3538C74.4812 13.1529 74.547 12.9556 74.6226 12.7618C74.7381 12.4818 74.827 12.1902 74.8839 11.8916C74.8856 11.8744 74.8856 11.8571 74.8839 11.84L74.9052 11.7956C75.1577 11.2267 75.3799 10.7733 75.6057 10.3689C75.9186 9.80534 76.1986 9.224 76.4457 8.62845L76.555 8.36267C76.7106 8.00889 76.8412 7.64356 76.9461 7.27111L76.9728 7.18845V7.15734L77.3426 7.12711H77.5728L78.1737 7.07911H78.2563C78.3169 7.08636 78.378 7.08636 78.4386 7.07911C78.5891 7.05622 78.7291 6.98824 78.8402 6.88414C78.9513 6.78004 79.0282 6.64471 79.0608 6.496C79.1843 6.09867 79.0608 5.66489 78.7479 5.39111ZM91.179 15.0729H89.9781L89.3079 15.1164C89.043 15.1164 88.7817 15.1511 88.5168 15.16C88.2501 15.1689 88.0812 15.16 87.859 15.16H87.811L87.7843 14.7813C87.755 14.3902 87.7239 13.9804 87.7195 13.5884C87.715 13.1973 87.7195 12.8364 87.7639 12.44C87.7639 12.2622 87.7852 12.088 87.7941 11.9138C87.803 11.7396 87.7941 11.5173 87.8288 11.3218C87.8811 10.6876 87.8811 10.0502 87.8288 9.416V9.31556C87.8288 9.18133 87.7986 9.04178 87.7932 8.90667C87.7932 8.47111 87.763 8.08445 87.7586 7.68445C87.7559 7.50489 87.7674 7.32622 87.7941 7.14934C87.8377 6.896 87.8377 6.63645 87.7941 6.38311C87.7593 6.24904 87.7593 6.1083 87.7941 5.97422C87.8554 5.82919 87.8574 5.66588 87.7995 5.51943C87.7417 5.37298 87.6287 5.25508 87.4848 5.19111C87.3715 5.12817 87.2446 5.0937 87.115 5.09067H85.7355C85.5897 5.09067 85.4448 5.07911 85.2999 5.056C85.1876 5.02808 85.0725 5.01346 84.9568 5.01245H83.4777C83.2521 5.00983 83.0285 5.05416 82.821 5.14261C82.6135 5.23106 82.4266 5.3617 82.2723 5.52622C82.1758 5.61571 82.1021 5.72707 82.0576 5.85094C82.013 5.97481 81.9989 6.10757 82.0163 6.23805C82.0337 6.36854 82.0822 6.49293 82.1577 6.60077C82.2332 6.70861 82.3335 6.79675 82.4501 6.85778C82.8835 7.10547 83.3919 7.18759 83.8812 7.08889L84.0341 7.05778H85.4963C85.4963 7.16178 85.4963 7.27111 85.5266 7.37511C85.571 7.74667 85.5852 8.12 85.5657 8.49334C85.5568 8.56978 85.5568 8.648 85.5657 8.72445L85.5968 9.024C85.5968 9.19822 85.6359 9.37245 85.6439 9.55111C85.6617 9.98667 85.6448 10.4222 85.5968 10.856C85.5523 11.2649 85.5355 11.6782 85.5177 12.0738V12.4489C85.4545 13.3281 85.4545 14.2106 85.5177 15.0898H85.3399C84.9666 15.1369 84.5932 15.1644 84.2172 15.1724H83.8954C83.568 15.1462 83.2389 15.1462 82.9115 15.1724H82.8243C82.6231 15.2102 82.4166 15.2102 82.2154 15.1724C82.124 15.1501 82.0286 15.1501 81.9372 15.1724C81.5817 15.2133 81.2555 15.3876 81.0235 15.6596C80.9231 15.7511 80.8543 15.872 80.8268 16.005C80.7993 16.138 80.8147 16.2762 80.8706 16.4C80.9383 16.6018 81.0575 16.7826 81.2163 16.9244C81.3751 17.0662 81.5681 17.1643 81.7763 17.2089C82.1692 17.2853 82.5675 17.3271 82.9674 17.3351H90.4786C90.6777 17.3573 90.8786 17.3689 91.0786 17.3707C91.4108 17.3666 91.7423 17.3387 92.0706 17.2871C92.3843 17.2604 92.6715 17.1013 92.8626 16.8516C92.9485 16.7334 92.9948 16.591 92.9948 16.4449C92.9948 16.2988 92.9485 16.1564 92.8626 16.0382C92.7017 15.7348 92.4582 15.4831 92.1603 15.3122C91.8624 15.1414 91.5221 15.0584 91.179 15.0729Z" fill="#1A1E22"/>
<path d="M3.4413 22.1264C2.81997 22.0675 2.1941 22.0762 1.57463 22.1522C1.37483 22.1639 1.17843 22.0965 1.0279 21.9646C0.877365 21.8327 0.784791 21.6469 0.770189 21.4473C0.764588 21.3405 0.794899 21.235 0.856284 21.1475C0.917669 21.06 1.00659 20.9956 1.10886 20.9646C1.25019 20.9202 1.39686 20.8979 1.54441 20.8988C1.97997 20.8988 2.45819 20.8988 2.91508 20.929C3.08041 20.929 3.08397 20.929 3.10619 20.769C3.19835 20.1292 3.21892 19.481 3.16752 18.8366C3.1053 17.9673 3.1053 17.0944 3.16752 16.2259C3.20841 15.4028 3.20841 14.5779 3.16752 13.7548C3.14797 13.3193 3.15597 12.8837 3.19419 12.4482C3.23818 11.9379 3.22327 11.4243 3.14974 10.9175C3.10714 10.5071 3.09703 10.0939 3.11952 9.68194C3.11952 8.91482 3.07152 8.14949 2.97552 7.3886C2.97214 7.35488 2.95578 7.32379 2.92991 7.3019C2.90404 7.28001 2.87067 7.26902 2.83686 7.27127C2.48185 7.23927 2.13153 7.16771 1.79241 7.05794C1.66372 7.02179 1.53316 6.99271 1.4013 6.97082C1.3241 6.95868 1.25108 6.92766 1.18875 6.88052C1.12641 6.83338 1.07668 6.77158 1.04397 6.7006C0.974522 6.52315 0.974522 6.32605 1.04397 6.1486C1.08105 6.06787 1.14564 6.00296 1.22619 5.96549C1.46441 5.83749 1.73108 5.77438 2.0013 5.78327H2.43686L2.73197 5.80905C2.91863 5.80905 3.10619 5.83927 3.29374 5.83927C3.54974 5.83927 3.80663 5.83927 4.06352 5.8046C4.19952 5.79216 4.33019 5.85971 4.39863 5.97882C4.50797 6.12194 4.56308 6.29882 4.55508 6.47927C4.55508 6.64816 4.55508 6.81438 4.52841 6.97971C4.52841 7.01438 4.52841 7.05794 4.55508 7.07127C4.58441 7.08282 4.6173 7.08282 4.64663 7.07127C4.94885 6.88994 5.23952 6.69082 5.51774 6.47482C5.72663 6.28994 5.96663 6.14327 6.22619 6.03927C6.27832 6.01963 6.32694 5.99172 6.37019 5.9566C6.86365 5.58556 7.45821 5.37322 8.07508 5.34771C8.70487 5.25326 9.34792 5.30404 9.95508 5.49616C10.1266 5.5406 10.3017 5.57349 10.4769 5.59571C10.8434 5.63361 11.2001 5.73687 11.5302 5.9006C11.8831 6.08638 12.2244 6.29171 12.5524 6.51838C13.1133 6.90949 13.5995 7.3966 13.9889 7.95838C14.1169 8.15394 14.2084 8.36994 14.2582 8.59838C14.3151 8.85882 14.3453 9.12905 14.4191 9.3806C14.5035 9.6926 14.5649 10.0099 14.6022 10.3299C14.6235 10.4837 14.6324 10.6402 14.6289 10.7957C14.6289 11.209 14.5977 11.6179 14.572 12.0313C14.5345 12.5761 14.3863 13.1075 14.1364 13.593C13.9257 14.0233 13.6689 14.4286 13.3711 14.8028C13.119 15.1149 12.826 15.3914 12.5 15.625L11.4777 16.3299C11.2449 16.4819 10.9871 16.5922 10.7169 16.6562C10.5773 16.6962 10.4297 16.713 10.2813 16.761C10.0413 16.8526 9.78352 16.8828 9.52841 16.8482C9.44297 16.8263 9.35341 16.8263 9.26797 16.8482C9.07503 16.9071 8.8689 16.9071 8.67597 16.8482C8.37108 16.7824 8.07152 16.6784 7.76663 16.6304C7.24186 16.5355 6.74155 16.336 6.29552 16.0437C5.85997 15.7824 5.4253 15.5379 4.99063 15.2819C4.87986 15.2068 4.7736 15.1251 4.67241 15.0375C4.59419 14.977 4.5213 14.9122 4.43774 14.8553C4.35508 14.7984 4.33374 14.8553 4.33374 14.9122C4.3229 15.0568 4.3229 15.2021 4.33374 15.3468C4.40041 16.1237 4.41819 16.9042 4.3853 17.6837C4.3853 17.897 4.3853 18.1193 4.34619 18.3184C4.29463 19.0073 4.30708 19.6997 4.3853 20.3859C4.3853 20.5246 4.41197 20.6686 4.42974 20.8215C4.56841 20.8775 4.70352 20.7904 4.86441 20.8215C5.02441 20.8508 5.17285 20.8215 5.33019 20.8215C5.70882 20.8372 6.08809 20.8268 6.4653 20.7904C6.64308 20.7762 6.82086 20.7868 6.99597 20.8206C7.27241 20.881 7.51241 21.0508 7.66263 21.2908C7.70151 21.3523 7.72625 21.4217 7.73506 21.494C7.74387 21.5662 7.73652 21.6395 7.71356 21.7085C7.6906 21.7776 7.65259 21.8407 7.60228 21.8933C7.55197 21.9459 7.49061 21.9866 7.42263 22.0126C7.19152 22.0917 6.94885 22.1344 6.70441 22.1388H5.09908C4.91241 22.1388 4.72041 22.1779 4.53374 22.1779C4.1702 22.1497 3.80589 22.1325 3.4413 22.1264ZM13.3533 10.5424C13.3637 10.3436 13.3566 10.1443 13.332 9.94682C13.2255 9.44645 12.9687 8.99054 12.596 8.64016C12.341 8.39197 12.0958 8.134 11.8609 7.86682C11.7324 7.71293 11.5703 7.59066 11.3871 7.50949C10.98 7.3166 10.5604 7.15394 10.1293 7.02238C9.39648 6.78434 8.61576 6.73331 7.85819 6.87394C7.58966 6.85348 7.32188 6.92222 7.09641 7.06949C6.84863 7.21504 6.61159 7.37812 6.38708 7.55749C6.30187 7.62702 6.22168 7.70247 6.14708 7.78327C5.93377 7.97446 5.73194 8.17807 5.54263 8.39305C5.20397 8.7886 4.90263 9.21527 4.56841 9.61527C4.45376 9.75071 4.38912 9.92142 4.3853 10.0988C4.38047 10.3319 4.36028 10.5644 4.32486 10.7948C4.27031 11.1797 4.26136 11.5696 4.29819 11.9566C4.29997 12.001 4.31063 12.0455 4.3293 12.0873C4.57108 12.6028 4.86263 13.0935 5.19952 13.5539C5.32841 13.6748 5.46352 13.7895 5.60397 13.897C5.92841 14.2188 6.30086 14.4873 6.70886 14.6935C6.92663 14.8019 7.14441 14.9584 7.34441 15.0544C7.7933 15.2233 8.26708 15.3139 8.7453 15.3246H8.77641C9.25521 15.3107 9.73221 15.2596 10.2031 15.1717C10.6061 15.084 10.9886 14.9202 11.3302 14.689C12.0173 14.2144 12.3657 13.4882 12.7657 12.7957V12.761C12.9186 12.2997 13.0706 11.8348 13.228 11.3735C13.3097 11.1042 13.3524 10.8242 13.3533 10.5424ZM59.828 11.4962C59.7782 12.3191 59.7782 13.1443 59.828 13.9673C59.8546 14.3548 59.8591 14.7424 59.9115 15.129C59.9204 15.217 59.9355 15.3042 59.9551 15.3904C59.9605 15.4237 59.9783 15.4537 60.0047 15.4746C60.0312 15.4955 60.0646 15.5057 60.0982 15.5033C60.1649 15.4988 60.2315 15.4988 60.2982 15.5033C60.5435 15.4997 60.788 15.529 61.0253 15.5904C61.1682 15.6234 61.3142 15.641 61.4609 15.6428C61.5637 15.6413 61.6638 15.6763 61.7434 15.7415C61.8229 15.8068 61.8768 15.8981 61.8955 15.9993C61.8955 16.065 61.8955 16.1299 61.9311 16.1948C61.9871 16.513 61.8955 16.6659 61.5817 16.7264C61.3943 16.7519 61.2055 16.7664 61.0164 16.7699C60.8269 16.7685 60.6376 16.7845 60.4511 16.8179C60.1332 16.8767 59.8072 16.8767 59.4893 16.8179C59.3151 16.8179 59.1364 16.7699 58.9631 16.761C58.7017 16.761 58.6537 16.7219 58.6235 16.4517C58.5933 16.1824 58.6235 15.9868 58.6235 15.7513C58.6235 15.6082 58.588 15.5824 58.4706 15.6473C58.036 15.873 57.6004 16.1042 57.1657 16.3255C57.0057 16.4019 56.8413 16.4677 56.6742 16.5264C56.4656 16.5966 56.2608 16.6779 56.0609 16.7699C55.6609 16.9442 55.2342 17.0455 54.7986 17.0695C54.468 17.1139 54.1373 17.1264 53.8022 17.153C53.7257 17.1619 53.6484 17.1619 53.5711 17.153C52.9666 17.0437 52.3622 16.9522 51.7666 16.8046C51.0547 16.636 50.4208 16.2312 49.9684 15.6562C49.7793 15.3695 49.6134 15.068 49.4724 14.7548C49.3563 14.5265 49.3053 14.2707 49.3249 14.0153C49.3409 13.6144 49.3915 13.2153 49.4769 12.8233C49.5675 12.4428 49.732 12.0837 49.9604 11.7655C50.1409 11.4695 50.3773 11.2108 50.6564 11.0046C50.9586 10.7442 51.2769 10.5024 51.6093 10.2819C51.9693 10.0535 52.3737 9.90505 52.7969 9.84638C53.18 9.8206 53.5675 9.80816 53.9542 9.78594L55.0511 9.72549C55.0844 9.72122 55.1182 9.72122 55.1515 9.72549C55.6733 9.72549 56.2004 9.72549 56.7222 9.75127C56.9426 9.7726 57.1613 9.81349 57.3746 9.87305C57.7311 9.95127 58.084 10.0473 58.4449 10.1299C58.5844 10.1602 58.628 10.1299 58.6191 9.97349C58.6172 9.2815 58.4688 8.59775 58.1835 7.96727C58.1157 7.75598 58.0238 7.55318 57.9097 7.36282C57.7946 7.19046 57.6465 7.04246 57.4742 6.92727C57.1438 6.74592 56.7952 6.59993 56.4342 6.49171C56.2506 6.44844 56.0628 6.42519 55.8742 6.42238C55.375 6.38008 54.8723 6.40791 54.3809 6.50505C53.8982 6.5966 53.4146 6.67927 52.9364 6.78327C52.7653 6.83286 52.5968 6.891 52.4315 6.95749C52.0997 7.05567 51.766 7.14724 51.4306 7.23216C51.2942 7.26555 51.1506 7.2534 51.0217 7.19755C50.8928 7.14169 50.7858 7.04521 50.7169 6.92282C50.665 6.82397 50.6481 6.71052 50.6687 6.60084C50.6894 6.49115 50.7464 6.39164 50.8306 6.31838C51.0475 6.1246 51.3115 5.99305 51.596 5.93527C51.9053 5.88282 52.2137 5.83927 52.5186 5.77438C52.8235 5.7086 53.0324 5.63927 53.2884 5.56994C53.3622 5.54149 53.4377 5.52105 53.5151 5.5086C53.9816 5.47093 54.4435 5.38939 54.8946 5.26505C54.9586 5.24994 55.0244 5.24105 55.0902 5.23838L56.5613 5.29527C56.8457 5.33971 57.1249 5.41705 57.3924 5.52638C57.588 5.57882 57.7746 5.64371 57.9666 5.7006C58.2297 5.79482 58.4644 5.95571 58.6493 6.16549C58.8964 6.42238 59.1293 6.6926 59.3453 6.97438C59.7266 7.48994 59.932 8.11394 59.9329 8.75482V9.45527C59.9533 10.137 59.9177 10.8197 59.8289 11.4962H59.828ZM53.5675 15.873C53.9249 15.8935 54.284 15.8535 54.6289 15.7557C54.8022 15.7148 54.972 15.6624 55.1382 15.5993C55.5737 15.4339 55.956 15.2553 56.3693 15.0944C56.7062 14.9788 57.0253 14.8188 57.3177 14.6162C57.5195 14.4597 57.7355 14.3228 57.9622 14.2073C58.1453 14.1024 58.3151 13.9753 58.4671 13.8286C58.5124 13.7885 58.548 13.7386 58.5713 13.6827C58.5945 13.6268 58.6048 13.5664 58.6013 13.5059C58.6013 12.8713 58.5755 12.2402 58.5275 11.6046C58.5318 11.5238 58.5062 11.4443 58.4558 11.3811C58.4053 11.3178 58.3334 11.2753 58.2537 11.2615C58.0014 11.1732 57.7421 11.106 57.4786 11.0606C57.2697 11.0259 57.0653 10.9735 56.8564 10.9388C56.7127 10.9133 56.5667 10.9032 56.4209 10.9086C56.2129 10.9086 55.9862 10.9566 55.7906 10.9779C55.068 11.049 54.3417 11.0784 53.6155 11.065C53.2695 11.0602 52.9284 11.1473 52.6271 11.3175C52.3275 11.4873 52.0529 11.6997 51.8137 11.9486C51.2228 12.544 50.8216 13.3012 50.6609 14.1246C50.6084 14.3913 50.6769 14.6686 50.8475 14.881C51.0786 15.1833 51.396 15.409 51.7569 15.5299C52.3448 15.7152 52.9526 15.8303 53.5675 15.873ZM29.444 15.617C29.7346 15.601 30.0235 15.6704 30.2751 15.817C30.3506 15.8615 30.4164 15.9237 30.4671 15.9948C30.5209 16.0618 30.5557 16.142 30.5677 16.2271C30.5798 16.3121 30.5688 16.3988 30.5358 16.4781C30.5028 16.5574 30.449 16.6264 30.3801 16.6777C30.3113 16.7291 30.2298 16.7609 30.1444 16.7699C29.8396 16.83 29.5286 16.8533 29.2182 16.8393H28.2173C28.1274 16.8373 28.0382 16.8241 27.9515 16.8002C27.7382 16.7388 27.7382 16.7219 27.7293 16.4953C27.7204 16.2695 27.6991 16.0339 27.6733 15.8037C27.6736 15.7865 27.6689 15.7695 27.66 15.7548C27.651 15.7401 27.6381 15.7282 27.6227 15.7205C27.6073 15.7128 27.59 15.7096 27.5729 15.7112C27.5557 15.7129 27.5394 15.7194 27.5257 15.7299C27.3515 15.8295 27.1729 15.921 27.0075 16.0339C26.6463 16.2695 26.273 16.486 25.8893 16.6828C25.3284 16.9573 24.7225 17.1284 24.1009 17.1877C23.9342 17.1987 23.767 17.1987 23.6004 17.1877C23.3222 17.1877 23.044 17.1877 22.7693 17.2357C22.4238 17.268 22.0753 17.2339 21.7426 17.1353C21.3043 17.0483 20.8928 16.8588 20.5417 16.5824C20.0159 16.1303 19.6332 15.5347 19.4404 14.8686C19.3751 14.6348 19.3416 14.3932 19.3409 14.1504C19.3409 14.0615 19.332 13.9726 19.3142 13.8846C19.2449 13.4443 19.2146 12.9987 19.2235 12.553C19.2235 12.0748 19.284 11.6002 19.3231 11.1264C19.3497 10.7957 19.3622 10.4597 19.3586 10.1255C19.3586 9.58149 19.3275 9.03749 19.3106 8.49349C19.302 8.38195 19.302 8.26992 19.3106 8.15838C19.3195 7.80105 19.2751 7.4446 19.1755 7.1006C19.1738 7.08141 19.1682 7.06276 19.1591 7.04576C19.15 7.02877 19.1375 7.01378 19.1225 7.00168C19.1075 6.98957 19.0902 6.98061 19.0717 6.97531C19.0532 6.97001 19.0338 6.96848 19.0146 6.97082C18.9146 6.96429 18.8142 6.96429 18.7142 6.97082C18.3675 7.00638 18.0209 6.91749 17.7355 6.71838C17.6786 6.68282 17.6129 6.66149 17.5569 6.63127C17.4919 6.60492 17.4349 6.56215 17.3915 6.50715C17.3481 6.45215 17.3197 6.38681 17.3091 6.31753C17.2985 6.24825 17.3061 6.17741 17.3312 6.11196C17.3562 6.0465 17.3978 5.98868 17.452 5.94416C17.5694 5.82348 17.7217 5.74265 17.8875 5.71305C18.6296 5.56254 19.3943 5.56254 20.1364 5.71305C20.2457 5.71305 20.3586 5.74416 20.468 5.75749C20.5206 5.75522 20.5729 5.76643 20.62 5.79004C20.6671 5.81365 20.7073 5.84889 20.737 5.89242C20.7666 5.93596 20.7847 5.98633 20.7894 6.03879C20.7941 6.09124 20.7854 6.14403 20.764 6.19216C20.6532 6.65818 20.5962 7.13537 20.5942 7.61438C20.5942 8.01082 20.5942 8.41082 20.62 8.81171C20.62 9.68194 20.6724 10.5957 20.6769 11.4873C20.6769 12.1664 20.6457 12.8446 20.6546 13.5237C20.6751 13.8473 20.7204 14.169 20.7897 14.4855C20.8484 14.7202 20.9213 14.9513 21.0075 15.177C21.0644 15.3842 21.2049 15.5593 21.3942 15.6597C21.6315 15.8064 21.8822 15.929 22.1426 16.0259C22.3906 16.0882 22.6449 16.1202 22.9 16.121H23.74C23.9835 16.0944 24.2209 16.0304 24.4449 15.9299C25.1445 15.7094 25.8021 15.3726 26.3897 14.9335C26.8191 14.6313 27.1897 14.2517 27.4822 13.8153C27.5951 13.6617 27.6544 13.4752 27.6511 13.2846C27.6253 12.2055 27.6511 11.1086 27.7044 10.0473C27.7026 9.60105 27.6689 9.1566 27.604 8.71571C27.5398 8.33349 27.5163 7.94555 27.5337 7.55838C27.5515 7.41171 27.58 7.26593 27.6164 7.12282C27.6555 6.9486 27.6164 6.88371 27.4564 6.87927H26.6857C26.428 6.87927 26.1329 6.94505 25.8546 6.95305C25.698 6.9656 25.5406 6.94236 25.3943 6.88507C25.248 6.82778 25.1166 6.73795 25.0102 6.62238C24.9697 6.58788 24.9365 6.54555 24.9128 6.49795C24.889 6.45034 24.8751 6.39842 24.8719 6.34531C24.8686 6.2922 24.8761 6.23897 24.8939 6.18883C24.9118 6.13869 24.9395 6.09266 24.9755 6.05349C25.1489 5.79749 25.4377 5.64549 25.7453 5.64816C26.468 5.64816 27.1906 5.6126 27.9213 5.60371C28.1337 5.60016 28.3453 5.60905 28.5569 5.63038C28.8129 5.65705 28.9044 5.77438 28.8955 6.02682C28.8955 6.11749 28.8866 6.20727 28.8697 6.29616C28.7852 6.72597 28.7619 7.16558 28.8004 7.60194V8.67216C28.7915 9.3166 28.8182 9.96194 28.8786 10.6037C28.9204 11.137 28.932 11.6713 28.9133 12.2055C28.9133 12.897 28.8351 13.5886 28.8049 14.2766C28.772 14.6553 28.7809 15.0357 28.8306 15.4117C28.8662 15.6073 28.8875 15.6295 29.092 15.6206C29.1871 15.6339 29.3009 15.625 29.444 15.617ZM37.172 12.4624C37.1986 11.8917 37.2546 11.3219 37.2457 10.7557C37.2588 9.99784 37.2327 9.23979 37.1675 8.4846C37.1519 8.18523 37.1665 7.88504 37.2111 7.5886C37.2111 7.37971 37.2591 7.15305 37.2724 6.95749C37.2849 6.76194 37.2457 6.78327 37.1026 6.76638C36.6142 6.72298 36.1225 6.73192 35.636 6.79305C35.4802 6.81714 35.321 6.80567 35.1703 6.75949C35.0196 6.71331 34.8813 6.63361 34.7657 6.52638C34.7077 6.47646 34.6615 6.41421 34.6306 6.34416C34.5702 6.18771 34.596 6.10949 34.74 6.00016C35.0173 5.79226 35.3543 5.6794 35.7009 5.67838H38.1035C38.1807 5.6835 38.2567 5.69967 38.3293 5.72638C38.5426 5.79571 38.6164 5.87394 38.6075 6.08727C38.5817 6.52282 38.5382 6.92727 38.5035 7.34949C38.5035 7.5406 38.4733 7.72816 38.4591 7.91482C38.4591 7.97171 38.4946 8.00194 38.5471 7.96727C38.812 7.79305 39.0911 7.62771 39.3435 7.43216C39.6697 7.17971 39.9657 6.88816 40.292 6.64016C40.7533 6.24031 41.2616 5.89822 41.8057 5.62149C42.1257 5.46149 42.4751 5.36816 42.8324 5.34771C43.1115 5.34771 43.3897 5.31749 43.6635 5.34771C43.9871 5.35038 44.3035 5.43394 44.5862 5.59127C44.7133 5.6606 44.8457 5.71927 44.9826 5.76549C45.1826 5.85971 45.3453 6.01971 45.444 6.21882C45.548 6.43571 45.6786 6.65349 45.8004 6.85794C45.8804 7.00727 45.9044 7.17971 45.8697 7.34505C45.8697 7.43749 45.7977 7.51394 45.7044 7.51927C45.5281 7.55726 45.3438 7.52438 45.1915 7.42771C45.0911 7.35394 44.9995 7.27571 44.9044 7.20105C44.5407 6.88257 44.0812 6.6943 43.5986 6.66594C43.4994 6.66852 43.401 6.68621 43.3071 6.71838C42.7115 6.93438 42.1391 7.2126 41.6013 7.54949L41.0235 7.90238C40.6831 8.11038 40.3355 8.31127 40.0093 8.54238C39.7213 8.75038 39.4449 8.97616 39.1826 9.21616C38.9604 9.41616 38.7471 9.65171 38.5426 9.84727C38.4965 9.88542 38.4605 9.93431 38.4377 9.98964C38.4149 10.045 38.4061 10.1051 38.412 10.1646V11.0002C38.412 11.3788 38.3684 11.7575 38.3515 12.1353C38.3284 12.5139 38.348 12.8935 38.4075 13.2668C38.4395 13.5264 38.452 13.7886 38.4431 14.0499C38.4689 14.5593 38.4813 15.0722 38.508 15.5859C38.508 15.7299 38.5382 15.7602 38.6902 15.7557L40.8662 15.7033H42.6022C42.6689 15.6988 42.7337 15.6864 42.7977 15.6686C43.132 15.6117 43.4751 15.6864 43.7551 15.8775C43.9773 16.0188 44.1195 16.2553 44.1382 16.5175C44.1468 16.6191 44.1216 16.7206 44.0665 16.8063C44.0113 16.892 43.9293 16.9571 43.8333 16.9913C43.6973 17.0553 43.5489 17.089 43.3977 17.0917C43.1764 17.0917 42.9631 17.0917 42.7373 17.1308C42.4155 17.1308 42.0929 17.1308 41.7711 17.1042C41.6263 17.0886 41.4803 17.0886 41.3355 17.1042C40.937 17.152 40.5341 17.152 40.1355 17.1042C39.8004 17.0784 39.4689 17.1042 39.1391 17.1042H38.2333C38.1349 17.0933 38.0357 17.0933 37.9373 17.1042C37.572 17.1362 37.204 17.1468 36.8369 17.1353C36.2146 17.1353 35.5924 17.1353 34.9702 17.1086C34.6346 17.075 34.3195 16.9312 34.0742 16.6997C34.0283 16.6656 33.9922 16.6199 33.9695 16.5674C33.9469 16.5149 33.9384 16.4574 33.945 16.4006C33.9515 16.3437 33.9729 16.2897 34.007 16.2437C34.0411 16.1978 34.0866 16.1616 34.1391 16.1388C34.3133 16.041 34.4955 15.9566 34.6831 15.8864C34.8208 15.8297 34.9718 15.8131 35.1186 15.8384C35.4804 15.9059 35.852 15.9059 36.2146 15.8384C36.3794 15.8188 36.5459 15.8188 36.7106 15.8384C36.7568 15.8354 36.803 15.843 36.8457 15.8606C37.1631 15.8606 37.2111 15.8606 37.1542 15.5299C37.0602 14.8346 37.0444 14.131 37.1071 13.4322L37.1462 12.5966L37.172 12.4624ZM85.5969 3.11127C85.9 3.52905 86.3853 3.77438 86.9017 3.7726C87.0137 3.7726 87.1249 3.7566 87.2324 3.7246C87.3711 3.69171 87.5035 3.63571 87.6235 3.55927C87.7789 3.47059 87.9096 3.34458 88.004 3.19263C88.0984 3.04068 88.1534 2.8676 88.164 2.68905V2.44105C88.1769 2.22079 88.1769 1.99997 88.164 1.77971C88.1563 1.55356 88.1004 1.33166 87.9998 1.12896C87.8992 0.926255 87.7563 0.747457 87.5809 0.604602C87.3545 0.407581 87.0741 0.283163 86.7761 0.247499C86.4781 0.211835 86.1762 0.266571 85.9098 0.404602H85.8795C85.1746 0.813491 85.3009 2.52371 85.5658 3.06771L85.5969 3.11127ZM107.235 14.9202C107.077 14.9311 106.918 14.9311 106.76 14.9202C106.76 14.6766 106.76 14.4286 106.792 14.1806C106.792 13.585 106.839 12.9717 106.891 12.3708C106.93 11.9353 106.921 11.4784 106.918 11.065V10.1335V8.36816V7.35838C106.918 7.01882 106.864 6.75749 106.831 6.48727C106.831 6.35749 106.8 6.22682 106.786 6.09616V6.00016C106.782 5.92318 106.782 5.84603 106.786 5.76905C106.79 5.34097 106.825 4.91374 106.891 4.49082C106.891 4.33794 106.93 4.18149 106.948 4.02505V3.87749C106.948 3.82416 106.975 3.6766 106.983 3.57705C107.008 3.00816 106.997 2.43838 106.947 1.87038C106.947 1.62771 106.913 1.37971 106.904 1.13171C106.899 1.00643 106.887 0.881508 106.869 0.757491C106.848 0.551727 106.75 0.361557 106.594 0.225661C106.438 0.0897641 106.236 0.0183471 106.03 0.0259353C105.886 0.0259353 105.747 0.0259353 105.594 0.0526019H105.451C105.198 0.0852353 104.942 0.0852353 104.689 0.0526019C104.35 0.00460145 104.006 0.00460145 103.667 0.0526019C103.477 0.0840733 103.291 0.139629 103.114 0.217935L103.058 0.244602C102.915 0.310009 102.789 0.408213 102.691 0.531281C102.592 0.654349 102.524 0.798828 102.492 0.953046L102.465 1.02238C102.443 1.09429 102.436 1.16985 102.444 1.24463C102.451 1.31942 102.474 1.39194 102.51 1.45794C102.595 1.6446 102.728 1.80549 102.897 1.92371C103.158 2.08727 103.46 2.17171 103.768 2.16727C103.849 2.17171 103.933 2.17171 104.016 2.16727H104.224C104.397 2.17616 104.571 2.16727 104.742 2.13616V3.18949C104.742 3.52905 104.742 3.87305 104.781 4.21171V4.92105C104.781 5.15216 104.794 5.38327 104.82 5.61349C104.864 5.94327 104.88 6.2766 104.868 6.60905C104.541 6.29426 104.207 5.98837 103.864 5.69171L103.819 5.65616C103.591 5.41975 103.297 5.25901 102.975 5.19571C102.931 5.16717 102.885 5.14361 102.836 5.12549C102.73 5.08372 102.621 5.04898 102.51 5.02149L102.122 4.93438C101.9 4.88638 101.687 4.84282 101.491 4.78238C101.157 4.68831 100.811 4.64134 100.464 4.64282C100.079 4.64885 99.6947 4.6881 99.316 4.76016C98.9548 4.83706 98.601 4.94471 98.2582 5.08194L98.1062 5.13882C97.8929 5.22238 97.6884 5.32816 97.4973 5.45616C97.068 5.73082 96.6618 6.03927 96.2831 6.37882C95.9136 6.68786 95.6162 7.0741 95.412 7.51038L95.2217 7.94594C95.052 8.34149 94.8777 8.73705 94.7213 9.13349C94.5933 9.4286 94.5009 9.73794 94.4466 10.0562C94.2907 10.9916 94.3608 11.9507 94.6511 12.8535C94.7515 13.145 94.8431 13.4366 94.9338 13.7246C95.1012 14.3524 95.4142 14.932 95.8475 15.4162L95.9915 15.577C96.1871 15.8162 96.4155 16.0259 96.6706 16.1993C96.8964 16.3433 97.1489 16.4908 97.4617 16.665C97.5995 16.7459 97.7462 16.8117 97.8973 16.8606L98.3542 16.9833L98.8893 17.1308C99.364 17.2775 99.8582 17.3477 100.356 17.3397C100.578 17.3397 100.792 17.3397 101.065 17.3095C101.604 17.2437 102.134 17.1166 102.645 16.9308L102.762 16.8828L103.01 16.7824C103.167 16.7175 103.328 16.6526 103.484 16.5957C103.904 16.4695 104.302 16.2784 104.664 16.0304C104.664 16.0775 104.664 16.121 104.633 16.169C104.614 16.2414 104.609 16.3169 104.619 16.3912C104.629 16.4655 104.653 16.5371 104.692 16.6016C104.73 16.6662 104.78 16.7224 104.841 16.7671C104.901 16.8117 104.969 16.8438 105.042 16.8615L105.211 16.9086C105.492 17.0019 105.786 17.0464 106.082 17.0393C106.361 17.0259 106.64 17.0508 106.913 17.113C107.047 17.1442 107.184 17.1557 107.322 17.1486C107.674 17.1095 108.014 17.0615 108.296 17.0179C108.467 16.9947 108.626 16.9183 108.752 16.7996C108.877 16.681 108.961 16.526 108.993 16.3566C109.04 16.1878 109.037 16.0094 108.987 15.8418C108.937 15.6741 108.841 15.5239 108.71 15.4082C108.512 15.227 108.279 15.0899 108.024 15.0058C107.77 14.9217 107.501 14.8925 107.234 14.9202H107.235ZM104.903 11.7655C104.907 12.0179 104.832 12.265 104.685 12.4704C104.599 12.6233 104.516 12.7753 104.437 12.9326C104.376 13.0566 104.311 13.1782 104.241 13.297C104.185 13.3895 104.117 13.473 104.037 13.5459L103.885 13.6713C103.828 13.7139 103.773 13.759 103.72 13.8064C103.643 13.8776 103.567 13.9502 103.493 14.0242C103.419 14.0979 103.28 14.2242 103.171 14.3157C102.94 14.5068 102.676 14.6535 102.392 14.7513C101.924 14.9397 101.432 15.0615 100.93 15.1122C100.557 15.1459 100.182 15.1566 99.8075 15.1424C99.5724 15.1158 99.3423 15.0559 99.124 14.9646C98.7635 14.8232 98.4107 14.663 98.0671 14.4846C97.9115 14.4007 97.7655 14.3003 97.6315 14.185C97.5618 14.1274 97.4951 14.0663 97.4315 14.0019C97.3533 13.9282 97.2751 13.8544 97.1924 13.785C97.0656 13.6685 96.9762 13.5169 96.9355 13.3495C96.892 13.2019 96.8529 13.049 96.8138 12.9139C96.7746 12.7797 96.7613 12.7006 96.7311 12.5966C96.5738 12.0224 96.5486 11.4201 96.6573 10.8348C96.6786 10.7299 96.6929 10.6259 96.7053 10.5255C96.7178 10.4259 96.732 10.3166 96.7533 10.217C96.8422 9.76105 96.9746 9.31571 97.1489 8.88549C97.2244 8.70682 97.3355 8.54505 97.4751 8.41082C97.9031 7.93414 98.4189 7.54424 98.9942 7.26238L99.0893 7.21438C99.3151 7.09171 99.5569 7.00105 99.8075 6.94505H99.916C100.085 6.91305 100.254 6.89527 100.425 6.89171C100.52 6.89082 100.616 6.9006 100.708 6.92282C101.073 7.0126 101.431 7.13527 101.775 7.28816L102.514 7.60638C102.755 7.72016 102.965 7.89171 103.123 8.10682C103.271 8.2846 103.424 8.45882 103.559 8.63305C103.693 8.80727 103.872 8.9806 104.019 9.16371V9.19038C104.256 9.4526 104.458 9.74505 104.62 10.0597C104.76 10.3495 104.835 10.6659 104.842 10.9868C104.842 11.1824 104.842 11.3779 104.868 11.5699C104.889 11.5788 104.898 11.657 104.904 11.7442V11.7655H104.903ZM123.496 15.0642C123.291 15.0642 123.06 15.0375 122.878 15.0339C122.695 15.0295 122.529 15.0339 122.355 15.0028H122.229V14.9202C122.24 14.8848 122.247 14.8485 122.251 14.8117V14.7379V14.3806V14.0108V13.5753C122.251 13.4455 122.251 13.1797 122.278 12.9797V12.6882C122.299 12.1966 122.299 11.7095 122.278 11.2437V10.8082C122.281 10.6064 122.274 10.4047 122.256 10.2037C122.246 10.0587 122.246 9.9132 122.256 9.76816V9.5726C122.282 9.01049 122.226 8.44753 122.09 7.90149C121.973 7.4717 121.815 7.05387 121.62 6.65349C121.519 6.43581 121.37 6.24377 121.184 6.09171L120.976 5.92638C120.529 5.52555 120.015 5.20607 119.457 4.98238L119.319 4.92549C119.185 4.87104 119.046 4.82735 118.905 4.79482C118.717 4.75777 118.526 4.73459 118.335 4.72549C118.21 4.71889 118.085 4.70583 117.961 4.68638C117.893 4.6798 117.825 4.6798 117.757 4.68638L116.782 4.71305H116.734C116.625 4.70363 116.516 4.71541 116.412 4.74771C116.27 4.78327 116.123 4.80282 115.976 4.80816C115.83 4.816 115.685 4.83352 115.541 4.8606L115.272 4.90416C115.098 4.92754 114.927 4.96228 114.759 5.00816C114.449 5.09527 114.145 5.19482 113.845 5.29527L113.409 5.43482C113.14 5.5326 112.885 5.66771 112.652 5.83482L112.561 5.89616C112.439 5.97017 112.342 6.07863 112.282 6.20787C112.221 6.3371 112.2 6.48133 112.222 6.62238C112.255 6.97527 112.486 7.27749 112.817 7.40194C112.936 7.44994 113.064 7.47571 113.192 7.47571C113.36 7.47038 113.529 7.43838 113.688 7.37971L113.836 7.32282C113.878 7.30332 113.922 7.28756 113.967 7.27571L114.271 7.19749C114.654 7.10594 115.046 7.00549 115.432 6.93616L115.646 6.88816C115.815 6.83749 115.992 6.81616 116.168 6.82327C116.453 6.85349 116.74 6.83216 117.016 6.76194C117.345 6.68282 117.688 6.68282 118.017 6.76194C118.662 6.87475 119.275 7.12881 119.81 7.50594C119.902 7.56177 119.979 7.64026 120.032 7.73392C120.085 7.82759 120.113 7.93332 120.114 8.04105V8.96816C120.11 8.99706 120.11 9.02636 120.114 9.05527L120.093 9.49082C119.9 9.43536 119.701 9.40723 119.501 9.40727C119.457 9.41155 119.414 9.41155 119.37 9.40727C118.884 9.3326 118.392 9.29794 117.9 9.30327H115.785C115.648 9.30416 115.51 9.32105 115.376 9.35127L115.037 9.43749C114.862 9.48748 114.685 9.52696 114.506 9.55571C114.157 9.61146 113.826 9.74848 113.54 9.95571C113.262 10.1424 112.978 10.3299 112.704 10.5255L112.64 10.5699C112.492 10.6604 112.359 10.7715 112.243 10.8997C112.021 11.1522 111.808 11.4179 111.625 11.6917C111.26 12.1746 111.067 12.7661 111.077 13.3717V14.329C111.086 14.6322 111.162 14.9299 111.304 15.1993C111.472 15.5077 111.672 15.7993 111.899 16.0695L111.995 16.1913C112.063 16.2766 112.137 16.3566 112.217 16.4304L112.261 16.4739C112.617 16.8002 113.04 17.0452 113.501 17.1922C113.831 17.3175 114.174 17.4064 114.523 17.457C114.824 17.4979 115.126 17.5228 115.428 17.5308H115.82C115.892 17.5317 115.964 17.523 116.033 17.505L116.364 17.4135L116.708 17.3184L117.578 17.0962H117.665C118.026 17.0215 118.376 16.9006 118.705 16.7353C118.88 16.6464 119.061 16.5744 119.248 16.5175L119.523 16.4215C119.615 16.3868 119.71 16.3522 119.806 16.3255L120.001 16.2562C119.997 16.4308 120.054 16.6015 120.162 16.7388C120.349 16.9522 120.635 17.0464 120.911 16.9877C121.542 16.9083 122.18 16.8994 122.813 16.961C122.942 16.9673 123.071 16.9673 123.2 16.961H123.422C123.751 16.9388 124.051 16.7717 124.244 16.5042C124.332 16.4011 124.382 16.2702 124.384 16.1344C124.394 15.8777 124.309 15.6264 124.144 15.4288C123.98 15.2312 123.749 15.1013 123.495 15.0642H123.496ZM115.467 15.2206H114.963C114.657 15.2117 114.358 15.1281 114.092 14.977C113.956 14.9103 113.833 14.8203 113.728 14.7113C113.508 14.4487 113.327 14.1556 113.192 13.841C113.166 13.7889 113.152 13.7316 113.152 13.6735C113.152 13.6154 113.166 13.558 113.192 13.5059C113.322 13.2064 113.471 12.8882 113.627 12.5708C113.663 12.5245 113.704 12.4821 113.749 12.4446C113.962 12.2615 114.184 12.0793 114.401 11.9006C114.48 11.8265 114.578 11.7755 114.684 11.753C114.867 11.7175 115.05 11.6748 115.228 11.6268C115.406 11.5788 115.459 11.5699 115.576 11.5486C116.005 11.4544 116.443 11.4153 116.881 11.4304C117.125 11.441 117.369 11.4215 117.608 11.3744C118.019 11.3186 118.436 11.3376 118.84 11.4304C119.152 11.4946 119.46 11.5777 119.762 11.6793L120.024 11.7575C120.05 12.1682 120.037 12.5806 119.984 12.9886C119.961 13.2108 119.976 13.4366 120.028 13.6544C120.015 13.6751 119.998 13.694 119.98 13.7104C119.775 13.8859 119.546 14.0325 119.301 14.1459C118.754 14.4215 118.186 14.6535 117.604 14.8419C117.326 14.9379 117.051 15.0419 116.773 15.1468C116.597 15.2153 116.408 15.2464 116.22 15.2384L115.52 15.2073H115.437L115.467 15.2206ZM78.6609 5.39127C78.5303 5.27406 78.3774 5.18437 78.2114 5.12756C78.0454 5.07075 77.8696 5.04797 77.6946 5.0606L77.164 5.08727L76.524 5.11749L76.2715 5.13882H75.0493C74.9034 5.14098 74.7575 5.12937 74.6137 5.10416C74.4543 5.08307 74.2924 5.09029 74.1355 5.12549C73.9538 5.16316 73.7675 5.17365 73.5826 5.1566C73.4008 5.14116 73.2177 5.15133 73.0386 5.18682C72.6297 5.26682 72.3284 5.61794 72.3124 6.03571C72.2914 6.23057 72.3395 6.42663 72.4483 6.58961C72.5572 6.75259 72.7199 6.87211 72.908 6.92727C73.1764 7.00371 73.452 7.04638 73.7311 7.05349C73.9702 7.05349 74.2093 7.08016 74.4529 7.0926H74.684L74.5924 7.30594C74.5124 7.52371 74.412 7.73349 74.292 7.9326C74.2253 8.03577 74.1755 8.14889 74.1444 8.26771C74.1035 8.40993 74.0484 8.54682 73.9791 8.6766C73.9257 8.77438 73.8795 8.8766 73.8395 8.9806C73.7871 9.10682 73.7222 9.22949 73.6564 9.35927C73.5409 9.56727 73.444 9.78594 73.3693 10.0126C73.2697 10.3388 73.1435 10.6606 73.0129 10.9957L72.8689 11.361L72.804 11.5442C72.7444 11.7193 72.6751 11.8908 72.5951 12.057C72.4676 12.2882 72.3682 12.5338 72.2991 12.7886C72.2799 12.8551 72.2567 12.9204 72.2298 12.9842L72.156 13.1584C72.0209 13.4757 71.8857 13.7895 71.7426 14.1024C71.6769 14.2499 71.6031 14.3939 71.5337 14.5379C71.4635 14.681 71.3986 14.8117 71.3382 14.9513L71.1942 14.6899C70.946 14.2685 70.7391 13.8241 70.5764 13.3628C70.5577 13.3006 70.5346 13.2384 70.5062 13.1797L70.3497 12.8624C70.2369 12.6357 70.132 12.4268 70.0413 12.2046L69.9622 12.0135C69.7818 11.6033 69.6236 11.1838 69.4884 10.7566C69.3017 10.1788 69.0671 9.61705 68.788 9.0766L68.6351 8.76371C68.5594 8.6034 68.4766 8.44651 68.3871 8.29349C68.3044 8.1537 68.2319 8.00814 68.1702 7.85794C68.1044 7.69794 67.996 7.47571 67.9124 7.28371C68.0324 7.27749 68.1515 7.27749 68.2698 7.28371C68.5835 7.29438 68.8973 7.27127 69.2057 7.21438L69.4493 7.17527C69.5293 7.16194 69.6093 7.13882 69.684 7.10594H69.7231C70.0875 6.95482 70.3453 6.62505 70.4066 6.23482C70.4312 6.1264 70.431 6.01383 70.4061 5.90549C70.3812 5.79715 70.3321 5.69582 70.2626 5.60905C70.1313 5.40669 69.9414 5.24914 69.7183 5.15736C69.4952 5.06558 69.2495 5.04392 69.0137 5.09527C68.9302 5.1006 68.8457 5.1006 68.7613 5.09527H68.4697L67.7738 5.13438H67.5737C67.4057 5.15482 67.236 5.15482 67.0689 5.13438C66.8022 5.08994 66.5311 5.06949 66.26 5.07394H64.9506C64.757 5.07935 64.5649 5.11135 64.38 5.16905C64.06 5.25794 63.8049 5.50149 63.7009 5.81794C63.6576 5.96283 63.6453 6.11523 63.665 6.26518C63.6846 6.41513 63.7356 6.55926 63.8146 6.68816C63.9657 6.91394 64.2093 7.06149 64.4804 7.08816C64.6244 7.10771 64.7693 7.11571 64.916 7.11482H64.9542C64.9909 7.1261 65.0288 7.13325 65.0671 7.13616H65.4457C65.6964 7.49527 65.9089 7.87838 66.0813 8.28016L66.9124 10.2295L67.348 11.2517C67.4129 11.4179 67.4778 11.5877 67.5391 11.753C67.5995 11.9184 67.652 12.0615 67.7133 12.2144C67.8733 12.6099 68.0351 13.0019 68.2049 13.393C68.3177 13.6544 68.4271 13.9157 68.5355 14.1806C68.7444 14.6944 68.9711 15.225 69.2226 15.7424L69.3142 15.9299C69.3693 16.0517 69.4297 16.1735 69.4973 16.2953C69.6813 16.6997 70.0751 16.9664 70.5195 16.9868C71.0564 16.9868 71.5915 16.9779 72.1249 16.961C72.298 16.9656 72.468 16.9138 72.6092 16.8135C72.7505 16.7131 72.8553 16.5696 72.908 16.4046C73.006 16.1358 73.1194 15.8729 73.2475 15.617C73.3 15.5033 73.3569 15.3993 73.4173 15.2899C73.4986 15.1493 73.5713 15.0038 73.6351 14.8544C73.7613 14.577 73.8831 14.2944 74.0004 14.0108C74.0573 13.8802 74.1097 13.7504 74.1657 13.6242L74.2102 13.5326C74.2644 13.4339 74.3071 13.3282 74.3355 13.2188C74.3871 13.0179 74.4511 12.8206 74.5266 12.6277C74.6431 12.3468 74.7311 12.0553 74.788 11.7566L74.8146 11.705L74.836 11.6606C75.0884 11.0917 75.3106 10.6384 75.532 10.2339C75.8484 9.67216 76.1284 9.09083 76.372 8.49349L76.4804 8.2286C76.6369 7.87305 76.7675 7.5086 76.8715 7.13616L76.8982 7.05349V7.02327L77.268 6.99216H77.5035L78.0991 6.94505H78.1817C78.2426 6.95237 78.304 6.95237 78.3649 6.94505C78.5156 6.92275 78.656 6.85497 78.7671 6.75077C78.8783 6.64657 78.9551 6.51092 78.9871 6.36194C79.0198 6.18575 79.007 6.00414 78.9499 5.83429C78.8928 5.66444 78.7933 5.51196 78.6609 5.39127ZM91.092 15.073H89.8911L89.2253 15.1166C88.9595 15.1166 88.6946 15.1513 88.4289 15.1602C88.164 15.169 87.9933 15.1602 87.772 15.1602H87.724L87.6973 14.7815C87.668 14.3904 87.6369 13.9806 87.6324 13.5886C87.6289 13.1975 87.6324 12.8366 87.6769 12.4402C87.6769 12.2624 87.6982 12.0882 87.7071 11.9139C87.716 11.7397 87.7284 11.5175 87.7417 11.3219C87.7941 10.6878 87.7941 10.0503 87.7417 9.41616V9.31571C87.7417 9.18149 87.7151 9.04194 87.7062 8.90683C87.7062 8.47127 87.676 8.0846 87.6724 7.6846C87.6724 7.50505 87.6858 7.32638 87.7115 7.14949C87.7551 6.89616 87.7551 6.6366 87.7115 6.38327C87.6747 6.24946 87.6747 6.10818 87.7115 5.97438C87.7731 5.8299 87.7757 5.66703 87.7187 5.52066C87.6618 5.37429 87.5497 5.25605 87.4066 5.19127C87.2917 5.12829 87.1634 5.09384 87.0324 5.09082H85.6537C85.5071 5.09082 85.3613 5.08016 85.2182 5.05616C85.1041 5.02848 84.9872 5.01387 84.8697 5.0126H83.3906C83.1651 5.00999 82.9415 5.05432 82.7339 5.14276C82.5264 5.23121 82.3396 5.36185 82.1853 5.52638C82.0888 5.61587 82.0151 5.72723 81.9706 5.8511C81.926 5.97497 81.9118 6.10773 81.9293 6.23821C81.9467 6.36869 81.9952 6.49309 82.0707 6.60093C82.1462 6.70877 82.2464 6.79691 82.3631 6.85794C82.7986 7.10505 83.3089 7.18682 83.7995 7.08905L83.9471 7.05794H85.4102C85.4102 7.16194 85.4324 7.27127 85.4404 7.37527C85.4857 7.74682 85.4991 8.12016 85.4795 8.49349C85.4722 8.57036 85.4722 8.64774 85.4795 8.7246L85.5151 9.02416C85.5151 9.19838 85.5497 9.3726 85.5586 9.55127C85.5764 9.98682 85.5613 10.4233 85.5106 10.8562C85.4662 11.265 85.4493 11.6784 85.436 12.0739V12.449C85.375 13.3283 85.375 14.2107 85.436 15.0899H85.2582C84.8849 15.137 84.5115 15.1646 84.1355 15.1726H83.8138C83.4863 15.1464 83.1572 15.1464 82.8298 15.1726H82.7471C82.5459 15.2105 82.3394 15.2105 82.1382 15.1726C82.0453 15.1504 81.9484 15.1504 81.8555 15.1726C81.5 15.2144 81.1737 15.3886 80.9417 15.6597C80.8414 15.7512 80.7726 15.8721 80.7451 16.0051C80.7176 16.1381 80.733 16.2764 80.7889 16.4002C80.9284 16.809 81.2715 17.1166 81.6946 17.209C82.0875 17.2846 82.4857 17.3273 82.8857 17.3353H90.3969C90.5977 17.3575 90.7995 17.369 91.0013 17.3708C91.3335 17.3664 91.665 17.3385 91.9933 17.2873C92.3053 17.2588 92.5906 17.1006 92.7809 16.8517C92.9586 16.6099 92.9586 16.281 92.7809 16.0384C92.6197 15.7342 92.3755 15.4821 92.0767 15.3112C91.7779 15.1403 91.4367 15.0577 91.0929 15.073H91.092ZM28.6351 28.6179C28.6351 28.5202 28.7151 28.4402 28.8129 28.4402H29.4351C29.4817 28.4421 29.5259 28.4614 29.5589 28.4943C29.592 28.5272 29.6116 28.5713 29.6137 28.6179V34.153H32.164C32.2617 34.153 32.3417 34.233 32.3417 34.3308V34.849C32.3417 34.8962 32.323 34.9414 32.2897 34.9748C32.2563 35.0081 32.2111 35.0268 32.164 35.0268H28.8129C28.7657 35.0268 28.7205 35.0081 28.6871 34.9748C28.6538 34.9414 28.6351 34.8962 28.6351 34.849V28.6179ZM34.6697 28.6179C34.6711 28.5711 34.6904 28.5265 34.7236 28.4934C34.7569 28.4603 34.8015 28.4413 34.8484 28.4402H35.4706C35.5171 28.4423 35.5611 28.4617 35.5939 28.4946C35.6268 28.5275 35.6462 28.5715 35.6484 28.6179V34.849C35.6462 34.8955 35.6268 34.9395 35.5939 34.9724C35.5611 35.0052 35.5171 35.0247 35.4706 35.0268H34.8484C34.8017 35.0255 34.7572 35.0063 34.7242 34.9733C34.6911 34.9402 34.672 34.8958 34.6706 34.849V28.6179H34.6697ZM37.868 28.6837C37.8534 28.6573 37.8463 28.6275 37.8475 28.5974C37.8487 28.5673 37.858 28.5381 37.8746 28.5129C37.8912 28.4877 37.9143 28.4676 37.9415 28.4546C37.9687 28.4416 37.9989 28.4363 38.0289 28.4393H38.6991C38.7328 28.441 38.7654 28.4516 38.7937 28.47C38.8219 28.4885 38.8448 28.514 38.86 28.5442L40.9266 33.1957H40.9746L43.0546 28.5397C43.0687 28.5088 43.0914 28.4826 43.1199 28.4642C43.1484 28.4458 43.1816 28.4359 43.2155 28.4357H43.8857C43.9156 28.4329 43.9457 28.4382 43.9727 28.4512C43.9998 28.4641 44.0228 28.4842 44.0393 28.5092C44.0559 28.5342 44.0653 28.5632 44.0666 28.5932C44.0678 28.6232 44.061 28.6529 44.0466 28.6793L41.1533 35.0188C41.1266 35.081 41.0644 35.1219 40.9969 35.1228H40.9009C40.8674 35.1207 40.835 35.1101 40.8068 35.0919C40.7786 35.0737 40.7556 35.0485 40.74 35.0188L37.8689 28.6837H37.868ZM46.244 28.6179C46.244 28.5202 46.324 28.4402 46.4226 28.4402H50.1915C50.2893 28.4402 50.3693 28.5202 50.3693 28.6179V29.1442C50.3694 29.1676 50.3649 29.1908 50.356 29.2125C50.3471 29.2341 50.3341 29.2538 50.3175 29.2704C50.301 29.287 50.2814 29.3002 50.2598 29.3092C50.2381 29.3182 50.2149 29.3228 50.1915 29.3228H47.2137V31.2419H49.7249C49.7722 31.244 49.817 31.2639 49.8502 31.2977C49.8834 31.3316 49.9024 31.3768 49.9035 31.4242V31.9513C49.9035 31.9984 49.8848 32.0436 49.8515 32.077C49.8181 32.1103 49.7729 32.129 49.7257 32.129H47.2102V34.153H50.1862C50.2849 34.153 50.364 34.233 50.364 34.3308V34.849C50.364 34.8962 50.3452 34.9414 50.3119 34.9748C50.2786 35.0081 50.2333 35.0268 50.1862 35.0268H46.4182C46.371 35.0268 46.3258 35.0081 46.2925 34.9748C46.2591 34.9414 46.2404 34.8962 46.2404 34.849L46.244 28.6179ZM70.8893 28.6179C70.8893 28.5202 70.9693 28.4402 71.0671 28.4402H74.8315C74.9293 28.4402 75.0093 28.5202 75.0093 28.6179V29.1442C75.0094 29.1676 75.0049 29.1908 74.996 29.2125C74.9871 29.2341 74.9741 29.2538 74.9576 29.2704C74.941 29.287 74.9214 29.3002 74.8998 29.3092C74.8781 29.3182 74.8549 29.3228 74.8315 29.3228H71.8555V31.4988H74.3711C74.468 31.5006 74.5462 31.5788 74.5489 31.6766V32.1948C74.5475 32.2416 74.5284 32.286 74.4953 32.319C74.4622 32.3521 74.4178 32.3713 74.3711 32.3726H71.8555V34.849C71.8542 34.8958 71.835 34.9402 71.802 34.9733C71.7689 35.0063 71.7245 35.0255 71.6777 35.0268H71.068C71.0208 35.0268 70.9756 35.0081 70.9423 34.9748C70.9089 34.9414 70.8902 34.8962 70.8902 34.849V28.6179H70.8893ZM77.4511 28.6179C77.4511 28.5202 77.5311 28.4402 77.6289 28.4402H80.1835C80.4507 28.4373 80.7157 28.4872 80.9636 28.587C81.2114 28.6867 81.4372 28.8344 81.6279 29.0215C81.8186 29.2085 81.9706 29.4314 82.0751 29.6773C82.1796 29.9232 82.2345 30.1872 82.2369 30.4544C82.2249 30.8761 82.0855 31.2843 81.837 31.6253C81.5885 31.9663 81.2426 32.224 80.8449 32.3646L82.1506 34.7575C82.1675 34.7851 82.1765 34.8168 82.1767 34.8492C82.1769 34.8815 82.1682 34.9133 82.1517 34.9411C82.1351 34.9689 82.1113 34.9917 82.0828 35.0069C82.0542 35.0222 82.0221 35.0294 81.9897 35.0277H81.2715C81.2302 35.0307 81.1891 35.0206 81.1539 34.9987C81.1188 34.9768 81.0915 34.9443 81.076 34.9059L79.8404 32.4473H78.4431V34.849C78.4408 34.8964 78.4207 34.9411 78.3867 34.9741C78.3526 35.0071 78.3074 35.026 78.26 35.0268H77.6511C77.6277 35.0268 77.6046 35.0222 77.583 35.0133C77.5615 35.0044 77.5419 34.9913 77.5254 34.9748C77.5089 34.9582 77.4958 34.9386 77.4868 34.9171C77.4779 34.8955 77.4733 34.8724 77.4733 34.849L77.4511 28.6179ZM80.1142 31.6375C80.42 31.6317 80.7115 31.5064 80.9261 31.2884C81.1407 31.0705 81.2615 30.7772 81.2626 30.4713C81.2548 30.1719 81.1303 29.8875 80.9158 29.6787C80.7012 29.4698 80.4136 29.3529 80.1142 29.353H78.4431V31.6375H80.1142ZM84.9355 28.6179C84.9355 28.5202 85.0155 28.4402 85.1133 28.4402H88.8857C88.9844 28.4402 89.0644 28.5202 89.0644 28.6179V29.1442C89.0645 29.1676 89.06 29.1908 89.0511 29.2125C89.0423 29.2341 89.0292 29.2538 89.0127 29.2704C88.9961 29.287 88.9765 29.3002 88.9549 29.3092C88.9333 29.3182 88.9101 29.3228 88.8866 29.3228H85.9098V31.2419H88.4253C88.4725 31.2442 88.5171 31.2642 88.5501 31.298C88.5831 31.3319 88.602 31.3769 88.6031 31.4242V31.9513C88.6031 31.9746 88.5985 31.9977 88.5895 32.0193C88.5806 32.0409 88.5675 32.0605 88.551 32.077C88.5345 32.0935 88.5149 32.1066 88.4933 32.1155C88.4718 32.1244 88.4486 32.129 88.4253 32.129H85.9098V34.153H88.8857C88.9844 34.153 89.0644 34.233 89.0644 34.3308V34.849C89.0644 34.8962 89.0457 34.9414 89.0123 34.9748C88.979 35.0081 88.9338 35.0268 88.8866 35.0268H85.1177C85.0706 35.0268 85.0254 35.0081 84.992 34.9748C84.9587 34.9414 84.94 34.8962 84.94 34.849L84.9355 28.6179ZM91.6751 28.6179C91.6751 28.5941 91.6798 28.5706 91.6891 28.5486C91.6984 28.5267 91.7119 28.5069 91.729 28.4903C91.7461 28.4737 91.7663 28.4607 91.7885 28.4521C91.8107 28.4435 91.8344 28.4394 91.8582 28.4402H95.6217C95.7195 28.4402 95.7995 28.5202 95.7995 28.6179V29.1442C95.7996 29.1676 95.7951 29.1908 95.7862 29.2125C95.7774 29.2341 95.7643 29.2538 95.7478 29.2704C95.7312 29.287 95.7116 29.3002 95.69 29.3092C95.6684 29.3182 95.6452 29.3228 95.6217 29.3228H92.6457V31.2419H95.1604C95.2076 31.2442 95.2522 31.2642 95.2852 31.298C95.3182 31.3319 95.3371 31.3769 95.3382 31.4242V31.9513C95.3382 31.9984 95.3195 32.0436 95.2861 32.077C95.2528 32.1103 95.2076 32.129 95.1604 32.129H92.6449V34.153H95.6217C95.7195 34.153 95.7995 34.233 95.7995 34.3308V34.849C95.7995 34.8962 95.7808 34.9414 95.7475 34.9748C95.7141 35.0081 95.6689 35.0268 95.6217 35.0268H91.8582C91.8344 35.0275 91.8107 35.0235 91.7885 35.0149C91.7663 35.0062 91.7461 34.9933 91.729 34.9767C91.7119 34.9601 91.6984 34.9403 91.6891 34.9183C91.6798 34.8964 91.6751 34.8728 91.6751 34.849V28.6179ZM63.236 29.0446C63.4795 28.7699 63.7533 28.5184 64.0146 28.2615C64.0582 28.2224 64.1142 28.2002 64.1577 28.1655C64.428 27.9699 64.6893 27.7655 64.9631 27.5788C65.076 27.4997 65.22 27.4695 65.3284 27.3913C65.4831 27.2757 65.6671 27.2046 65.8591 27.1868C66.0226 27.169 66.1746 27.0979 66.2946 26.9859C66.2272 26.9024 66.1415 26.8354 66.0441 26.7903C65.9467 26.7451 65.8402 26.7229 65.7329 26.7255C65.3595 26.7145 64.9863 26.754 64.6235 26.8428C64.2306 26.9449 63.8611 27.1221 63.5355 27.3646C63.4315 27.4473 63.3186 27.5219 63.2093 27.6002L63.1702 27.5735C63.244 27.4473 63.3097 27.321 63.3924 27.2037C63.4751 27.0864 63.636 26.8775 63.7577 26.7122C63.8795 26.5468 63.9097 26.4864 63.9977 26.3815C64.084 26.2775 64.2111 26.1415 64.3231 26.0295L64.8155 25.5459L65.1853 25.1726C65.2769 25.0633 65.3773 24.961 65.4849 24.8677C65.612 24.7744 65.7489 24.697 65.8937 24.6366C65.9146 24.6289 65.9337 24.6172 65.9499 24.6019C65.9661 24.5867 65.979 24.5684 65.988 24.5481C65.997 24.5278 66.0017 24.5059 66.002 24.4836C66.0023 24.4614 65.9982 24.4394 65.9897 24.4188C65.9897 24.3797 65.8902 24.3628 65.8333 24.345C65.7874 24.3324 65.7408 24.3223 65.6937 24.3148C65.6264 24.2917 65.556 24.2786 65.4849 24.2757C65.3373 24.3006 65.1915 24.3379 65.0493 24.3842C64.8324 24.4499 64.6146 24.5406 64.3933 24.5886C64.0808 24.675 63.797 24.8431 63.5711 25.0757C63.3631 25.2775 63.1702 25.4926 62.9924 25.7202C62.8182 25.9335 62.6653 26.1557 62.5044 26.3904L62.3444 26.6686H62.3044C62.3569 26.4428 62.4093 26.233 62.4653 25.9859C62.5044 25.8242 62.5569 25.6677 62.6004 25.5068C62.644 25.3459 62.7044 25.1415 62.7524 24.9584C62.8306 24.6588 62.9009 24.3628 62.988 24.0882C63.0573 23.857 63.1391 23.6526 63.2191 23.401C63.2617 23.2793 63.3097 23.161 63.3577 23.0402C63.4057 22.9184 63.492 22.7219 63.5489 22.5655C63.5662 22.509 63.5752 22.4503 63.5755 22.3913C63.4795 22.3913 63.4226 22.2046 63.3053 22.2917C63.1288 22.414 62.9705 22.5606 62.8351 22.7273C62.6703 22.957 62.5246 23.1999 62.3995 23.4535C62.2831 23.6757 62.1951 23.889 62.1 24.1406C62.0431 24.2757 61.996 24.4144 61.9435 24.5495C61.852 24.7984 61.748 25.041 61.6609 25.2935C61.5737 25.5459 61.5213 25.7682 61.4475 26.0028C61.4084 26.1246 61.356 26.2375 61.3124 26.3557H61.2555C61.2555 26.2855 61.2297 26.2206 61.2209 26.1468C61.2252 26.0873 61.2252 26.0276 61.2209 25.9682C61.1382 25.6766 61.0609 25.385 60.956 25.0979C60.8507 24.8087 60.73 24.5253 60.5942 24.249C60.5204 24.0926 60.412 23.9539 60.3249 23.8135C60.2877 23.716 60.2425 23.6217 60.1897 23.5317C60.022 23.3346 59.8449 23.1456 59.6591 22.9655C59.563 22.8724 59.4565 22.7907 59.3418 22.7219C59.2413 22.657 59.1284 22.6179 59.0324 22.5477C58.9547 22.5039 58.867 22.4808 58.7777 22.4808C58.6885 22.4808 58.6008 22.5039 58.5231 22.5477C58.5075 22.5684 58.4971 22.5924 58.4929 22.6179C58.532 22.6446 58.5933 22.6659 58.5969 22.6917C58.6297 22.8606 58.7169 23.0126 58.8457 23.1273C59.06 23.3815 59.22 23.6784 59.3151 23.9975C59.3453 24.0882 59.3151 24.1975 59.3506 24.2926C59.4715 24.7717 59.6022 25.2419 59.7151 25.7157C59.8289 26.1904 59.9106 26.5868 60.0031 26.9904C60.0937 27.3957 60.1542 27.7344 60.2289 28.1086C60.2644 28.2615 60.2902 28.4179 60.3204 28.5708C60.2629 28.4656 60.2133 28.3563 60.172 28.2437C60.116 28.1175 60.0333 28.0037 59.9809 27.8784C59.9284 27.7522 59.868 27.5566 59.7942 27.3993C59.7293 27.2757 59.652 27.1593 59.5631 27.0517C59.4369 26.8819 59.2982 26.7255 59.1675 26.5602C58.9975 26.3475 58.7639 26.1949 58.5009 26.1246C58.303 26.0632 58.0987 26.0253 57.892 26.0117C57.6695 25.9878 57.4451 25.9878 57.2226 26.0117C57.0591 26.0562 56.9 26.1166 56.748 26.1895C56.8004 26.3424 56.9311 26.3077 57.0306 26.3335C57.1435 26.3468 57.2529 26.3806 57.3524 26.4339C57.5702 26.625 57.788 26.8384 57.9746 27.0428C58.0582 27.1139 58.1346 27.1922 58.2013 27.2775C58.3053 27.4428 58.388 27.617 58.4884 27.7868C58.5889 27.9566 58.6884 28.1308 58.8022 28.2962C58.8413 28.361 58.924 28.4002 58.9622 28.465C59.0715 28.6526 59.1666 28.849 59.2671 29.0446L59.4244 29.3406C59.3276 29.3343 59.2314 29.3212 59.1364 29.3015C58.8707 29.1958 58.5785 29.1759 58.3009 29.2446C58.1275 29.3059 57.932 29.3139 57.7657 29.3886C57.3936 29.5768 57.0519 29.8201 56.7524 30.1104C56.604 30.2437 56.4671 30.3895 56.3435 30.5459C56.2333 30.6606 56.1382 30.7895 56.0609 30.9282C55.9142 31.2099 55.8555 31.5273 55.8911 31.8419C55.9199 31.8465 55.9493 31.8465 55.9782 31.8419L56.6831 31.433C56.7871 31.3726 56.8786 31.2855 56.9871 31.233C57.0937 31.1877 57.2031 31.1486 57.3133 31.1157C57.4093 31.0935 57.5017 31.0579 57.588 31.0108C57.7952 30.8527 58.0366 30.7455 58.2929 30.6979C58.5489 30.6446 58.8102 30.6162 59.0715 30.6108L58.4013 31.1326C57.9711 31.4899 57.6102 31.9237 57.34 32.4126C57.0609 32.9808 56.935 33.6119 56.9746 34.2437C56.9746 34.5877 57.0351 34.9317 57.0609 35.2713C57.1086 35.772 57.229 36.263 57.4182 36.729C57.6457 37.3116 58.006 37.833 58.4706 38.2517C58.9062 38.6517 59.4182 38.9584 59.9764 39.1522C60.8253 39.4882 61.772 39.4775 62.6138 39.1219C63.0649 38.9408 63.4652 38.6525 63.78 38.2819C64.0315 37.9859 64.1889 37.6206 64.4111 37.3033C64.58 37.0295 64.7169 36.7379 64.82 36.4322C64.996 36.0464 65.0893 35.6268 65.0937 35.201V34.9619C65.1295 34.7075 65.1057 34.4483 65.0244 34.2046C65.0591 34.0446 65.0591 33.8784 65.0244 33.7175C64.9081 33.1945 64.6907 32.6993 64.3844 32.2597C63.969 31.6845 63.4402 31.2005 62.8306 30.8375H62.7355C62.8215 30.7536 62.8803 30.6458 62.9044 30.5282C62.9044 30.5282 62.9666 30.4846 63.0004 30.4846C63.2777 30.4473 63.5595 30.4882 63.8146 30.6019C64.0253 30.6997 64.2173 30.833 64.3835 30.993C64.4582 31.0704 64.5257 31.153 64.5844 31.2419C64.6973 31.3806 64.8013 31.5264 64.8982 31.6775C64.9889 31.8419 65.0546 32.0206 65.1329 32.1948L65.2066 32.3513C65.2458 32.417 65.3071 32.4339 65.3418 32.3513C65.4022 32.2499 65.4511 32.1424 65.4849 32.0295C65.5293 31.8855 65.5382 31.729 65.5942 31.5939C65.7009 31.3619 65.74 31.1042 65.7071 30.8499C65.7071 30.8019 65.7426 30.7326 65.7071 30.6979C65.5675 30.5024 65.5417 30.2624 65.3675 30.0624C65.1878 29.8778 64.9863 29.7157 64.7675 29.5797C64.5628 29.4634 64.3272 29.4131 64.0929 29.4357C63.8373 29.4674 63.5853 29.5228 63.34 29.601C63.1969 29.6402 63.0617 29.7059 62.9044 29.7708C62.9033 29.7149 62.9108 29.6591 62.9266 29.6055C63.0093 29.4082 63.1133 29.2197 63.236 29.0446ZM59.0324 36.0713C59.0357 36.0531 59.0439 36.0362 59.0561 36.0224C59.0683 36.0086 59.0841 35.9985 59.1017 35.993C59.1121 35.9757 59.1276 35.962 59.1462 35.9539H59.1889C59.2555 35.9322 59.3175 35.8985 59.372 35.8544C59.6369 35.6188 59.9071 35.3842 60.1809 35.1575C60.2009 35.1351 60.2254 35.1172 60.2528 35.1049C60.2802 35.0926 60.3099 35.0863 60.34 35.0863C60.37 35.0863 60.3997 35.0926 60.4271 35.1049C60.4546 35.1172 60.4791 35.1351 60.4991 35.1575C60.548 35.2108 60.6111 35.249 60.6813 35.2668C60.948 35.3477 61.2057 35.4588 61.4475 35.5975C61.6653 35.689 61.8431 35.8668 62.0609 35.9584C61.74 36.4499 61.2875 36.8419 60.7551 37.0899C60.1239 36.8574 59.5403 36.5123 59.0324 36.0713ZM61.9035 35.0224C61.7905 34.9436 61.664 34.8863 61.5302 34.8535C61.3037 34.8027 61.0894 34.7082 60.8991 34.5753C60.8809 34.5644 60.8657 34.549 60.855 34.5307C60.8442 34.5124 60.8383 34.4916 60.8377 34.4704C61.1222 34.0766 61.4289 33.6988 61.756 33.3388C62.4093 33.6722 63.116 33.8873 63.8449 33.9744C63.5366 34.488 63.1554 34.9542 62.7133 35.3584C62.4264 35.2986 62.1534 35.1849 61.9089 35.0233H61.9044L61.9035 35.0224ZM61.2084 33.6268C61.0555 33.8179 60.8991 34.0046 60.7729 34.2046C60.6819 34.3284 60.5515 34.4174 60.4031 34.457C60.1249 34.1699 59.676 34.2437 59.3329 34.0215C59.1781 33.9353 59.0489 33.8095 58.9586 33.657C59.3453 33.2215 59.6724 32.7166 60.1071 32.2819C60.6075 32.5513 61.0689 32.8597 61.5471 33.1522C61.4617 33.3299 61.3471 33.4917 61.2084 33.6304V33.6259V33.6268ZM59.7329 31.1379C59.836 31.033 59.9586 30.9504 60.0937 30.8935C60.1551 30.9246 60.2155 30.9548 60.2724 30.9895C60.4413 30.9984 60.6084 31.0233 60.7729 31.0633C60.604 31.2588 60.4377 31.4455 60.2724 31.6419C60.0616 31.5102 59.8783 31.3387 59.7329 31.137V31.1379ZM59.1195 31.633C59.4546 31.6944 59.62 31.9682 59.9026 32.1513C59.5204 32.5424 59.2537 32.9913 58.8671 33.3388C58.6203 33.2191 58.4254 33.0137 58.3186 32.761C58.6582 32.4473 58.7364 31.9424 59.1275 31.633H59.1186H59.1195ZM58.2751 35.4624L58.2449 35.4019C58.2221 35.3555 58.2031 35.3074 58.188 35.2579V35.2144C58.1689 35.1659 58.1587 35.1144 58.1577 35.0624C58.1577 34.8046 58.18 34.5486 58.1577 34.2917C58.2929 34.2046 58.4066 34.1353 58.5062 34.0659C58.796 34.1699 59.0689 34.3166 59.3151 34.5015C59.3663 34.5434 59.4256 34.5743 59.4893 34.5922C59.7204 34.5922 59.8377 34.8099 60.0502 34.9184C59.7551 35.3539 59.2804 35.4802 58.9017 35.7895C58.8667 35.8211 58.8225 35.8407 58.7755 35.8455C58.6884 35.937 58.5533 35.8455 58.34 35.5317C58.3138 35.5159 58.2939 35.4913 58.284 35.4624H58.2751ZM58.3453 36.5717C58.4582 36.3939 58.5231 36.3806 58.7097 36.5113C59.0777 36.7673 59.4635 36.9975 59.8635 37.1984C60.0217 37.2677 60.1746 37.3495 60.3204 37.4419C59.9749 37.5978 59.6642 37.8215 59.4066 38.0997C59.0191 37.9557 58.6191 37.3637 58.3533 36.5717H58.3444H58.3453ZM59.6502 38.2473L60.6333 37.6028C61.3257 37.873 61.9391 38.3122 62.7177 38.4206C62.1 39.1477 60.3773 38.8517 59.676 38.2473H59.6502ZM63.236 37.8944C63.2236 37.9124 63.2086 37.9286 63.1915 37.9424C63.1508 37.9818 63.1075 38.0183 63.0617 38.0517C63.0216 38.0536 62.9815 38.0463 62.9446 38.0305C62.9076 38.0146 62.8747 37.9906 62.8484 37.9602C62.692 37.9299 62.5435 37.8686 62.3871 37.8384C62.3567 37.8346 62.328 37.8223 62.3044 37.8028C62.2146 37.7938 62.1274 37.7676 62.0475 37.7255C61.8386 37.6073 61.5862 37.5557 61.3737 37.4375C61.2994 37.4098 61.2333 37.3636 61.1818 37.3033C61.1847 37.2763 61.1952 37.2507 61.212 37.2295C61.2176 37.2131 61.2286 37.199 61.2431 37.1895L61.3382 37.1113C61.6502 36.729 62.0049 36.385 62.396 36.0846L63.8715 36.5202C63.8252 37.0329 63.6108 37.516 63.2617 37.8944H63.2351H63.236ZM64.0626 34.2526C64.1871 34.745 64.1871 35.2615 64.0626 35.7548C63.7071 35.7548 63.3569 35.6704 63.0404 35.5104C63.322 35.0403 63.674 34.6161 64.084 34.2526H64.0626ZM63.3622 32.0073C63.4386 32.241 63.5346 32.4686 63.6493 32.6864C63.7231 32.8864 63.7711 33.0908 63.836 33.2953C63.8392 33.3115 63.8389 33.3282 63.835 33.3442C63.8311 33.3603 63.8237 33.3753 63.8133 33.3882C63.803 33.4011 63.7899 33.4115 63.7751 33.4188C63.7603 33.4261 63.744 33.4301 63.7275 33.4304C63.3941 33.3011 63.0526 33.1936 62.7053 33.1086C62.5871 33.0562 62.4609 33.0126 62.3391 32.9602C62.3039 32.9442 62.2724 32.9214 62.2462 32.893C62.2201 32.8646 62.2 32.8312 62.1871 32.7948C62.4351 32.4037 62.7266 32.0419 63.0573 31.7157C63.1334 31.7305 63.2041 31.7653 63.2622 31.8166C63.3204 31.8678 63.3638 31.9336 63.388 32.0073H63.3613H63.3622ZM62.8395 31.5424C62.5062 31.9015 62.1969 32.2819 61.9133 32.6819C61.4175 32.4235 60.9391 32.1328 60.4813 31.8117C60.6031 31.4944 60.8769 31.3459 61.0253 31.0935C61.1729 30.8419 62.0351 30.9939 62.2173 31.0677C62.4422 31.2135 62.6591 31.3717 62.8662 31.5424H62.8395Z" fill="#1A1E22"/>
</g>
<defs>
<clipPath id="clip0">
<rect width="124.444" height="40" fill="white" transform="translate(0.333984)"/>
</clipPath>
</defs>
</svg>
