<svg width="187" height="22" viewBox="0 0 187 22" fill="none" xmlns="http://www.w3.org/2000/svg">
<path d="M0.0878906 1.23047H3.64955V16.3252C3.64955 17.2016 3.84173 18.1062 4.8823 18.1062C5.86953 18.1062 6.19732 17.2565 6.19732 16.3252V1.23047H9.21106V15.8592C9.21106 19.695 7.51201 21.1193 4.66345 21.1193C1.92384 21.1193 0.0878906 19.695 0.0878906 15.8592V1.23047Z" fill="#1A1E22"/>
<path d="M17.1359 9.50331H17.8477C19.1624 9.50331 19.6554 8.18861 19.6554 6.79133C19.6554 4.6819 18.8886 4.07967 17.6838 4.07967H17.1359V9.50331ZM13.5742 1.23047H17.5736C20.9717 1.23047 23.217 2.65475 23.217 6.76434C23.217 8.40746 22.7241 10.5992 21.1352 11.5308L23.2453 20.7356H19.6554L17.9846 12.3525H17.1359V20.7356H13.5742V1.23047Z" fill="#1A1E22"/>
<path d="M30.257 17.8864C32.3937 17.8864 32.7228 17.037 32.7228 15.0099C32.7228 13.2295 32.2835 12.2156 30.257 12.2429V17.8864ZM30.257 9.22951C32.038 9.22951 32.5023 8.40746 32.5023 6.65411C32.5023 4.43574 32.038 4.05203 30.257 4.07967V9.22951ZM26.6953 1.23047H31.079C33.2707 1.23047 35.9004 2.4359 35.9004 6.16146C35.9004 8.35315 34.9145 10.0512 32.7228 10.5172V10.5718C35.1603 11.1471 36.2828 12.8455 36.2828 15.3113C36.2828 18.873 33.8723 20.7356 31.2426 20.7356H26.6953V1.23047Z" fill="#1A1E22"/>
<path d="M43.7382 4.24357H43.6832L42.5604 13.5579H44.7791L43.7382 4.24357ZM41.4645 1.23047H46.615L49.0256 20.7356H45.6008L45.0812 16.4071H42.2046L41.7117 20.7356H38.7246L41.4645 1.23047Z" fill="#1A1E22"/>
<path d="M52.5762 1.23047H56.0559L59.3155 11.5308H59.3704V1.23047H62.219V20.7356H59.4524L55.6449 8.92871H55.5899V20.7356H52.5762V1.23047Z" fill="#1A1E22"/>
<path d="M76.8771 13.0569C76.8771 17.2758 77.37 18.1255 78.1918 18.1255C79.0138 18.1255 79.5068 17.2758 79.5068 13.0569V8.948C79.5068 4.72883 79.0138 3.87946 78.1918 3.87946C77.37 3.87946 76.8771 4.72883 76.8771 8.948V13.0569ZM78.1918 0.865723C81.3427 0.865723 83.3975 3.3039 83.3975 11.0021C83.3975 18.7004 81.3427 21.1386 78.1918 21.1386C75.0411 21.1386 72.9863 18.7004 72.9863 11.0021C72.9863 3.3039 75.0411 0.865723 78.1918 0.865723Z" fill="#1A1E22"/>
<path d="M87.2051 1.23047H90.7667V16.3252C90.7667 17.2016 90.9589 18.1062 91.9995 18.1062C92.9854 18.1062 93.3145 17.2565 93.3145 16.3252V1.23047H96.3282V15.8592C96.3282 19.695 94.6292 21.1193 91.7806 21.1193C89.041 21.1193 87.2051 19.695 87.2051 15.8592V1.23047Z" fill="#1A1E22"/>
<path d="M102.3 4.24357H99.2324V1.23047H108.93V4.24357H105.861V20.7356H102.3V4.24357Z" fill="#1A1E22"/>
<path d="M111.623 1.23047H119.595V4.24357H115.185V9.449H118.444V12.6266H115.185V20.7356H111.623V1.23047Z" fill="#1A1E22"/>
<path d="M126.487 1.23047H122.926V20.7356H126.487V1.23047Z" fill="#1A1E22"/>
<path d="M132.187 4.24357H129.119V1.23047H138.817V4.24357H135.748V20.7356H132.187V4.24357Z" fill="#1A1E22"/>
<path d="M143.489 4.24357H140.422V1.23047H150.12V4.24357H147.051V20.7356H143.489V4.24357Z" fill="#1A1E22"/>
<path d="M153.18 1.23047H161.234V4.24357H156.741V9.22951H160.056V12.4078H156.741V17.7218H161.426V20.7356H153.18V1.23047Z" fill="#1A1E22"/>
<path d="M168.405 9.50331H169.119C170.434 9.50331 170.926 8.18861 170.926 6.79133C170.926 4.6819 170.159 4.07967 168.953 4.07967H168.405V9.50331ZM164.844 1.23047H168.845C172.241 1.23047 174.488 2.65475 174.488 6.76434C174.488 8.40746 173.995 10.5992 172.405 11.5308L174.515 20.7356H170.926L169.256 12.3525H168.405V20.7356H164.844V1.23047Z" fill="#1A1E22"/>
<path d="M180.253 15.1117C180.253 16.2076 180.253 18.1255 181.788 18.1255C182.966 18.1255 183.377 17.0296 183.377 16.2352C183.377 12.7555 176.912 11.9611 176.912 6.18074C176.912 3.24959 178.501 0.865723 181.514 0.865723C184.719 0.865723 185.952 3.3039 186.035 6.81061H182.856C182.856 5.71541 182.856 3.87946 181.432 3.87946C180.582 3.87946 180.089 4.59192 180.089 5.66046C180.089 8.97467 186.555 10.0982 186.555 15.7692C186.555 18.7553 184.856 21.1386 181.652 21.1386C177.843 21.1386 177.076 17.7964 177.076 15.1117H180.253Z" fill="#1A1E22"/>
</svg>
