<svg width="151" height="40" viewBox="0 0 151 40" fill="none" xmlns="http://www.w3.org/2000/svg">
<path d="M145.581 20.0331C144.816 17.4808 139.087 18.6813 140.354 21.7725C141.299 24.1075 146.857 25.4687 149.495 29.3351C153.598 35.4135 144.504 42.182 137.631 38.9395C132.782 36.6613 132.763 33.1164 133.084 31.6606C133.547 29.5052 135.92 29.4674 136.251 30.6113C136.695 32.7004 135.722 32.5964 135.788 33.4472C136.166 36.8976 141.8 38.3723 144.759 35.3379C148.824 31.2163 145.26 28.5505 144.551 28.04C142.66 26.6693 139.994 26.329 138.331 24.0413C134.738 19.1351 140.316 14.8811 144.4 16.1101C146.29 16.6773 147.765 18.0007 147.406 19.7968C147.103 21.281 145.922 21.1486 145.581 20.0237V20.0331ZM37.4934 35.1488C36.671 31.9536 37.1815 25.3647 37.6825 21.5078C38.6278 14.5597 40.5846 10.7123 40.5941 6.4867C40.5941 4.52044 39.9796 0.44611 35.6784 0.275953C25.0625 -0.0832687 21.1488 25.7334 20.6195 29.3823C20.402 27.7091 20.5249 18.1803 19.7403 11.2322C18.6154 0.966036 16.3939 0.379938 14.2007 0.20978C6.26006 -0.376318 5.69287 14.9473 5.79685 29.562C5.79685 26.5747 6.16553 20.4869 3.35793 17.3673C1.96831 15.8265 -0.177566 15.9777 1.24987 18.0291C1.41057 18.2465 1.58073 18.7286 1.79815 19.05C4.54903 23.2 3.98184 39.7809 6.77999 39.6485C7.65913 39.6485 8.98258 39.2515 8.86914 35.5269C8.53828 24.2965 9.38907 4.18958 13.2176 4.17067C17.273 4.17067 16.375 24.1453 17.5566 31.9253C18.2184 35.8672 22.2832 36.1981 23.5972 30.5924C25.2893 23.1054 25.3744 18.3032 29.0801 10.476C34.0052 0.0774358 38.0701 3.50895 36.3212 10.7312C35.3759 14.4368 32.4171 23.3701 33.9201 33.6363C34.355 36.6235 36.2834 40.4048 37.7014 39.5918C38.5238 39.1286 38.1079 37.7012 37.4651 35.1961L37.4934 35.1488ZM43.638 19.4281C42.6076 20.2789 39.2328 27.3405 40.6981 34.5532C42.116 40.556 46.2849 42.0591 50.917 36.5668C53.4882 42.182 62.5444 39.6107 67.3088 32.7099C67.3718 34.0962 67.5842 35.4717 67.9422 36.8126C68.3865 38.8261 70.5796 39.6485 71.1468 37.8997C71.6289 36.425 73.3778 28.9286 77.66 24.495C78.7755 23.3418 82.5663 21.7914 81.5453 25.9036C81.2995 26.9056 79.5223 33.0124 79.5791 35.716C79.6358 38.4196 80.5244 40.8774 82.415 39.6958C83.2091 39.1948 82.8593 36.8598 82.7553 35.4702C82.3394 29.5431 84.1922 26.6598 85.1375 24.2115C86.0829 21.7631 85.4117 18.8231 81.2901 19.4281C76.8282 20.0709 72.4892 25.2229 70.2677 31.7646C70.2677 21.366 75.7883 11.0715 79.3994 2.27058C79.9666 1.23073 77.6884 -1.38781 75.1739 1.32526C72.8578 3.81145 68.0083 19.1823 67.6113 26.3762C67.4411 27.6146 65.4938 32.776 62.5349 35.007C59.5761 37.238 54.5754 38.3062 54.4903 32.8611C54.4052 27.4161 57.4302 22.5666 59.6895 21.6402C60.9279 21.1297 61.5802 22.2357 62.0245 22.8218C62.7618 23.701 65.6072 24.2304 65.5221 21.6685C65.4371 19.1067 62.5066 16.8474 58.4133 18.8326C52.4295 21.7631 50.6806 28.7395 50.208 31.67C49.5841 35.5364 48.0716 37.1718 47.7123 37.427C47.3531 37.6823 45.0371 40.0172 44.6684 34.5154C44.6489 31.1677 45.2449 27.8448 46.4267 24.7125C46.8497 23.7372 47.1912 22.7286 47.4476 21.6969C47.5814 21.2147 47.5533 20.7019 47.3677 20.2372C47.1821 19.7725 46.8493 19.3814 46.4202 19.1239C45.9911 18.8665 45.4894 18.7568 44.992 18.8118C44.4946 18.8667 44.0289 19.0832 43.6664 19.4281H43.638ZM47.9298 11.6103C47.4449 11.6862 46.985 11.8761 46.5879 12.1643C46.1908 12.4526 45.8677 12.831 45.6453 13.2684C45.4229 13.7058 45.3075 14.1898 45.3086 14.6805C45.3097 15.1713 45.4272 15.6547 45.6515 16.0912C45.9071 16.5097 46.3035 16.8234 46.7696 16.9759C47.2357 17.1283 47.7409 17.1096 48.1944 16.923C48.8174 16.6113 49.3588 16.1584 49.7757 15.6004C50.1926 15.0424 50.4733 14.3947 50.5956 13.7089C50.5956 12.3382 49.8109 11.4402 47.9298 11.5914V11.6103ZM100.565 22.8502C100.839 23.4079 101.936 23.5781 102.286 22.283C102.683 20.8272 101.425 17.2161 98.6178 17.131C95.8102 17.0459 93.7683 18.5679 91.717 20.8272C89.8263 22.9258 84.2962 30.668 84.6365 36.3115C84.8823 39.3177 87.6143 40.4142 90.7906 38.5614C94.638 36.3021 97.4078 32.1238 97.9372 31.4242C98.0884 36.3588 102.276 39.5729 107.267 34.8179C107.99 36.2348 109.028 37.4669 110.302 38.4196C113.932 40.9058 120.426 40.3953 125.21 32.8233C125.666 34.746 126.299 36.6226 127.1 38.4291C128.046 40.3197 130.059 40.66 130.21 38.2022C130.267 37.4176 129.407 35.5647 128.736 33.0407C126.845 25.8563 124.113 13.2836 130.154 4.83239C132.734 1.99644 135.438 1.22127 135.826 4.53935C136.043 6.36381 135.703 14.4368 129.776 25.0622C128.915 26.9529 130.721 27.435 131.279 26.1872C132.11 24.2965 139.786 12.6029 139.616 4.6906C139.493 -0.0360025 132.564 -2.55055 127.62 3.8209C122.894 9.93712 122.525 21.8482 124.198 28.6166C120.984 34.4965 117.43 39.2326 112.854 36.8693C108.052 33.8632 109.574 23.6348 112.75 21.3377C114.896 19.8063 116.21 21.5929 115.038 23.7955C114.237 25.5035 112.964 26.9467 111.37 27.9549C110.056 28.9948 110.897 30.3088 112.136 29.8456C113.672 29.2729 115.054 28.3489 116.17 27.1475C117.286 25.9461 118.106 24.5004 118.564 22.9258C120.663 16.1951 112.457 13.7751 108.307 21.4606C106.608 24.6439 105.991 28.2939 106.549 31.8591C105.708 32.8611 102.928 36.5857 102.465 34.0617C102.002 31.5377 102.749 27.7375 102.91 26.6598C103.335 23.89 100.565 22.784 98.9297 25.1946C97.2943 27.6051 93.9857 34.4398 90.0437 36.3683C86.2625 38.4196 89.7318 26.9718 92.6717 23.701C94.43 21.5362 97.1525 19.2107 99.8184 21.9616C100.244 22.4721 100.3 22.3019 100.565 22.8407V22.8502ZM149.06 15.921H149.183C149.344 15.921 149.419 15.9872 149.419 16.0912C149.419 16.1951 149.306 16.2613 149.155 16.2613H149.032L149.06 15.921ZM149.06 16.4315H149.183C149.325 16.4315 149.4 16.4882 149.419 16.6111C149.43 16.707 149.459 16.7999 149.504 16.8852H149.788C149.746 16.7987 149.717 16.7063 149.703 16.6111C149.701 16.5484 149.68 16.4878 149.643 16.4372C149.606 16.3866 149.554 16.3484 149.495 16.3275C149.559 16.3134 149.616 16.2791 149.659 16.2297C149.701 16.1803 149.727 16.1184 149.731 16.0533C149.732 16.0088 149.723 15.9647 149.705 15.9239C149.687 15.8831 149.66 15.8467 149.627 15.817C149.508 15.7438 149.369 15.7107 149.23 15.7225C149.086 15.7092 148.94 15.7092 148.795 15.7225V16.8569H149.051L149.06 16.4315ZM149.249 15.3916C149.44 15.3784 149.631 15.4237 149.796 15.5213C149.961 15.619 150.092 15.7645 150.173 15.9385C150.253 16.1125 150.278 16.3068 150.246 16.4957C150.213 16.6845 150.124 16.859 149.99 16.996C149.856 17.1329 149.683 17.2259 149.495 17.2626C149.307 17.2992 149.112 17.2778 148.936 17.2012C148.761 17.1246 148.612 16.9964 148.511 16.8336C148.41 16.6708 148.361 16.4811 148.37 16.2897C148.366 16.1723 148.386 16.0554 148.429 15.9459C148.471 15.8365 148.536 15.7368 148.618 15.6529C148.7 15.5689 148.798 15.5025 148.907 15.4576C149.015 15.4127 149.132 15.3903 149.249 15.3916ZM149.249 15.1647C149.1 15.1647 148.953 15.1941 148.815 15.2511C148.677 15.3081 148.552 15.3917 148.447 15.497C148.342 15.6023 148.258 15.7274 148.201 15.865C148.144 16.0026 148.115 16.1502 148.115 16.2991C148.115 16.4481 148.144 16.5956 148.201 16.7332C148.258 16.8709 148.342 16.9959 148.447 17.1013C148.552 17.2066 148.677 17.2901 148.815 17.3472C148.953 17.4042 149.1 17.4335 149.249 17.4335C149.398 17.4335 149.546 17.4042 149.683 17.3472C149.821 17.2901 149.946 17.2066 150.051 17.1013C150.157 16.9959 150.24 16.8709 150.297 16.7332C150.354 16.5956 150.384 16.4481 150.384 16.2991C150.384 16.1502 150.354 16.0026 150.297 15.865C150.24 15.7274 150.157 15.6023 150.051 15.497C149.946 15.3917 149.821 15.3081 149.683 15.2511C149.546 15.1941 149.398 15.1647 149.249 15.1647Z" fill="#1A1E22"/>
</svg>
