<svg width="317" height="22" viewBox="0 0 317 22" fill="none" xmlns="http://www.w3.org/2000/svg">
<path d="M13.6416 6.83109C13.6416 3.93091 11.3742 1.24168 7.99944 1.24168H0.617188V20.4883H3.72828V12.3678H5.99569L10.9523 20.4883H14.6435C14.6435 20.4883 10.1087 13.2115 9.4759 12.2096C11.8488 11.6296 13.6416 9.46761 13.6416 6.83109ZM10.636 6.88382C10.636 8.30754 9.4759 9.46761 8.05217 9.46761H3.72828V4.30003H7.99944C9.42317 4.30003 10.636 5.40737 10.636 6.88382ZM51.7657 10.4168C52.5039 9.73127 53.4003 8.413 53.4003 6.83109C53.4003 3.77272 50.9747 1.24168 47.8109 1.24168H40.956V20.4883H48.8128C51.713 20.4883 54.3495 18.1681 54.4022 14.8988C54.3495 12.7369 52.9258 11.0495 51.7657 10.4168ZM44.067 9.46761V4.30003H47.8109C49.1292 4.30003 50.342 5.4601 50.342 6.88382C50.342 8.36027 49.0764 9.46761 47.8109 9.46761H44.067ZM51.2911 14.8988C51.2911 16.2698 50.131 17.4299 48.7601 17.4299H44.067V12.3678H48.7601C50.1838 12.3678 51.2911 13.5279 51.2911 14.8988ZM199.094 1.24168H202.206V20.4883H199.094V1.24168ZM24.8204 12.3678H31.4645V9.46761H24.8204V4.30003H32.3082V1.24168H21.7094V20.4883H32.5191V17.4299H24.8204V12.3678ZM65.7392 12.3678H72.3305V9.46761H65.7392V4.30003H73.227V1.24168H62.5754V20.4883H73.3852V17.4299H65.7392V12.3678ZM286.838 20.4883H289.949V12.3678H296.593V9.46761H289.949V4.30003H297.489V1.24168H286.838V20.4883ZM306.348 20.4883H309.459V12.3678H316.051V9.46761H309.459V4.30003H317V1.24168H306.348V20.4883ZM167.456 1.08348V20.4883H170.567V9.30942L178.266 18.1681L185.965 9.30942V20.4883H189.076V1.08348L178.213 13.5279L167.456 1.08348ZM268.593 0.76709C263.004 0.76709 258.416 5.30192 258.416 10.9441C258.416 16.5335 262.951 21.121 268.593 21.121C274.235 21.121 278.77 16.5862 278.77 10.9441C278.77 5.30192 274.183 0.76709 268.593 0.76709ZM268.593 17.9572C264.691 17.9572 261.527 14.8461 261.527 10.8913C261.527 6.98928 264.691 3.82546 268.593 3.82546C272.495 3.82546 275.659 6.98928 275.659 10.8913C275.659 14.7934 272.495 17.9572 268.593 17.9572ZM241.542 10.8913L250.665 20.4883H254.936L245.55 10.8913L254.514 1.24168H250.454L241.542 10.8913ZM241.542 9.30942V1.24168H238.379V20.4883H241.542V12.3678V9.30942ZM90.8916 17.9572C86.9896 17.9572 83.8258 14.8461 83.8258 10.8913C83.8258 7.04202 86.9369 3.82546 90.8916 3.82546C93.0009 3.82546 94.8992 4.72188 96.2174 6.25107C97.272 5.19646 98.0103 4.45823 98.3266 4.14185C96.5338 2.13809 93.8973 0.76709 90.7335 0.76709C85.144 0.76709 80.662 5.35464 80.662 10.8913C80.662 16.639 85.355 21.0683 90.7335 21.0683C94.7937 21.0683 97.272 18.8536 98.2739 17.799C97.5357 17.0608 96.7975 16.3226 96.1647 15.6898C94.8464 17.0608 92.9481 17.9572 90.8916 17.9572ZM113.935 17.9572C110.033 17.9572 106.869 14.8461 106.869 10.8913C106.869 7.04202 109.98 3.82546 113.935 3.82546C116.044 3.82546 117.942 4.72188 119.261 6.25107C120.315 5.19646 121.053 4.45823 121.37 4.14185C119.577 2.13809 116.94 0.76709 113.724 0.76709C108.134 0.76709 103.652 5.40738 103.652 10.9441C103.652 16.6917 108.345 21.121 113.724 21.121C117.784 21.121 120.315 18.9064 121.264 17.799C120.526 17.0608 119.788 16.3226 119.155 15.6898C117.89 17.0608 115.991 17.9572 113.935 17.9572ZM225.354 13.4751L212.172 1.03074V20.4355H215.283V8.20208L228.465 20.5937V1.13621H225.354V13.4751ZM126.168 20.4883H129.543L131.441 16.0062H138.296L140.195 20.4883H143.517L134.869 1.08348L126.168 20.4883ZM132.707 12.9478L134.869 7.83298L137.031 12.9478H132.707Z" fill="#1A1E22"/>
</svg>
