<svg width="102" height="40" viewBox="0 0 102 40" fill="none" xmlns="http://www.w3.org/2000/svg">
<path d="M81.7927 35.141C81.4524 35.275 81.0634 35.3773 80.6197 35.445C80.1774 35.5117 79.752 35.5477 79.34 35.5477C79.139 35.5477 78.9337 35.5477 78.7274 35.5477C78.526 35.5477 78.3204 35.5477 78.119 35.5477C77.9804 35.5477 77.7744 35.512 77.5017 35.445C77.2337 35.3773 77.059 35.275 76.9914 35.141C76.9914 35.141 76.9737 35.141 76.9427 35.141C76.9067 35.141 76.925 35.105 76.9914 35.037C76.9914 35.037 77.0274 35.0017 77.0954 34.9347C77.1617 34.8673 77.198 34.8317 77.198 34.8317C77.4037 34.6973 77.6587 34.5767 77.9627 34.4733C78.2674 34.3703 78.5577 34.2853 78.8307 34.2183C79.0364 34.1513 79.3947 34.0127 79.9047 33.811C80.4147 33.6053 80.7054 33.5023 80.7724 33.5023C80.84 33.641 81.13 33.91 81.6404 34.321C82.15 34.729 82.2037 35.0017 81.7927 35.141ZM99.5664 28.6043C99.293 28.1927 98.595 28.0227 97.4727 28.0897C96.3497 28.157 95.6157 28.2287 95.276 28.2953C94.457 28.3627 93.6607 28.4473 92.874 28.55C92.0907 28.654 91.2227 28.8053 90.2697 29.0117C88.9767 29.1453 87.957 29.2797 87.2054 29.4183C86.4587 29.553 85.5057 29.727 84.3464 29.9283C84.2124 29.9283 83.922 29.982 83.4784 30.085C83.0357 30.1837 82.678 30.237 82.405 30.237C82.271 30.237 81.912 29.982 81.331 29.4723C80.7544 28.9623 80.3654 28.569 80.1587 28.2957C79.8864 27.9553 79.5997 27.6337 79.2907 27.325C78.9817 27.021 78.727 26.6943 78.5257 26.3543C78.3874 26.2207 78.289 26.063 78.217 25.8933C78.15 25.7237 78.1184 25.5357 78.1184 25.3343C78.2527 25.1287 78.5077 25.0123 78.884 24.9763C79.2544 24.9407 79.5457 24.9587 79.7517 25.0257C80.1587 25.097 80.6014 25.2137 81.0754 25.383C81.5547 25.553 81.9974 25.6067 82.4047 25.5353C82.7447 25.4683 83.0714 25.3163 83.3754 25.079C83.684 24.842 83.836 24.516 83.836 24.108C83.9707 23.8357 83.9707 23.563 83.836 23.2897C83.6974 23.0163 83.496 22.8463 83.2234 22.78C83.089 22.7123 82.9327 22.659 82.7627 22.6273C82.5924 22.592 82.4047 22.5423 82.203 22.4713C81.997 22.337 81.7607 22.2333 81.4874 22.1673C81.2144 22.0997 80.9104 22.033 80.5657 21.9657C80.0917 21.894 79.5997 21.8623 79.0854 21.8623C78.5757 21.8623 78.1187 21.9293 77.7074 22.0637C77.161 22.2697 76.6694 22.5253 76.2267 22.8293C75.7834 23.138 75.4614 23.5633 75.256 24.1083C74.9827 24.5163 74.8664 24.9407 74.8974 25.3833C74.9334 25.8267 75.0504 26.2513 75.256 26.6633C75.3897 27.07 75.578 27.4773 75.819 27.8887C76.0567 28.296 76.28 28.672 76.481 29.012C76.6867 29.2133 76.8707 29.4187 77.045 29.6247C77.2147 29.826 77.4337 30.032 77.707 30.2373C77.8457 30.5103 78.0287 30.748 78.2664 30.949C78.5077 31.1547 78.7267 31.3607 78.933 31.5667C78.5254 31.7677 78.2704 31.889 78.1674 31.9247C78.0647 31.9557 77.912 32.005 77.707 32.072C77.0267 32.345 76.378 32.5867 75.765 32.788C75.1524 32.9933 74.5757 33.369 74.0294 33.9107C73.8237 34.1157 73.569 34.371 73.2644 34.6797C72.9564 34.9837 72.8034 35.3107 72.8034 35.6507C72.6697 36.058 72.7364 36.398 73.0097 36.671C73.282 36.9433 73.6224 37.145 74.0294 37.284C75.05 37.6243 76.0564 37.8473 77.045 37.9453C78.0287 38.049 79.0667 38.0667 80.1584 37.9993C81.044 37.9993 81.9794 37.8963 82.9684 37.6907C83.9564 37.4897 84.789 37.1493 85.469 36.6707C85.8094 36.398 86.064 36.1067 86.2384 35.8027C86.4087 35.494 86.4264 35.1367 86.2877 34.7293C86.153 34.3217 85.9474 33.9463 85.6747 33.606C85.4017 33.2663 85.1284 32.9263 84.8557 32.5863C85.2674 32.3807 85.9791 32.1747 87.0027 31.973C88.0234 31.767 89.213 31.5977 90.5777 31.463C92.8904 31.1907 94.5591 30.984 95.5841 30.8503C96.604 30.7117 97.284 30.7477 97.624 30.9487C97.9637 31.087 98.2554 31.208 98.4921 31.3067C98.7294 31.4097 98.9884 31.2927 99.262 30.9487C99.6691 30.4743 99.8567 30.0317 99.8211 29.6243C99.7854 29.2133 99.7004 28.873 99.5664 28.6043ZM45.8417 22.5737C45.7027 22.914 45.5687 23.325 45.43 23.804C45.296 24.2783 45.1617 24.6547 45.023 24.927C44.4774 23.4953 44.088 21.7773 43.8467 19.769C43.6094 17.7603 43.4931 16.038 43.4931 14.611C43.4931 11.4793 43.627 9.07667 43.9001 7.408C44.173 5.73934 44.647 4.90733 45.3314 4.90733C46.0787 4.90733 46.5037 5.89134 46.606 7.86867C46.709 9.84167 46.758 10.9333 46.758 11.1347C46.8254 13.112 46.812 15.0173 46.709 16.8567C46.6064 18.6953 46.316 20.6013 45.8417 22.5737ZM69.1274 33.709C69.1274 33.709 69.06 33.3687 68.9217 32.6883C68.7877 32.0043 68.72 31.3603 68.72 30.7477C68.72 30.135 68.7517 29.588 68.8237 29.1143C68.8904 28.6353 68.9937 28.2603 69.1277 27.987C69.8074 27.0343 69.897 26.3897 69.383 26.05C68.8734 25.705 68.38 25.437 67.902 25.231C67.3564 25.0257 66.931 25.0607 66.627 25.3343C66.3184 25.6067 66.0634 25.947 65.8624 26.3543C65.589 27.101 65.3164 27.75 65.044 28.2957C64.7707 28.8417 64.395 29.4547 63.9207 30.1353C63.5137 30.6803 63.12 31.1547 62.7444 31.5663C62.3727 31.9733 62.015 32.3133 61.6747 32.5867C60.9234 32.9937 60.4447 32.859 60.243 32.179C60.0377 31.4947 60.0734 30.712 60.347 29.826C60.6194 29.0787 60.8874 28.3493 61.1607 27.6337C61.4334 26.9183 61.7737 26.2207 62.1847 25.5357C62.5917 24.7887 62.6101 24.2427 62.2337 23.9027C61.858 23.5633 61.3344 23.2233 60.6507 22.8827C59.6974 22.4037 58.9994 22.8827 58.557 24.3147C58.114 25.7413 57.7917 26.6947 57.586 27.173C57.2457 27.7143 56.906 28.2957 56.566 28.909C56.2257 29.5217 55.68 30.237 54.9324 31.052C54.5214 31.598 53.8594 32.2953 52.9384 33.1453C52.0207 33.9997 51.153 34.358 50.334 34.219C50.267 34.219 50.1637 34.1837 50.03 34.1157C49.891 34.0493 49.7924 33.9817 49.7214 33.9107C49.3137 33.5753 48.9024 33.1633 48.495 32.6887C48.088 32.2103 47.6814 31.6647 47.2737 31.052C47.1354 30.918 46.983 30.6803 46.813 30.34C46.643 30.0003 46.5224 29.6917 46.455 29.4183C46.3837 29.2133 46.334 29.0433 46.2984 28.909C46.267 28.7743 46.3167 28.569 46.455 28.2957C47.269 26.8647 47.8507 25.3163 48.191 23.648C48.5314 21.9793 48.8354 20.3283 49.108 18.6957C49.381 16.7183 49.4837 14.3203 49.4167 11.4933C49.3497 8.67033 49.0767 6.268 48.598 4.295C48.325 3.40933 47.8824 2.72933 47.269 2.25067C46.6564 1.77667 45.909 1.53467 45.0234 1.53467C44.2767 1.53467 43.6097 1.78967 43.0327 2.30433C42.4554 2.81433 42.0614 3.37367 41.856 3.98667C41.2434 5.691 40.8674 7.45834 40.7327 9.30134C40.599 11.1357 40.5317 12.9427 40.5317 14.7103C40.5317 16.6877 40.6301 18.6603 40.8364 20.6377C41.042 22.6103 41.382 24.583 41.856 26.561C41.856 26.695 41.995 27.089 42.2631 27.737C42.536 28.3817 42.639 28.739 42.5717 28.806C42.5717 28.806 42.536 28.8377 42.4687 28.9097C42.4017 28.9763 42.3704 29.0127 42.3704 29.0127C42.3704 29.0793 42.3347 29.1463 42.2677 29.214C42.2007 29.2803 42.1647 29.3167 42.1647 29.3167C40.7331 31.021 39.3914 32.296 38.1297 33.146C36.8677 34.0003 35.66 34.4567 34.5014 34.528C34.0941 34.528 33.8077 34.2737 33.6334 33.7633C33.4634 33.2483 33.3784 32.891 33.3784 32.689C33.244 31.665 33.1767 30.797 33.1767 30.0853C33.1767 29.37 33.3467 28.497 33.6867 27.4777C33.8927 27.07 33.6514 26.542 32.9711 25.898C32.291 25.2497 31.7094 24.9593 31.2354 25.0263C31.0297 25.0977 30.8104 25.2143 30.5734 25.3837C30.3314 25.5537 30.1794 25.7777 30.1127 26.0507C30.1127 26.1177 30.0771 26.1847 30.0101 26.2517C29.9427 26.319 29.9067 26.422 29.9067 26.561C29.9067 26.7663 29.871 27.0703 29.8041 27.4823C29.737 27.8893 29.6697 28.2297 29.5981 28.5023C29.5981 28.57 29.5844 28.6727 29.549 28.8063C29.5137 28.9407 29.5001 29.0443 29.5001 29.1103C29.2941 29.728 29.039 30.3233 28.7304 30.8997C28.4261 31.4817 28.1354 31.9377 27.8624 32.278C27.5937 32.4843 27.3207 32.7033 27.0481 32.9447C26.7754 33.1823 26.5024 33.2673 26.2294 33.2C25.6837 33.1327 25.2944 32.8423 25.0531 32.332C24.8157 31.8223 24.6951 31.3617 24.6951 30.95C24.6277 30.6103 24.5967 30.3057 24.5967 30.033C24.5967 29.76 24.5967 29.456 24.5967 29.1107C24.5967 28.91 24.6104 28.6553 24.6457 28.3467C24.6817 28.042 24.6951 27.751 24.6951 27.4787C24.6951 27.2727 24.6277 27.0357 24.4937 26.767C24.3597 26.4943 24.2207 26.288 24.0867 26.1493C23.8807 26.083 23.6931 26.0157 23.5231 25.948C23.3531 25.8813 23.1651 25.8097 22.9591 25.7423C22.4181 25.4697 22.0064 25.3713 21.7334 25.4383C21.4647 25.505 21.2591 25.6397 21.1251 25.8453C21.1251 25.8453 21.0894 25.962 21.0217 26.2027C20.9547 26.4403 20.8831 26.5923 20.8161 26.6643C19.7961 27.4783 18.6864 28.4313 17.4967 29.5227C16.3067 30.6103 15.1657 31.5317 14.0741 32.2783C13.1217 32.8917 12.1194 33.522 11.0634 34.171C10.0077 34.815 8.90272 35.2087 7.74405 35.3433C7.33272 35.4103 7.07738 35.3613 6.97472 35.1913C6.87172 35.021 6.78672 34.7307 6.71939 34.3233C6.71939 34.256 6.71939 34.185 6.71939 34.1173C6.71939 34.051 6.68805 34.0147 6.61639 34.0147V33.912C6.41505 33.2317 6.29439 32.57 6.26305 31.9257C6.22739 31.2767 6.17805 30.6817 6.10639 30.1367V29.93C6.03939 28.2303 6.00805 26.49 6.00805 24.7223C6.00805 22.9513 5.97205 21.2153 5.90505 19.5113C5.83772 17.677 5.78405 15.8697 5.74805 14.1023C5.71705 12.331 5.66339 10.595 5.59605 8.89034C5.59605 8.61767 5.59605 8.36267 5.59605 8.12567C5.59605 7.88867 5.59605 7.63334 5.59605 7.36067C5.59605 7.15467 5.59605 6.9 5.59605 6.591C5.59605 6.287 5.52905 5.965 5.39039 5.62467C5.32339 5.285 5.29205 4.703 5.29205 3.889C5.29205 3.07033 4.95172 2.45733 4.26739 2.05033C3.92739 1.77767 3.53805 1.63867 3.09539 1.63867C2.65239 1.63867 2.19172 1.70567 1.71305 1.84433C1.78439 1.70567 1.76672 1.69233 1.66372 1.79067C1.56105 1.892 1.51172 2.013 1.51172 2.14733C1.51172 2.42033 1.59672 2.675 1.76672 2.91667C1.93672 3.154 2.02172 3.409 2.02172 3.68167C2.02172 3.749 2.03972 3.86933 2.07072 4.03967C2.10672 4.20967 2.12472 4.36167 2.12472 4.496C2.33039 5.52033 2.41539 6.35267 2.37972 7.00133C2.34372 7.64567 2.39772 8.482 2.53172 9.502C2.53172 11.0007 2.54972 12.2447 2.58539 13.2287C2.61672 14.2173 2.63472 15.425 2.63472 16.857C2.63472 18.2837 2.65239 19.7153 2.68839 21.147C2.72005 22.5737 2.77339 23.9697 2.84039 25.3347C2.84039 26.761 2.82272 28.1577 2.78672 29.522C2.75539 30.882 2.87172 32.2107 3.14472 33.5033C3.21172 34.0497 3.33239 34.6443 3.50239 35.2927C3.67239 35.9373 3.92739 36.5677 4.26739 37.181C4.74639 37.9993 5.49339 38.4243 6.51339 38.4607C7.53772 38.4917 8.52672 38.3753 9.47938 38.1027C9.88638 38.0353 10.3294 37.915 10.8034 37.7447C11.2824 37.5747 11.7251 37.3867 12.1324 37.1813C12.8124 36.841 13.4431 36.4837 14.0201 36.107C14.6017 35.7363 15.1654 35.3777 15.7111 35.0377L15.9124 34.8327C16.7984 34.286 17.5811 33.7097 18.2611 33.097C18.9411 32.484 19.5541 31.9737 20.1 31.5667C20.2387 31.495 20.4937 31.3073 20.8647 31.0033C21.2404 30.6947 21.4284 30.5067 21.4284 30.44C21.4954 30.851 21.5804 31.2583 21.6834 31.6653C21.7861 32.0763 21.8714 32.4167 21.9381 32.6893C22.2781 33.71 22.7747 34.5957 23.4191 35.3427C24.0677 36.0943 24.9357 36.465 26.0274 36.465C26.9087 36.465 27.6914 36.197 28.3761 35.6513C29.0561 35.1057 29.7004 34.4567 30.3134 33.71C30.385 33.5763 30.434 33.54 30.4701 33.6067C30.5011 33.6737 30.5547 33.71 30.6221 33.71C30.6891 33.7767 30.8234 34.0677 31.0294 34.578C31.2351 35.0877 31.472 35.5127 31.745 35.8523C32.0177 36.264 32.3044 36.568 32.6131 36.7737C32.9174 36.9753 33.2441 37.1453 33.584 37.2843C34.0581 37.5567 34.7564 37.575 35.6777 37.333C36.5947 37.0963 37.2611 36.877 37.6687 36.6713C39.167 35.9247 40.6481 34.882 42.111 33.5573C43.5741 32.229 44.3077 31.5667 44.3077 31.5667C44.375 31.5667 44.5984 31.9557 44.9744 32.739C45.3457 33.5217 45.7747 34.184 46.2494 34.73C46.795 35.2083 47.323 35.7007 47.833 36.2103C48.3427 36.72 48.9064 37.0783 49.5197 37.2843C49.788 37.351 50.1324 37.4177 50.54 37.4903C50.9467 37.5567 51.2877 37.5567 51.56 37.4903C53.1927 36.805 54.4547 36.009 55.3404 35.0877C56.226 34.1703 56.7 33.7097 56.772 33.7097C56.772 33.7763 56.924 34.2017 57.228 34.984C57.5367 35.767 58.302 36.264 59.5274 36.4647C60.4127 36.671 61.2274 36.568 61.9787 36.1607C62.726 35.7497 63.3747 35.3107 63.9207 34.8327C64.3274 34.4923 64.6674 34.1703 64.9404 33.8617C65.2134 33.5573 65.487 33.2307 65.7594 32.891C65.6927 32.958 65.7234 33.2173 65.8627 33.6603C65.9967 34.099 66.0637 34.3897 66.0637 34.5283C66.2024 35.276 66.5604 36.0587 67.138 36.8773C67.7144 37.6913 68.4487 37.9333 69.3344 37.5887C69.8084 37.4547 70.2204 37.1817 70.56 36.774C70.9 36.3677 71.1374 35.9557 71.276 35.5487C71.4774 35.2083 71.5977 34.8507 71.6337 34.4747C71.6654 34.0993 71.616 33.674 71.477 33.2C71.137 32.4483 70.7124 32.3143 70.2017 32.789C69.691 33.2663 69.333 33.5703 69.1274 33.709Z" fill="#1A1E22"/>
</svg>
