<svg width="89" height="51" viewBox="0 0 89 51" fill="none" xmlns="http://www.w3.org/2000/svg">
<path d="M29.2363 20.7673L32.7419 18.7408C31.7114 17.4156 30.3911 16.3441 28.8821 15.6085C27.3732 14.8728 25.7158 14.4927 24.0371 14.4971C17.9459 14.4971 12.9922 19.4523 12.9922 25.542C12.9922 31.6317 17.9459 36.5898 24.0371 36.5898C25.7163 36.5949 27.3743 36.2145 28.8835 35.478C30.3926 34.7415 31.7127 33.6685 32.7419 32.3417L29.2363 30.3182C28.2732 31.3627 27.0176 32.0927 25.6334 32.4128C24.2491 32.7329 22.8005 32.6282 21.4767 32.1125C20.1528 31.5968 19.0152 30.6939 18.2122 29.5218C17.4092 28.3497 16.9783 26.9628 16.9756 25.542C16.9779 23.6699 17.7226 21.8751 19.0464 20.5513C20.3702 19.2276 22.165 18.4828 24.0371 18.4805C26.0103 18.4805 27.8992 19.3133 29.2363 20.7673Z" fill="#1A1E22"/>
<path d="M49.6064 31.7097C50.1315 31.1491 50.4066 30.4362 50.4066 29.6507C50.4066 28.8653 50.1315 28.1509 49.6064 27.5917C48.9955 26.9143 48.0844 26.5948 46.7339 26.5948H42.4473V32.7037H46.7339C48.0829 32.7037 48.997 32.3872 49.6064 31.7097ZM42.4473 18.2523V23.1247H45.5003C46.6688 23.1247 47.3655 22.888 47.9054 22.3126C48.3166 21.8659 48.5533 21.2713 48.5533 20.6885C48.5533 20.1057 48.3166 19.5126 47.9054 19.0644C47.3655 18.4875 46.6703 18.2508 45.5003 18.2508H42.4473V18.2523ZM51.0294 24.1216C53.5025 25.4869 54.2924 27.9172 54.2924 29.6759C54.2945 31.0312 53.8664 32.3522 53.0698 33.4487C52.2731 34.5452 51.149 35.3606 49.8594 35.7774C49.5111 35.8819 49.1563 35.9634 48.7973 36.0215C48.1465 36.1276 47.488 36.1791 46.8286 36.1753H38.5098V14.7837H45.7488C47.9143 14.7837 49.3417 15.226 50.5205 16.2702C51.1344 16.799 51.6276 17.4533 51.967 18.1889C52.3064 18.9246 52.484 19.7245 52.4878 20.5347C52.4878 21.9399 51.7867 23.4841 51.0294 24.1231V24.1216Z" fill="#1A1E22"/>
<path d="M63.7276 32.42C63.9998 30.9246 65.618 29.9202 67.4935 28.7561C70.1471 27.1039 73.1587 25.2298 73.1587 21.3367C73.1587 17.4391 70.2152 14.5015 66.3043 14.5015C61.2485 14.5015 59.3064 18.9582 59.2901 19.0011L59.2664 19.0528L62.2455 21.0246L62.2765 20.958C62.2928 20.9314 63.7557 18.1979 66.149 18.1979H66.1756C66.607 18.1966 67.0338 18.2878 67.427 18.4654C67.8202 18.6429 68.1707 18.9028 68.455 19.2274C69.0437 19.893 69.304 20.7627 69.196 21.6695C68.9904 23.3809 67.2672 24.5006 65.2822 25.7949C62.4452 27.6379 59.2324 29.7279 59.2324 34.2246C59.2324 34.7571 59.3034 35.2777 59.3818 35.8783L59.4203 36.1697H73.5936V32.4185H63.7291L63.7276 32.42Z" fill="#1A1E22"/>
<rect x="1.96212" y="2.02755" width="85.1548" height="47.0731" stroke="#1A1E22" stroke-width="2.11565"/>
</svg>
