<svg width="125" height="45" viewBox="0 0 125 45" fill="none" xmlns="http://www.w3.org/2000/svg">
<g clip-path="url(#clip0)">
<path d="M15.7135 7.3526C15.3096 5.66376 14.6855 4.26864 13.7677 3.27737C12.8498 2.24938 11.7484 1.55182 10.4267 1.14797C9.17844 0.78083 7.56304 0.560547 5.61721 0.560547H0V26.664H5.58049C7.41618 26.664 8.95816 26.4805 10.2064 26.0766C11.4914 25.6728 12.6295 25.0119 13.5841 24.0206C14.5387 23.0294 15.2362 21.671 15.6768 19.9454C16.0806 18.2566 16.3009 16.1272 16.3009 13.6307C16.3009 11.0974 16.0806 9.00471 15.7135 7.3526ZM12.1155 20.0556C11.6016 21.4507 10.8673 22.4052 9.91272 22.9192C8.92145 23.4332 7.4529 23.6902 5.58049 23.6902H3.1941V3.57108H5.65392C7.52632 3.57108 8.95816 3.82807 9.94943 4.34207C10.904 4.81934 11.6383 5.7739 12.1523 7.20574C12.703 8.67429 12.96 10.8404 12.96 13.6307C12.96 16.4209 12.6663 18.587 12.1155 20.0556Z" fill="#1A1E22"/>
<path d="M85.3269 13.4466H73.9089V3.6073H86.9056V0.560059H70.7148V26.6636H73.9089V16.4204H85.3269V13.4466Z" fill="#1A1E22"/>
<path d="M108.418 0.560059V26.6636H111.612V16.4204H123.03V13.4466H111.612V3.6073H124.609V0.560059H108.418Z" fill="#1A1E22"/>
<path d="M4.22208 38.1182C3.92837 38.0448 3.56124 38.0081 3.1941 38.0081C2.71682 38.0081 2.31297 38.0815 1.90912 38.2283C1.50526 38.3752 1.17484 38.5588 0.88113 38.8158C0.58742 39.0728 0.367137 39.4032 0.220282 39.7703C0.073427 40.1375 0 40.578 0 41.0553C0 41.5326 0.073427 41.9731 0.220282 42.3403C0.367137 42.7074 0.58742 43.0378 0.88113 43.2948C1.17484 43.5518 1.50526 43.7721 1.8724 43.8823C2.23954 43.9924 2.68011 44.0658 3.12067 44.0658C3.34095 44.0658 3.52452 44.0291 3.70809 44.0291C3.89166 44.0291 4.07523 43.9557 4.22208 43.919C4.36894 43.8823 4.51579 43.8088 4.62594 43.7721C4.73608 43.6987 4.84622 43.662 4.91964 43.5885L4.95636 43.5518L5.0665 42.891L4.84622 42.6707L4.69936 42.7808C4.62594 42.8543 4.55251 42.891 4.44237 42.9644C4.33222 43.0378 4.22208 43.1113 4.11194 43.148C4.0018 43.2214 3.85495 43.2581 3.70809 43.2948C3.56124 43.3316 3.41438 43.3683 3.23081 43.3683C2.9371 43.3683 2.6801 43.3316 2.42311 43.2214C2.16611 43.148 1.98254 43.0011 1.79897 42.8176C1.61541 42.634 1.46855 42.377 1.35841 42.0833C1.24827 41.7896 1.21155 41.4224 1.21155 41.0186C1.21155 40.6147 1.24827 40.2476 1.35841 39.9539C1.46855 39.6602 1.61541 39.4032 1.79897 39.2196C1.98254 39.036 2.20283 38.8892 2.42311 38.8158C2.6801 38.7423 2.9371 38.6689 3.23081 38.6689C3.41438 38.6689 3.56124 38.7056 3.70809 38.7423C3.85495 38.779 4.0018 38.8525 4.11194 38.9259C4.22208 38.9993 4.33223 39.0728 4.40565 39.1462L4.58922 39.3297L4.66265 39.4399L4.95636 39.3297L4.99307 39.2196C4.99307 39.1462 5.02979 39.036 5.0665 38.8892C5.10321 38.7423 5.13993 38.6689 5.13993 38.6322L5.25007 38.4486L5.02979 38.3752C4.77279 38.2651 4.51579 38.1916 4.22208 38.1182Z" fill="#1A1E22"/>
<path d="M13.2532 39.3297C13.2532 38.9992 13.2899 38.6321 13.2899 38.3017V38.0447L13.0329 38.0814C12.9595 38.0814 12.8861 38.1181 12.8494 38.1181C12.7392 38.1181 12.6291 38.1181 12.5189 38.1181C12.4455 38.1181 12.4088 38.0814 12.3354 38.0814L12.0784 38.0447V38.3017C12.0784 38.6688 12.1151 38.9992 12.1151 39.3297C12.1151 39.6601 12.1518 40.0272 12.1518 40.3576V40.4311H11.5277C10.977 40.4311 10.3895 40.4311 9.87554 40.4311H9.25141V40.3576C9.25141 40.0272 9.25141 39.6601 9.28812 39.3297C9.28812 38.9992 9.32483 38.6321 9.32483 38.3017V38.0447L9.06784 38.0814C8.99441 38.0814 8.92098 38.1181 8.88427 38.1181C8.77413 38.1181 8.66399 38.1181 8.55385 38.1181C8.48042 38.1181 8.4437 38.0814 8.37028 38.0814L8.11328 38.0447V38.3017C8.11328 38.6688 8.14999 38.9992 8.14999 39.3297C8.14999 39.6601 8.18671 40.0272 8.18671 40.3576V41.7528C8.18671 42.0832 8.18671 42.4503 8.14999 42.7808C8.14999 43.1112 8.11328 43.4416 8.11328 43.772V43.9923L8.33356 43.9556C8.55385 43.9189 8.84756 43.9189 9.06784 43.9556L9.28812 43.9923V43.772C9.28812 43.4416 9.25141 43.1112 9.25141 42.7808C9.25141 42.4503 9.21469 42.0832 9.21469 41.7528V41.2388H9.83883H11.5277H12.1518V41.7528C12.1518 42.0832 12.1518 42.4503 12.1151 42.7808C12.1151 43.1112 12.0784 43.4416 12.0784 43.772V43.9923L12.2986 43.9556C12.5189 43.9189 12.8126 43.9189 13.0329 43.9556L13.2532 43.9923V43.772C13.2532 43.4416 13.2165 43.1112 13.2165 42.7808C13.2165 42.4503 13.1798 42.0832 13.1798 41.7528V40.3576C13.2532 40.0272 13.2532 39.6968 13.2532 39.3297Z" fill="#1A1E22"/>
<path d="M21.3704 43.1482C21.2602 42.8912 21.1501 42.6342 21.0032 42.3038C20.8564 41.9733 20.7095 41.6429 20.5627 41.2758C20.4158 40.9086 20.269 40.5415 20.0854 40.1744C19.9385 39.8072 19.7917 39.4401 19.6448 39.0729L19.1675 37.9348H18.727L18.6903 38.045C18.2864 38.9995 17.8458 39.9174 17.442 40.8719C17.0381 41.7898 16.5976 42.7443 16.1937 43.6622L16.0469 43.9926L16.414 43.9559C16.5609 43.9192 16.7812 43.9192 16.9647 43.9559L17.1483 43.9926L17.185 43.809C17.2584 43.5887 17.3686 43.2583 17.4787 42.8912C17.5889 42.5608 17.7357 42.1936 17.8826 41.8265H18.2497H19.2777H19.6448C19.7183 41.9733 19.755 42.1202 19.8284 42.267L20.0487 42.8545C20.1221 43.038 20.1955 43.2216 20.269 43.4052C20.3424 43.5887 20.3791 43.7356 20.4158 43.8457L20.4525 43.9926L20.6361 43.9559H20.8197H21.2602H21.4438L21.8476 44.0293L21.6641 43.6622C21.5539 43.5887 21.4805 43.4052 21.3704 43.1482ZM19.2043 41.1289C18.8738 41.1289 18.5801 41.1289 18.3231 41.1289C18.2864 41.1289 18.2497 41.1289 18.1763 41.1289L18.727 39.8072L19.3144 41.1289C19.3144 41.1289 19.241 41.1289 19.2043 41.1289Z" fill="#1A1E22"/>
<path d="M28.5987 43.3314C28.4885 43.1845 28.3417 43.0377 28.1948 42.8541C28.048 42.6705 27.9011 42.487 27.7543 42.3034C27.6074 42.1198 27.4605 41.9362 27.3137 41.7527C27.1668 41.5691 27.0567 41.4223 26.9098 41.2754L26.8731 41.202C26.9465 41.1653 27.02 41.1653 27.0934 41.1285C27.3137 41.0551 27.4973 40.945 27.6808 40.8348C27.8644 40.688 28.0112 40.5411 28.1581 40.3208C28.305 40.1006 28.3784 39.8436 28.3784 39.5498C28.3784 39.2561 28.3417 39.0359 28.2315 38.8523C28.1214 38.6687 27.9745 38.5219 27.791 38.4117C27.6074 38.3016 27.4238 38.2282 27.2035 38.1547C26.7997 38.0813 26.3591 38.0813 26.0654 38.118C25.8084 38.1547 25.5147 38.1547 25.1843 38.118C25.0374 38.118 24.8906 38.0813 24.7437 38.0813H24.5234V38.3016C24.5234 38.6687 24.5602 38.9991 24.5602 39.3296C24.5602 39.66 24.5969 40.0271 24.5969 40.3576V41.7527C24.5969 42.0831 24.5969 42.4502 24.5602 42.7807C24.5602 43.1111 24.5234 43.4415 24.5234 43.7719V43.9922L24.7437 43.9555C24.964 43.9188 25.2577 43.9188 25.478 43.9555L25.6983 43.9922V43.7719C25.6983 43.4415 25.6616 43.1111 25.6616 42.7807C25.6616 42.4502 25.6249 42.0831 25.6249 41.7527V41.3855C25.7717 41.5324 25.9553 41.7527 26.1021 41.973C26.3224 42.23 26.506 42.487 26.6896 42.7439C26.8731 43.0009 27.0567 43.2579 27.2403 43.4415C27.3871 43.6618 27.534 43.8454 27.6074 43.9555L27.6808 44.0656L27.791 44.0289H28.0112H28.4885H28.7088L29.2962 44.1024L28.8557 43.6618C28.819 43.5884 28.7088 43.4782 28.5987 43.3314ZM26.4326 40.6145C26.2123 40.6513 25.9553 40.688 25.6616 40.6513C25.6249 40.6513 25.6249 40.6513 25.6249 40.6513V40.3576C25.6249 40.0638 25.6249 39.7701 25.6249 39.5131L25.6616 38.8156H25.8084C25.992 38.8156 26.3224 38.7789 26.6528 38.8523C26.763 38.889 26.8731 38.9257 26.9833 38.9991C27.0934 39.0726 27.1668 39.146 27.2035 39.2561C27.277 39.3663 27.277 39.5131 27.277 39.66C27.277 39.8803 27.2403 40.0271 27.1668 40.1373C27.0934 40.2841 26.9833 40.3576 26.8731 40.4677C26.7263 40.5411 26.5794 40.5778 26.4326 40.6145Z" fill="#1A1E22"/>
<path d="M32.9287 39.3297C32.9287 38.9992 32.9655 38.6321 32.9655 38.3017V38.0447L32.7085 38.0814C32.635 38.0814 32.5616 38.1181 32.5249 38.1181C32.4148 38.1181 32.3046 38.1181 32.1945 38.1181C32.121 38.1181 32.0476 38.0814 32.0109 38.0814L31.7539 38.0447V38.3017C31.7539 38.6688 31.7906 38.9992 31.7906 39.3297C31.7906 39.6601 31.8273 40.0272 31.8273 40.3576V41.7528C31.8273 42.0832 31.8273 42.4503 31.7906 42.7808C31.7906 43.1112 31.7539 43.4416 31.7539 43.772V43.9923L31.9742 43.9556C32.1945 43.9189 32.4882 43.9189 32.7085 43.9556L32.9287 43.9923V43.772C32.9287 43.4416 32.892 43.1112 32.892 42.7808C32.892 42.4503 32.8553 42.0832 32.8553 41.7528V40.3576C32.892 40.0272 32.9287 39.6968 32.9287 39.3297Z" fill="#1A1E22"/>
<path d="M40.3517 38.5586C40.3517 38.5219 40.3517 38.4484 40.3884 38.3383L40.4619 38.0813H40.2049C39.8377 38.0813 39.5073 38.118 39.1769 38.118C38.4793 38.1547 37.8185 38.1547 37.1209 38.118C36.7905 38.118 36.4234 38.0813 36.0929 38.0813H35.8359L35.9094 38.3383C35.9461 38.4484 35.9461 38.5219 35.9461 38.5219C35.9461 38.5586 35.9461 38.632 35.9094 38.7421L35.8359 39.0359L36.1296 38.9991C36.2398 38.9991 36.3499 38.9624 36.4968 38.9624C36.6436 38.9624 36.7905 38.9257 36.9374 38.9257H37.3779H37.5982C37.5982 39.403 37.6349 39.8803 37.6349 40.3943V41.7894C37.6349 42.1198 37.6349 42.4869 37.5982 42.8174C37.5982 43.1478 37.5615 43.4782 37.5615 43.8087V44.0289L37.7818 43.9922C38.0021 43.9555 38.2958 43.9555 38.516 43.9922L38.7363 44.0289V43.8087C38.7363 43.4782 38.6996 43.1478 38.6996 42.8174C38.6996 42.4869 38.6629 42.1198 38.6629 41.7894V40.3943C38.6629 39.917 38.6629 39.4397 38.6996 38.9257H38.9199H39.3605C39.5073 38.9257 39.6542 38.9624 39.801 38.9624C39.9479 38.9624 40.058 38.9991 40.1682 38.9991L40.4619 39.0359L40.3884 38.7421C40.3517 38.6687 40.3517 38.5953 40.3517 38.5586Z" fill="#1A1E22"/>
<path d="M47.1735 43.258C47.0634 43.001 46.9532 42.744 46.8064 42.4136C46.6595 42.0832 46.5127 41.7528 46.3658 41.3856C46.2189 41.0185 46.0721 40.6514 45.8885 40.2842C45.7049 39.9171 45.5948 39.5499 45.448 39.1828L44.9707 38.0447H44.5668L44.5301 38.1548C44.1263 39.1094 43.6857 40.0272 43.2818 40.9818C42.878 41.8996 42.4374 42.8542 42.0336 43.772L41.8867 44.1025L42.2539 44.0657C42.4007 44.029 42.621 44.029 42.8046 44.0657L42.9881 44.1025L43.0248 43.9189C43.0983 43.6986 43.2084 43.3682 43.3186 43.001C43.4287 42.6706 43.5756 42.3035 43.7224 41.9363H44.0895H45.1175H45.4847C45.5214 42.0832 45.5948 42.23 45.6682 42.3769L45.8885 42.9643C45.9619 43.1479 46.0354 43.3315 46.1088 43.515C46.1822 43.6986 46.2189 43.8455 46.2557 43.9556L46.2924 44.1025L46.4759 44.0657H46.6595H47.1001H47.2836L47.6875 44.1392L47.5039 43.772C47.3571 43.6986 47.2836 43.515 47.1735 43.258ZM45.0074 41.2388C44.677 41.2388 44.42 41.2388 44.1263 41.2388C44.0895 41.2388 44.0528 41.2388 43.9794 41.2388L44.5301 39.9171L45.1175 41.2388C45.1175 41.2388 45.0441 41.2388 45.0074 41.2388Z" fill="#1A1E22"/>
<path d="M53.3456 41.0552C53.1988 40.9451 53.0152 40.8716 52.8316 40.7982C52.9785 40.7248 53.0886 40.6514 53.1988 40.5412C53.4925 40.2842 53.6393 39.9171 53.6393 39.4765C53.6393 39.2195 53.6026 38.9992 53.4925 38.8157C53.3823 38.6321 53.2355 38.4852 53.0519 38.3751C52.8683 38.265 52.6848 38.1915 52.4645 38.1548C52.1341 38.0814 51.7302 38.0814 51.3264 38.1181C51.0694 38.1548 50.8491 38.1548 50.5187 38.1181C50.3718 38.1181 50.225 38.0814 50.1148 38.0814L49.8945 38.0447V38.265C49.8945 38.5954 49.9312 38.9625 49.9312 39.2929C49.9312 39.6234 49.968 39.9905 49.968 40.3209V41.7161C49.968 42.0465 49.968 42.4136 49.9312 42.744C49.9312 43.0745 49.8945 43.4416 49.8945 43.772V43.9923L50.1148 43.9556H50.4819H50.8858H51.2529C51.5834 43.9556 51.9872 43.9556 52.3911 43.8822C52.6481 43.8455 52.9051 43.7353 53.1253 43.5885C53.3456 43.4416 53.5292 43.258 53.676 43.0378C53.8229 42.8175 53.8963 42.5238 53.8963 42.1933C53.8596 41.6793 53.676 41.3122 53.3456 41.0552ZM50.9959 40.1741C50.9959 39.9171 50.9959 39.6601 50.9959 39.4031L51.0327 38.8157H51.1061C51.2897 38.779 51.6201 38.779 51.8771 38.8524C52.0239 38.8891 52.1341 38.9258 52.2075 38.9625C52.2809 38.9992 52.3911 39.1094 52.4278 39.1828C52.5012 39.2929 52.5012 39.4031 52.5012 39.5867C52.5012 39.7702 52.4645 39.9171 52.3911 40.0272C52.3176 40.1374 52.2442 40.2475 52.0974 40.3209C51.9872 40.3944 51.8404 40.4678 51.6568 40.4678C51.4732 40.5045 51.3264 40.5045 51.1428 40.5045H50.9225L50.9959 40.1741ZM52.6113 42.6706C52.5379 42.8175 52.4645 42.9276 52.3911 43.0378C52.2809 43.1479 52.1708 43.1846 52.0606 43.258C51.8036 43.3682 51.5099 43.3315 51.2162 43.3315C51.1428 43.3315 51.1061 43.3315 51.0327 43.3315L50.9959 42.7073C50.9959 42.4503 50.9959 42.1933 50.9959 41.8996V41.2755H51.1428C51.3998 41.2755 51.6201 41.2755 51.8404 41.3122C52.0239 41.3489 52.2075 41.3856 52.3176 41.4591C52.4278 41.5325 52.5379 41.6059 52.6113 41.7161C52.6848 41.8262 52.7215 41.9731 52.7215 42.1933C52.6848 42.3769 52.6848 42.5238 52.6113 42.6706Z" fill="#1A1E22"/>
<path d="M60.2456 43.5886C60.2456 43.5518 60.2456 43.5151 60.2824 43.405L60.3558 43.1113L60.0621 43.148C59.6582 43.1847 59.2911 43.2214 58.9607 43.2214C58.667 43.2214 58.3732 43.2214 58.0795 43.2214C58.0795 42.891 58.0795 42.5238 58.0795 42.0833C58.0795 41.606 58.0795 41.0186 58.0795 40.321C58.0795 39.9906 58.0795 39.6235 58.1162 39.293C58.1162 38.9626 58.153 38.5955 58.153 38.2651V38.0081L57.896 38.0448C57.8225 38.0448 57.7491 38.0815 57.7124 38.0815C57.6023 38.0815 57.4921 38.0815 57.382 38.0815C57.3085 38.0815 57.2351 38.0448 57.1984 38.0448L56.9414 38.0081V38.2651C56.9414 38.6322 56.9781 38.9626 56.9781 39.293C56.9781 39.6235 57.0148 39.9906 57.0148 40.321V41.7161C57.0148 42.0466 57.0148 42.4137 56.9781 42.7441C56.9781 43.0746 56.9414 43.405 56.9414 43.7354V43.9557H57.1617H57.896H59.3645H60.0988H60.3925L60.3191 43.662C60.2824 43.662 60.2456 43.6253 60.2456 43.5886Z" fill="#1A1E22"/>
<path d="M66.6011 43.4048L66.6745 43.0744L66.3441 43.1478C66.234 43.1845 66.0871 43.1845 65.9035 43.1845C65.72 43.1845 65.5364 43.2212 65.3528 43.2212C65.1693 43.2212 64.949 43.2212 64.7654 43.2212H64.3983C64.3983 43.1478 64.3983 43.0744 64.3983 42.9642C64.3983 42.7807 64.3983 42.5237 64.3983 42.23V41.4223C64.3983 41.3488 64.3983 41.3121 64.3983 41.2754H64.5819H65.0958C65.2794 41.2754 65.463 41.2754 65.6466 41.3121C65.8301 41.3121 65.977 41.3488 66.1238 41.3488L66.4175 41.3855L66.3808 41.0918C66.3808 41.0184 66.3441 40.945 66.3441 40.8715C66.3441 40.7981 66.3441 40.7247 66.3808 40.6513L66.4175 40.3943L66.1605 40.431C66.0504 40.431 65.9403 40.4677 65.7934 40.4677C65.6466 40.4677 65.5364 40.4677 65.3528 40.5044C65.1693 40.5411 65.0224 40.5044 64.8389 40.5411C64.692 40.5411 64.5819 40.5411 64.435 40.5411V40.2841C64.435 40.1006 64.435 39.8803 64.435 39.6967C64.435 39.5131 64.435 39.3296 64.435 39.1827C64.435 39.0726 64.435 38.9991 64.435 38.889H64.9123C65.0958 38.889 65.2794 38.9257 65.4263 38.9257C65.5731 38.9257 65.72 38.9624 65.8668 38.9624C66.0137 38.9624 66.1605 38.9991 66.3441 38.9991H66.6011L66.5644 38.7421C66.5644 38.6687 66.5277 38.5953 66.5277 38.5219C66.5277 38.4484 66.5277 38.375 66.5644 38.3383L66.6011 38.0813H66.3441C66.1238 38.0813 65.8668 38.118 65.6466 38.118C65.1693 38.118 64.692 38.118 64.2147 38.118C63.9944 38.118 63.7374 38.0813 63.5172 38.0813H63.2969V38.3016C63.2969 38.632 63.3336 38.9991 63.3336 39.3296C63.3336 39.66 63.3703 40.0271 63.3703 40.3576V41.7527C63.3703 42.0831 63.3703 42.4502 63.3336 42.7807C63.3336 43.1111 63.2969 43.4782 63.2969 43.8087V44.0289H63.5172H64.2514H65.72H66.4175H66.7113L66.6378 43.7352C66.6378 43.6985 66.6378 43.6618 66.6378 43.5884C66.6378 43.5517 66.6378 43.5149 66.6378 43.4782C66.6011 43.4415 66.6011 43.4415 66.6011 43.4048Z" fill="#1A1E22"/>
<path d="M79.373 43.4049L79.4831 43.0744L79.1527 43.1479C79.0426 43.1846 78.8957 43.1846 78.7121 43.1846C78.5286 43.1846 78.345 43.2213 78.1614 43.2213C77.9779 43.2213 77.7943 43.2213 77.574 43.2213H77.2069C77.2069 43.1479 77.2069 43.0744 77.2069 42.9643C77.2069 42.7807 77.2069 42.5237 77.2069 42.23V41.4223C77.2069 41.3489 77.2069 41.3122 77.2069 41.2755H77.3905H77.9044C78.088 41.2755 78.2716 41.2755 78.4551 41.3122C78.6387 41.3122 78.7856 41.3489 78.9324 41.3489L79.2261 41.3856L79.1894 41.0919C79.1894 41.0185 79.1894 40.945 79.1894 40.9083C79.1894 40.8349 79.1894 40.7615 79.2261 40.688L79.2629 40.431L79.0059 40.4678C78.8957 40.4678 78.7856 40.5045 78.6387 40.5045C78.4919 40.5045 78.3817 40.5045 78.1982 40.5412C78.0146 40.5779 77.8677 40.5412 77.6842 40.5779C77.5373 40.5779 77.4272 40.5779 77.2436 40.5779V40.3209C77.2436 40.1373 77.2436 39.917 77.2436 39.7335C77.2436 39.5499 77.2436 39.3663 77.2436 39.2195C77.2436 39.1093 77.2436 39.0359 77.2436 38.9258H77.7209C77.9044 38.9258 78.088 38.9625 78.2349 38.9625C78.3817 38.9625 78.5286 38.9992 78.6754 38.9992C78.8223 38.9992 78.9691 39.0359 79.1527 39.0359H79.4097L79.373 38.7789C79.373 38.7055 79.373 38.6321 79.373 38.5953C79.373 38.5219 79.373 38.4485 79.373 38.4118L79.4097 38.1548H79.1527C78.9324 38.1548 78.6754 38.1915 78.4551 38.1915C77.9779 38.1915 77.5373 38.1915 77.0233 38.1915C76.803 38.1915 76.546 38.1548 76.3258 38.1548H76.1055V38.3751C76.1055 38.7055 76.1422 39.0726 76.1422 39.4031C76.1422 39.7335 76.1422 40.1006 76.1422 40.431V41.8262V42.8541C76.1422 43.1846 76.1055 43.5517 76.1055 43.8821V44.1024H76.3258H77.06H78.5286H79.2261H79.5198L79.4464 43.8087C79.4464 43.772 79.4464 43.7353 79.4464 43.6619C79.4464 43.6251 79.4464 43.5884 79.4464 43.5517C79.373 43.4416 79.373 43.4049 79.373 43.4049Z" fill="#1A1E22"/>
<path d="M86.3877 38.1551C86.3509 38.1551 86.2775 38.1551 86.1307 38.1184L85.9838 38.0817L85.9104 38.2285C85.8002 38.4488 85.6901 38.7058 85.5799 38.9261C85.4698 39.1831 85.323 39.4034 85.2128 39.6236C85.066 39.8439 84.9558 40.1009 84.809 40.3212C84.7355 40.4314 84.6621 40.5415 84.6254 40.6516C84.4051 40.2845 84.2215 39.9174 84.0013 39.5502C83.7443 39.1097 83.524 38.6324 83.267 38.1918L83.1936 38.045L83.0467 38.0817C82.9733 38.0817 82.8998 38.1184 82.8264 38.1184C82.6796 38.1184 82.5694 38.1184 82.4226 38.1184C82.3491 38.1184 82.2757 38.0817 82.2023 38.0817L81.7617 38.0082L81.982 38.3754C82.0187 38.4488 82.1289 38.5957 82.2023 38.7425L83.3404 40.6516C83.4506 40.8719 83.5607 41.0555 83.6708 41.2391C83.7443 41.3859 83.8177 41.496 83.8911 41.5695V42.7443C83.8911 43.1482 83.8544 43.4786 83.8544 43.7356L83.8177 43.9926L84.0747 43.9559C84.295 43.9192 84.5887 43.9192 84.809 43.9559L85.066 43.9926L85.0292 43.7356C85.0292 43.6254 85.0293 43.4786 84.9925 43.295C84.9925 43.1115 84.9925 42.9279 84.9925 42.7076C84.9925 42.4873 84.9925 42.267 84.9925 42.0468C84.9925 41.8265 84.9925 41.6429 84.9925 41.4593C85.066 41.3125 85.1761 41.1289 85.2862 40.9453C85.3964 40.7251 85.5432 40.5048 85.6901 40.2478C85.837 39.9908 86.0205 39.6971 86.2408 39.4034C86.4244 39.0729 86.6814 38.7425 86.9384 38.3387L87.1954 37.9348L86.7181 38.045C86.4978 38.1184 86.4244 38.1551 86.3877 38.1551Z" fill="#1A1E22"/>
<path d="M93.0707 43.4049L93.1441 43.0745L92.8137 43.148C92.7035 43.1847 92.5567 43.1847 92.3731 43.1847C92.1895 43.1847 92.006 43.2214 91.8224 43.2214C91.6388 43.2214 91.4553 43.2214 91.235 43.2214H90.8678C90.8678 43.1479 90.8678 43.0745 90.8678 42.9644C90.8678 42.7808 90.8678 42.5238 90.8678 42.2301V41.4224C90.8678 41.349 90.8678 41.3123 90.8678 41.2755H91.0514H91.5654C91.749 41.2755 91.9325 41.2755 92.1161 41.3123C92.2997 41.3123 92.4465 41.349 92.5934 41.349L92.8871 41.3857L92.8504 41.092C92.8504 41.0185 92.8504 40.9451 92.8504 40.9084C92.8504 40.835 92.8504 40.7616 92.8871 40.6881L92.9238 40.4311L92.6668 40.4678C92.5567 40.4678 92.4465 40.5046 92.2997 40.5046C92.1528 40.5046 92.0427 40.5046 91.8591 40.5413C91.6755 40.578 91.5287 40.5413 91.3451 40.578C91.1983 40.578 91.0881 40.578 90.9413 40.578V40.321C90.9413 40.1374 90.9413 39.9171 90.9413 39.7336C90.9413 39.55 90.9413 39.3664 90.9413 39.2196C90.9413 39.1094 90.9413 39.036 90.9413 38.9259H91.4185C91.6021 38.9259 91.7857 38.9626 91.9325 38.9626C92.0794 38.9626 92.2262 38.9993 92.3731 38.9993C92.5199 38.9993 92.6668 39.036 92.8504 39.036H93.1074L93.0707 38.779C93.0707 38.7056 93.0707 38.6322 93.0707 38.5954C93.0707 38.522 93.0707 38.4486 93.1074 38.3752L93.1441 38.1182H92.8871C92.6668 38.1182 92.4098 38.1549 92.1895 38.1549C91.7122 38.1549 91.2717 38.1549 90.7577 38.1549C90.5374 38.1549 90.2804 38.1182 90.0601 38.1182H89.8398V38.3384C89.8398 38.6689 89.8766 39.036 89.8766 39.3664C89.8766 39.6969 89.8766 40.064 89.8766 40.3944V41.7895V42.8175C89.8766 43.1479 89.8398 43.5151 89.8398 43.8455V44.0658H90.0601H90.7944H92.263H92.9605H93.2542L93.1808 43.7721C93.1808 43.7354 93.1808 43.6987 93.1808 43.6252C93.1808 43.5885 93.1808 43.5518 93.1808 43.5151C93.0707 43.4417 93.0707 43.4417 93.0707 43.4049Z" fill="#1A1E22"/>
<path d="M103.389 38.1181C103.315 38.1181 103.242 38.1181 103.168 38.1181C103.132 38.1181 103.095 38.1181 103.022 38.0814L102.838 38.0447L102.801 38.2282C102.765 38.3384 102.728 38.522 102.654 38.7422C102.581 38.9992 102.508 39.2562 102.397 39.5867C102.287 39.9171 102.214 40.2108 102.104 40.5779C101.994 40.9084 101.883 41.2388 101.81 41.5692L101.553 42.3769C101.48 42.1199 101.37 41.8629 101.259 41.5692L100.929 40.6146C100.819 40.2842 100.709 39.9538 100.635 39.6601C100.525 39.3664 100.452 39.0727 100.378 38.8157C100.305 38.5587 100.231 38.3751 100.195 38.2282L100.158 38.0447L99.9744 38.0814C99.8642 38.1181 99.7908 38.1181 99.7541 38.1181C99.7174 38.1181 99.644 38.1181 99.5338 38.0814L99.3502 38.0447L99.3135 38.2282C99.2768 38.3751 99.2401 38.5587 99.1667 38.779C99.0932 39.0359 99.0198 39.293 98.9097 39.5867C98.7995 39.8804 98.7261 40.2108 98.5793 40.5412C98.4691 40.8716 98.359 41.2021 98.2488 41.4958C98.1387 41.7895 98.0653 42.0832 97.9551 42.3402V42.3769C97.8817 42.0832 97.7715 41.8262 97.6981 41.5692C97.588 41.1654 97.4411 40.7982 97.331 40.4311C97.2208 40.0639 97.1107 39.6968 97.0373 39.3664C96.9271 38.9992 96.8537 38.6321 96.7436 38.2282L96.7069 38.0447L96.5233 38.0814C96.4499 38.0814 96.3764 38.1181 96.3397 38.1181C96.2296 38.1181 96.1194 38.1181 95.9726 38.1181C95.8992 38.1181 95.8257 38.0814 95.789 38.0814L95.4219 38.0447L95.532 38.3751C95.5687 38.522 95.6422 38.7055 95.7523 38.9992C95.8624 39.2929 95.9359 39.6234 96.046 39.9538L97.0373 43.2213C97.1107 43.515 97.1841 43.7353 97.2208 43.8455L97.2576 43.9923L97.4411 43.9556C97.588 43.9189 97.8083 43.9189 97.9551 43.9556L98.1387 43.9923L98.1754 43.8455C98.2488 43.6252 98.359 43.3315 98.4324 43.0745C98.5058 42.8175 98.616 42.487 98.7261 42.1933C98.8363 41.8996 98.9097 41.6059 99.0198 41.3122L99.3135 40.5045C99.387 40.2842 99.4604 40.0639 99.5338 39.8437C99.7174 40.4311 99.9377 41.0552 100.121 41.6426C100.342 42.3769 100.599 43.1479 100.819 43.8822L100.856 44.029L101.039 43.9923C101.186 43.9556 101.37 43.9556 101.553 43.9923L101.7 44.029L101.737 43.8822C101.773 43.7353 101.847 43.5517 101.957 43.258C102.067 42.9643 102.177 42.6339 102.287 42.2668C102.397 41.8996 102.544 41.4958 102.691 41.1286C102.838 40.7248 102.948 40.3576 103.095 39.9905C103.205 39.6234 103.315 39.293 103.425 39.036C103.536 38.7422 103.609 38.5587 103.646 38.4485L103.793 38.0814L103.389 38.1548C103.499 38.1181 103.462 38.1181 103.389 38.1181Z" fill="#1A1E22"/>
<path d="M109.739 43.4049L109.849 43.0744L109.518 43.1479C109.408 43.1846 109.261 43.1846 109.078 43.1846C108.894 43.1846 108.711 43.2213 108.527 43.2213C108.344 43.2213 108.16 43.2213 107.94 43.2213H107.573C107.573 43.1479 107.573 43.0744 107.573 42.9643C107.573 42.7807 107.573 42.5237 107.573 42.23V41.4223C107.573 41.3489 107.573 41.3122 107.573 41.2755H107.756H108.27C108.454 41.2755 108.637 41.2755 108.821 41.3122C109.004 41.3122 109.151 41.3489 109.298 41.3489L109.592 41.3856L109.555 41.0919C109.555 41.0185 109.555 40.945 109.555 40.9083C109.555 40.8349 109.555 40.7615 109.592 40.688L109.628 40.431L109.371 40.4678C109.261 40.4678 109.151 40.5045 109.004 40.5045C108.858 40.5045 108.747 40.5045 108.564 40.5412C108.38 40.5779 108.233 40.5412 108.05 40.5779C107.903 40.5779 107.793 40.5779 107.646 40.5779C107.646 40.5045 107.646 40.431 107.646 40.3209C107.646 40.1373 107.646 39.917 107.646 39.7335C107.646 39.5499 107.646 39.3663 107.646 39.2195C107.646 39.1093 107.646 39.0359 107.646 38.9258H108.123C108.307 38.9258 108.49 38.9625 108.637 38.9625L109.078 38.9992C109.225 38.9992 109.371 39.0359 109.555 39.0359H109.812L109.775 38.7789C109.775 38.7055 109.775 38.6321 109.775 38.5953C109.775 38.5219 109.775 38.4485 109.775 38.4118L109.812 38.1548H109.555C109.335 38.1548 109.078 38.1915 108.858 38.1915C108.38 38.1915 107.94 38.1915 107.426 38.1915C107.205 38.1915 106.948 38.1548 106.728 38.1548H106.508V38.3751C106.508 38.7055 106.545 39.0726 106.545 39.4031C106.545 39.7335 106.545 40.1006 106.545 40.431V41.8262V42.8541C106.545 43.1846 106.508 43.5517 106.508 43.8821V44.1024H106.728H107.462H108.931H109.628H109.922L109.849 43.8087C109.849 43.772 109.849 43.7353 109.849 43.6619C109.849 43.6251 109.849 43.5884 109.849 43.5517C109.739 43.4416 109.739 43.4049 109.739 43.4049Z" fill="#1A1E22"/>
<path d="M117.228 43.1482C117.118 42.8912 117.008 42.6342 116.861 42.3038C116.714 41.9733 116.567 41.6429 116.42 41.2758C116.274 40.9086 116.127 40.5415 115.943 40.1744C115.796 39.8072 115.649 39.4401 115.503 39.0729L115.025 37.9348H114.622L114.585 38.045C114.181 38.9995 113.74 39.9174 113.337 40.8719C112.933 41.7898 112.492 42.7076 112.088 43.6622L111.941 43.9926L112.309 43.9559C112.455 43.9192 112.676 43.9192 112.859 43.9559L113.043 43.9926L113.08 43.809C113.153 43.552 113.263 43.2583 113.373 42.8912C113.483 42.5608 113.63 42.1936 113.777 41.8265H114.144H115.172H115.539C115.576 41.9733 115.649 42.1202 115.723 42.267L115.943 42.8545C116.017 43.038 116.09 43.2216 116.163 43.4052C116.237 43.552 116.274 43.7356 116.31 43.8457L116.347 43.9926L116.531 43.9559H116.714H117.155H117.338L117.742 44.0293L117.559 43.6622C117.412 43.5887 117.338 43.4052 117.228 43.1482ZM115.062 41.1289C114.732 41.1289 114.475 41.1289 114.181 41.1289C114.144 41.1289 114.108 41.1289 114.034 41.1289L114.585 39.8072L115.172 41.1289C115.172 41.1289 115.099 41.1289 115.062 41.1289Z" fill="#1A1E22"/>
<path d="M123.874 43.3314C123.764 43.1845 123.617 43.0377 123.47 42.8541C123.323 42.6705 123.176 42.487 123.029 42.3034C122.882 42.1198 122.736 41.9362 122.589 41.7527C122.442 41.5691 122.332 41.4223 122.222 41.2754L122.148 41.202C122.222 41.1653 122.295 41.1653 122.368 41.1285C122.589 41.0551 122.772 40.945 122.956 40.8348C123.139 40.688 123.286 40.5411 123.433 40.3208C123.58 40.1006 123.617 39.8436 123.617 39.5498C123.617 39.2929 123.58 39.0359 123.47 38.8523C123.36 38.6687 123.213 38.5219 123.029 38.4117C122.846 38.3016 122.662 38.2282 122.442 38.1547C122.038 38.0813 121.597 38.0813 121.304 38.118C121.047 38.1547 120.753 38.1547 120.423 38.118C120.276 38.118 120.129 38.0813 119.982 38.0813H119.762V38.3016C119.762 38.6687 119.798 38.9991 119.798 39.3296V40.3576V41.7527V42.7807C119.798 43.1111 119.762 43.4415 119.762 43.7719V43.9922L119.982 43.9555C120.202 43.9188 120.496 43.9188 120.716 43.9555L120.937 43.9922V43.7719C120.937 43.4415 120.9 43.1111 120.9 42.7807C120.9 42.4502 120.9 42.0831 120.9 41.7527V41.3855C121.047 41.5324 121.23 41.716 121.377 41.973C121.561 42.23 121.781 42.487 121.965 42.7439C122.148 43.0009 122.332 43.2579 122.515 43.4415L122.956 44.0289L123.066 43.9922H123.25H123.727H123.947L124.535 44.0656L124.094 43.6251C124.094 43.5884 124.021 43.4782 123.874 43.3314ZM121.708 40.6145C121.487 40.6513 121.23 40.688 120.973 40.6513H120.937V40.3576C120.937 40.0638 120.937 39.7701 120.937 39.5131L120.973 38.8156H121.12C121.304 38.8156 121.634 38.7789 121.965 38.8523C122.075 38.889 122.185 38.9257 122.295 38.9991C122.405 39.0726 122.479 39.146 122.515 39.2561C122.589 39.3663 122.589 39.5131 122.589 39.66C122.589 39.8803 122.552 40.0271 122.479 40.1373C122.405 40.2841 122.295 40.3576 122.185 40.4677C122.001 40.5411 121.854 40.5778 121.708 40.6145Z" fill="#1A1E22"/>
<path d="M37.7773 3.57059H41.7424V23.6897H37.7773V26.6636H49.1953V23.6897H44.9365V3.57059H49.232V0.560059H37.7773V3.57059Z" fill="#1A1E22"/>
</g>
<defs>
<clipPath id="clip0">
<rect width="124.607" height="43.5792" fill="white" transform="translate(0 0.560059)"/>
</clipPath>
</defs>
</svg>
