<svg xmlns="http://www.w3.org/2000/svg" viewBox="0 0 600.1 275.22"><defs><style>.cls-1{fill:#1a1e22;}</style></defs><g id="Layer_2" data-name="Layer 2"><g id="layer"><path class="cls-1" d="M526.6,80.6a48.88,48.88,0,0,0-6.8,1.6c-1.7.5-3.8,1.2-3.8,4.5,0,0-.1,2-.2,5.3-1.5,20.1-9,30.2-13.5,34.7,0-32.8-10.5-41.9-23.9-41.9-12.5,0-18.5,8.3-21.8,14.9a151.32,151.32,0,0,1-9,16,75.18,75.18,0,0,1-11.9,13.7c0-32.8-10.5-44.6-23.9-44.6-10.2,0-18.4,6.5-22.4,19.4-5.2,4-11.2,25-11.2,46.2,0,32.7,17.6,40.7,26.3,40.7,24.7,0,31.2-37.5,31.2-51.1a98.58,98.58,0,0,0,10.8-9.8,119.65,119.65,0,0,0-1.7,20.2c0,32.7,17.6,40.7,26.3,40.7,24.7,0,31.2-36.4,31.2-51.1,3-2.4,10.8-11.6,12.3-16.1-.7,19.4-1.4,41.1-1.4,46.4,0,10.7-.8,25.6-1.7,37.6-1.5,20.9-1.8,42.1-.3,52.5a17.64,17.64,0,0,0,4.6,10c2.5,2.7,4.9,4.4,7.5,4.7a2.68,2.68,0,0,0,3-3.1c-.5-4.5-1.6-13.8-1.6-36.6,0-23.9,1.1-53.4,1.1-53.4s5.9,8.9,14.3,8.9,15.9-6.1,21.1-18c4.4-10,7.3-23.9,8.3-39.1,1.1-17.3-1.4-36.8-7.1-43.9a13.06,13.06,0,0,0-13.1-4.8c-7.9,1.8-16.2,17.4-21.9,28.2,0,0,2.4-24.6,2.6-29.3a2.91,2.91,0,0,0-3.4-3.4ZM406.1,177.4c-5.7,0-16.2-5.3-16.2-28a149.27,149.27,0,0,1,1.6-21.5c3.9,16.8,18.4,25.8,32.4,18.3,0,14.1-7.4,31.2-17.8,31.2Zm9.9-39.6c-7.4,0-16.5-10.1-16.5-23.8,0-12.7,9.2-18.8,14.7-16.5,8.2,3.5,10.5,20.4,10.5,37.5C424.4,135.5,420.9,137.8,416,137.8Zm56.6,39.6c-5.7,0-16.2-5.3-16.2-28a149.27,149.27,0,0,1,1.6-21.5c3.9,16.8,18.4,24.2,32.4,16.7C490.5,158.7,483,177.4,472.6,177.4Zm10-40.8c-7.4,0-16.5-8.8-16.5-22.6,0-12.7,9.2-18.8,14.7-16.5,9.7,4,10.4,21.9,10.8,35.7a14.57,14.57,0,0,1-9,3.4Zm67.8-35.1c7.1,0,5.6,29.1,4.3,41.6s-8.3,33.6-18.2,33.6c-7.5,0-10.1-7-10.1-13.1,0-7.3.4-23.9.7-31.9,8-14.2,18.3-30.2,23.3-30.2ZM348.1,262c-17.7,0-29-22.2-34-31a18,18,0,0,0-2.9-4.3c-2.7-2.7-7.7-3.3-11.4-3.3s-4.2,2-4.1,3.2c1.8,16,22.7,46.2,47.3,46.2,24.1,0,26.3-18.9,26.3-65.1V146.5c0-7.5.9-26,1.4-31.8a280.2,280.2,0,0,1,4-29.4c.6-3.1.9-5.4-2.1-5.2a28.66,28.66,0,0,0-6.5,1.2,5,5,0,0,0-3.6,3.9A87.39,87.39,0,0,0,361,95c-2.1-4.5-5.2-8-9.9-9.3a18.46,18.46,0,0,0-9.1-.2c-1.1.2-7.1.8-13.2,8.3-10.3,12.8-13,33-13.5,51.4-1.3,43,16.2,45.9,22.4,45.9,13.6,0,18.5-16.6,18.5-16.6s.3,6,.3,35.8S356,262,348.1,262ZM356,146.1c-1.2,11.8-7.9,30.8-15.8,30.8s-11.4-15.3-10.8-35.9c.6-19.8,6.8-42.6,19-42.6,10.7,0,9.3,21.4,9.2,27.2-.3,6.5-1,14.8-1.6,20.5ZM590.5,157c2.1.2,3-.8,3-3l4.9-136.2a3.27,3.27,0,0,0-4.1-3,64.57,64.57,0,0,0-8.1,3c-3.4,1.5-4.7,3.2-4.7,8.3l2,119.8c0,4.1.4,6.5,2,8.2a9.29,9.29,0,0,0,5,2.9ZM95,88.7c.1-2-.8-2.9-2.8-2.7s-7,1.4-7.8,1.6a5.37,5.37,0,0,0-2.3,1,3.77,3.77,0,0,0-1,2.4c-.8,7.2-1.1,25-1.7,41.2-.5,13.6-1.1,20.1-1.1,35.4,0,14.1,5.4,23.5,15.8,23.5,11.2,0,19-13.2,19-13.2.1,3.7,2.8,16.3,10.4,16.3,2,0,3.7-.8,3.6-2.8h0c-.2-8.4-.4-21.4-.2-31.3.9-17.8,2.3-43.3,3.7-63.3,0,0,.5-8.4.6-9.6.1-2.1-.7-3.7-3-3.5-2.1.2-5.5.7-6.4.9-2.3.5-3.6,1.2-3.8,3.7-.3,3.5-1.6,22.5-2.6,36.2-1.2,15.4-2.1,26.4-2.9,37.7-2.6,8.9-8.7,13.5-14.9,13.4-9.3-.2-6.8-19.7-5.9-34.8C92.5,125.3,94.9,92.7,95,88.7ZM12.7,141.9c0-3-.3-4.2-3.4-4.2-.9,0-3.5-.3-5.7,4-3,6-3.6,14.7-3.6,20.9,0,21.1,15.3,36.7,36.7,36.7,10.6,0,34.3-7.3,34.3-34.8,0-25.7-25.2-42.3-33.6-50.8S22.6,97.4,22.6,72.1C22.6,52.3,29.8,16,42.7,16c20.1,0,15.5,60,10.8,74-.4,1.1-.7,2.6.1,3.3,1,.8,2.9.7,4.9.1a8.66,8.66,0,0,0,6.1-5.6c4.7-13.7,4.7-35.2,4.7-47.4C69.3,12.2,56.6,0,44.7,0,14.3,0,9.6,63.9,9.9,79.2c.2,14.3,1.1,26.1,9.1,37.7,10.1,14.7,38.4,24.8,38.4,49.3,0,7.9-8,17.2-19.5,17.2-24.1,0-26-26.7-25.8-33.6.2-3.7.6-5.7.6-7.9Zm141-61.3a48.88,48.88,0,0,0-6.8,1.6c-1.7.5-3.8,1.2-3.8,4.5,0,0-2.8,73-2.8,83.7s-.8,25.6-1.7,37.6c-1.5,20.9-1.8,42.1-.4,52.5a17.64,17.64,0,0,0,4.6,10c2.5,2.7,4.9,4.4,7.5,4.7a2.68,2.68,0,0,0,3-3.1c-.5-4.5-1.6-13.8-1.6-36.6,0-23.9,1.1-53.4,1.1-53.4s5.9,8.9,14.3,8.9,15.9-6.1,21.1-18c4.4-10,7.3-23.9,8.3-39.1,1.1-17.3-1.4-36.8-7.1-43.9a13.06,13.06,0,0,0-13.1-4.8c-7.9,1.8-16.1,16.1-21.9,25.6.4-7.4,2.4-22,2.6-26.8a2.81,2.81,0,0,0-3.3-3.4Zm23.8,20.9c7.1,0,5.6,29.1,4.3,41.6s-8.3,33.6-18.2,33.6c-7.5,0-10.1-7-10.1-13.1,0-7.3.4-23.9.7-31.9,8-14.2,18.3-30.2,23.3-30.2Zm77.3,10.4c1.2-14.9-3-28.8-16.7-28.8-12.1,0-20.7,9.2-26.7,22.6-5.4,12.2-8.7,32.7-8.7,47.6,0,16.6,3.3,37.8,24.1,37.8,17.1,0,28.5-16,35.8-27.8-.1,4.2-.2,11.4-.2,13.9s-1.4,11.9,11.7,16.1a2.63,2.63,0,0,0,3.4-1.8,3.08,3.08,0,0,0,.1-1h0c-.8-19.6-.9-36.2-.5-50.5,3.5-7.2,21.4-36.8,21.4-36.8s-.5,5.7-.4,9.4a7.55,7.55,0,0,0,2.6,5.8A13,13,0,0,0,309,121a2.37,2.37,0,0,0,2.4-2.4,155.44,155.44,0,0,1,1.2-16.9c.8-6.9,2.1-14.4,2-15.5,0-.5-.5-.9-1.2-1.3-2.3-1-10.2-1.7-13.8,1.8-3.1,3.1-14.9,20.3-21.1,30.6,1.4-13.6,2.9-23.2,4.6-32.3a4,4,0,0,0-.4-3.1,2.69,2.69,0,0,0-2.6-1.1c-1.1.1-5.5.9-7.4,1.4s-3,1.2-3.2,2.8c-.9,6.9-1.6,10.8-4.3,41s-24.5,50.9-36.1,50.9-13.5-11.6-13.5-24.5a21.2,21.2,0,0,0,4.3.6c22.1.1,33.8-27.1,34.9-41.1Zm-31.5-3.3c4.3-9.8,10.9-15,14.7-13.3,4,1.8,4.7,9,4,16.5-1.2,12.8-9.9,28.9-21.3,28.9a20.15,20.15,0,0,1-4.6-.4C216.1,129.6,220.2,115.6,223.3,108.6Z"/><ellipse class="cls-1" cx="588" cy="180.6" rx="12.1" ry="12.2"/></g></g></svg>