<svg width="14" height="10" viewBox="0 0 14 10" fill="none" xmlns="http://www.w3.org/2000/svg">
<path fill-rule="evenodd" clip-rule="evenodd" d="M10.7501 8.8H13.7501C13.1501 7.1 11.5001 5.9 9.60005 5.9C9.05005 5.9 8.55005 6 8.05005 6.2C9.20005 6.75 10.1501 7.7 10.7501 8.8Z" fill="#1A1E22"/>
<path fill-rule="evenodd" clip-rule="evenodd" d="M9.64995 5.2C9.19995 5.2 8.79995 5.1 8.44995 4.9C8.84995 4.3 9.04995 3.6 9.04995 2.85C9.04995 2.1 8.84995 1.4 8.44995 0.8C8.79995 0.6 9.19995 0.5 9.64995 0.5C10.95 0.5 12 1.55 12 2.85C12 4.15 10.95 5.2 9.64995 5.2Z" fill="#1A1E22"/>
<path d="M5.2 5.7C6.774 5.7 8.05 4.424 8.05 2.85C8.05 1.27599 6.774 0 5.2 0C3.62597 0 2.34998 1.27599 2.34998 2.85C2.34998 4.424 3.62597 5.7 5.2 5.7Z" fill="#1A1E22"/>
<path fill-rule="evenodd" clip-rule="evenodd" d="M5.19995 6.5C2.89995 6.5 0.949951 7.95 0.199951 10H10.2C9.44995 7.95 7.49995 6.5 5.19995 6.5Z" fill="#1A1E22"/>
</svg>
