<svg width="14" height="14" viewBox="0 0 14 14" fill="none" xmlns="http://www.w3.org/2000/svg">
<path fill-rule="evenodd" clip-rule="evenodd" d="M9.66625 6.3675L7.54778 4.24902L0.4375 11.3593L2.55597 13.4778L9.66625 6.3675ZM6.89325 7.72629L8.25204 6.3675L7.54778 5.66324L6.18899 7.02203L6.89325 7.72629Z" fill="#1A1E22"/>
<path d="M10.998 0.477539C11.1932 1.73513 12.1798 2.72178 13.4374 2.91696C12.1798 3.11214 11.1932 4.09879 10.998 5.35638C10.8028 4.09879 9.81618 3.11214 8.55859 2.91696C9.81618 2.72178 10.8028 1.73513 10.998 0.477539Z" fill="#1A1E22"/>
<path d="M5.47314 0.477539C5.62316 1.44415 6.38153 2.20252 7.34814 2.35254C6.38153 2.50256 5.62316 3.26092 5.47314 4.22754C5.32312 3.26092 4.56476 2.50256 3.59814 2.35254C4.56476 2.20252 5.32312 1.44415 5.47314 0.477539Z" fill="#1A1E22"/>
<path d="M11.8125 6.396C11.9425 7.23373 12.5998 7.89098 13.4375 8.021C12.5998 8.15101 11.9425 8.80826 11.8125 9.646C11.6825 8.80826 11.0252 8.15101 10.1875 8.021C11.0252 7.89098 11.6825 7.23373 11.8125 6.396Z" fill="#1A1E22"/>
</svg>
