<svg width="10" height="12" viewBox="0 0 10 12" fill="none" xmlns="http://www.w3.org/2000/svg">
<path fill-rule="evenodd" clip-rule="evenodd" d="M7.75 1.1C6.65 0.85 5.65 0.45 5 0C4.35 0.45 3.35 0.85 2.25 1.1C1.45 1.25 0.65 1.35 0 1.3V5.3C0 7.45 1.05 9.4 2.8 10.55L5 12L7.2 10.55C8.95 9.4 10 7.4 10 5.3V1.3C9.3 1.35 8.55 1.25 7.75 1.1ZM5 2.25C6.15 2.25 7.1 3.2 7.1 4.35C7.1 5.5 6.15 6.45 5 6.45C3.85 6.45 2.9 5.5 2.9 4.35C2.9 3.2 3.85 2.25 5 2.25ZM6.65 9.7L5 10.8L3.35 9.7C2.9 9.4 2.5 9.05 2.2 8.65C2.9 7.95 3.9 7.5 5 7.5C6.1 7.5 7.1 7.95 7.8 8.65C7.45 9.05 7.1 9.4 6.65 9.7Z" fill="#1A1E22"/>
</svg>
