<svg width="12" height="12" viewBox="0 0 12 12" fill="none" xmlns="http://www.w3.org/2000/svg">
<path fill-rule="evenodd" clip-rule="evenodd" d="M6 0C2.7 0 0 2.7 0 6C0 7.85 0.8 9.45 2.1 10.55C3.15 11.45 4.5 12 6 12C7.5 12 8.85 11.45 9.9 10.55C11.2 9.45 12 7.8 12 6C12 2.7 9.3 0 6 0ZM6 2.25C7.15 2.25 8.1 3.2 8.1 4.35C8.1 5.5 7.15 6.45 6 6.45C4.85 6.45 3.9 5.5 3.9 4.35C3.9 3.2 4.85 2.25 6 2.25ZM6 11C4.65 11 3.4 10.45 2.5 9.55C3.2 8.3 4.5 7.5 6 7.5C7.5 7.5 8.8 8.35 9.5 9.55C8.6 10.45 7.35 11 6 11Z" fill="#1A1E22"/>
</svg>
