<svg width="12" height="12" viewBox="0 0 12 12" fill="none" xmlns="http://www.w3.org/2000/svg">
<path fill-rule="evenodd" clip-rule="evenodd" d="M12 5.99997C12 5.12565 11.813 4.29501 11.4768 3.54587C11.1783 3.8274 10.776 3.99997 10.3333 3.99997C9.61684 3.99997 9.00595 3.54786 8.77038 2.91336C8.35566 3.17917 7.8625 3.3333 7.33333 3.3333C5.86057 3.3333 4.66667 2.1394 4.66667 0.666637C4.66667 0.485281 4.68477 0.308154 4.71927 0.136963C2.0209 0.723664 0 3.12581 0 5.99997C0 9.31368 2.68629 12 6 12C9.31371 12 12 9.31368 12 5.99997ZM2.66667 3.99996H4V5.99996H2.66667V3.99996ZM3.48812 8.76428L4.43093 7.82147L5.84514 9.23569L4.90233 10.1785L3.48812 8.76428ZM7.23649 7.80497V6.47164H9.23649V7.80497H7.23649Z" fill="#1A1E22"/>
</svg>
