<svg width="12" height="14" viewBox="0 0 12 14" fill="none" xmlns="http://www.w3.org/2000/svg">
<path fill-rule="evenodd" clip-rule="evenodd" d="M12 1.99999H5.3535C5.05695 1.26719 4.33855 0.750244 3.4994 0.750244C2.66026 0.750244 1.94185 1.26719 1.64528 1.99999H0V3.49929H1.64528C1.94186 4.23209 2.66026 4.74904 3.4994 4.74904C4.33855 4.74904 5.0569 4.23209 5.3535 3.49929H12V1.99999ZM3.4994 3.24964C3.77555 3.24964 3.9994 3.02578 3.9994 2.74964C3.9994 2.4735 3.77555 2.24964 3.4994 2.24964C3.22325 2.24964 2.99939 2.4735 2.99939 2.74964C2.99939 3.02578 3.22325 3.24964 3.4994 3.24964Z" fill="#1A1E22"/>
<path fill-rule="evenodd" clip-rule="evenodd" d="M12 10.5006H5.3535C5.05695 9.76785 4.33855 9.25089 3.4994 9.25089C2.66026 9.25089 1.94185 9.76785 1.64528 10.5006H0V11.9999H1.64528C1.94186 12.7327 2.66026 13.2497 3.4994 13.2497C4.33855 13.2497 5.0569 12.7327 5.3535 11.9999H12V10.5006ZM3.4994 11.7503C3.77555 11.7503 3.9994 11.5264 3.9994 11.2503C3.9994 10.9741 3.77555 10.7503 3.4994 10.7503C3.22325 10.7503 2.99939 10.9741 2.99939 11.2503C2.99939 11.5264 3.22325 11.7503 3.4994 11.7503Z" fill="#1A1E22"/>
<path fill-rule="evenodd" clip-rule="evenodd" d="M2.5034e-05 7.74964H6.6465C6.94305 8.48244 7.66145 8.99939 8.5006 8.99939C9.33975 8.99939 10.0582 8.48244 10.3547 7.74964H12V6.25034H10.3547C10.0582 5.51754 9.33975 5.00064 8.5006 5.00064C7.66145 5.00064 6.9431 5.51754 6.6465 6.25034H2.5034e-05V7.74964ZM8.5006 6.49999C8.22445 6.49999 8.0006 6.72384 8.0006 6.99999C8.0006 7.27614 8.22445 7.49999 8.5006 7.49999C8.77675 7.49999 9.0006 7.27614 9.0006 6.99999C9.0006 6.72384 8.77675 6.49999 8.5006 6.49999Z" fill="#1A1E22"/>
</svg>
