<svg width="14" height="14" viewBox="0 0 14 14" fill="none" xmlns="http://www.w3.org/2000/svg">
<path fill-rule="evenodd" clip-rule="evenodd" d="M7.00016 1.66659C4.05464 1.66659 1.66683 4.0544 1.66683 6.99992C1.66683 9.94544 4.05464 12.3333 7.00016 12.3333C9.94568 12.3333 12.3335 9.94544 12.3335 6.99992C12.3335 4.0544 9.94568 1.66659 7.00016 1.66659ZM0.333496 6.99992C0.333496 3.31802 3.31826 0.333252 7.00016 0.333252C10.6821 0.333252 13.6668 3.31802 13.6668 6.99992C13.6668 10.6818 10.6821 13.6666 7.00016 13.6666C3.31826 13.6666 0.333496 10.6818 0.333496 6.99992Z" fill="#1A1E22"/>
<path fill-rule="evenodd" clip-rule="evenodd" d="M7.29915 0.404058C7.29915 0.404058 7.29831 0.403634 7.00016 0.999919C6.70202 1.5962 6.70123 1.59581 6.70123 1.59581L6.70051 1.59545L6.69923 1.5948L6.69738 1.59386L6.69639 1.59334L6.70511 1.59812C6.71545 1.60389 6.73463 1.61492 6.76141 1.63166C6.81502 1.66516 6.89882 1.72137 7.00303 1.80387C7.21135 1.96879 7.5008 2.23841 7.79434 2.64203C8.37557 3.44123 9.00016 4.80306 9.00016 6.99992C9.00016 9.19678 8.37557 10.5586 7.79434 11.3578C7.5008 11.7614 7.21135 12.0311 7.00303 12.196C6.89882 12.2785 6.81502 12.3347 6.76141 12.3682C6.73463 12.3849 6.71545 12.396 6.70511 12.4017L6.69643 12.4065L6.69738 12.406L6.69923 12.405L6.70051 12.4044L6.70124 12.404C6.70124 12.404 6.70202 12.4036 7.00016 12.9999C7.29831 13.5962 7.29915 13.5958 7.29915 13.5958L7.30006 13.5953L7.30206 13.5943L7.30681 13.5919L7.31919 13.5854C7.32871 13.5804 7.34074 13.5739 7.35511 13.5659C7.38384 13.5498 7.42195 13.5277 7.46808 13.4988C7.56031 13.4412 7.68484 13.3568 7.83063 13.2414C8.12231 13.0105 8.49953 12.6551 8.87265 12.142C9.62475 11.1079 10.3335 9.46973 10.3335 6.99992C10.3335 4.53011 9.62475 2.89194 8.87265 1.8578C8.49953 1.34476 8.12231 0.989384 7.83063 0.758471C7.68484 0.643053 7.56031 0.558636 7.46808 0.500993C7.42195 0.472161 7.38384 0.449988 7.35511 0.433948C7.34074 0.425927 7.32871 0.419434 7.31919 0.414405L7.30681 0.407949L7.30206 0.405527L7.30006 0.404515L7.29915 0.404058Z" fill="#1A1E22"/>
<path fill-rule="evenodd" clip-rule="evenodd" d="M6.70117 13.5958C6.70117 13.5958 6.70202 13.5962 7.00016 12.9999C7.29831 12.4036 7.29909 12.404 7.29909 12.404L7.29982 12.4044L7.30109 12.405L7.30294 12.406L7.30399 12.4065L7.29521 12.4017C7.28488 12.396 7.2657 12.3849 7.23891 12.3682C7.18531 12.3347 7.10151 12.2785 6.9973 12.196C6.78898 12.0311 6.49953 11.7614 6.20599 11.3578C5.62475 10.5586 5.00016 9.19678 5.00016 6.99992C5.00016 4.80306 5.62475 3.44123 6.20599 2.64203C6.49953 2.23841 6.78898 1.96879 6.9973 1.80387C7.10151 1.72137 7.18531 1.66516 7.23891 1.63166C7.2657 1.61492 7.28488 1.60389 7.29521 1.59812L7.30389 1.59337L7.30294 1.59386L7.30109 1.5948L7.29982 1.59545L7.29909 1.59581C7.29909 1.59581 7.29831 1.5962 7.00016 0.999919C6.70202 0.403634 6.70117 0.404058 6.70117 0.404058L6.70026 0.404514L6.69826 0.405527L6.69352 0.407949L6.68113 0.414405C6.67161 0.419435 6.65958 0.425926 6.64522 0.433949C6.61649 0.449988 6.57838 0.47216 6.53225 0.500993C6.44002 0.558636 6.31549 0.643052 6.16969 0.758471C5.87802 0.989384 5.50079 1.34476 5.12767 1.8578C4.37557 2.89194 3.66683 4.53011 3.66683 6.99992C3.66683 9.46973 4.37557 11.1079 5.12767 12.142C5.5008 12.6551 5.87802 13.0105 6.16969 13.2414C6.31549 13.3568 6.44002 13.4412 6.53225 13.4988C6.57838 13.5277 6.61649 13.5498 6.64522 13.5659C6.65958 13.5739 6.67161 13.5804 6.68113 13.5854L6.69352 13.5919L6.69826 13.5943L6.70117 13.5958Z" fill="#1A1E22"/>
<path d="M12.3335 4.33325V5.66659L1.66683 5.66659L1.66683 4.33325L12.3335 4.33325Z" fill="#1A1E22"/>
<path d="M12.3335 8.33325V9.66659H1.66683L1.66683 8.33325L12.3335 8.33325Z" fill="#1A1E22"/>
</svg>
