<svg width="13" height="12" viewBox="0 0 13 12" fill="none" xmlns="http://www.w3.org/2000/svg">
<path fill-rule="evenodd" clip-rule="evenodd" d="M8.44954 1.30569L12.1541 8.2723C12.3099 8.55799 12.4074 8.87173 12.4411 9.19536C12.4748 9.51899 12.444 9.84609 12.3505 10.1578C12.2571 10.4694 12.1027 10.7594 11.8964 11.0111C11.6901 11.2627 11.436 11.4709 11.1487 11.6238C10.8615 11.7766 10.5467 11.8709 10.2228 11.9013C9.89883 11.9317 9.57206 11.8976 9.26137 11.8009C8.95068 11.7043 8.66224 11.547 8.41272 11.3381C8.16321 11.1293 7.95757 10.873 7.80771 10.5842C7.80771 10.5842 5.64991 6.53945 5.09945 5.48147C4.97666 5.23881 4.80289 5.02553 4.59004 4.85624C4.37719 4.68695 4.13028 4.56565 3.86621 4.50062C3.60213 4.4356 3.32712 4.42839 3.06001 4.47949C2.79289 4.53059 2.53996 4.6388 2.31853 4.7967C2.29824 4.8186 2.27008 4.83154 2.24025 4.83268C2.21041 4.83381 2.18135 4.82305 2.15945 4.80276C2.13755 4.78246 2.12461 4.7543 2.12348 4.72447C2.12234 4.69464 2.1331 4.66557 2.15339 4.64367L4.15046 1.22202C4.37135 0.843423 4.68933 0.530672 5.07154 0.316084C5.45375 0.101495 5.88633 -0.00714752 6.32457 0.00138172C6.76282 0.00991095 7.19084 0.135302 7.56441 0.3646C7.93798 0.593898 8.24355 0.918785 8.44954 1.30569ZM2.70716 11.8888C3.24258 11.8888 3.76598 11.73 4.21117 11.4326C4.65636 11.1351 5.00334 10.7123 5.20824 10.2176C5.41314 9.72297 5.46675 9.17865 5.3623 8.65352C5.25784 8.12838 5.00001 7.64601 4.6214 7.26741C4.2428 6.88881 3.76043 6.63097 3.2353 6.52652C2.71016 6.42206 2.16584 6.47567 1.67117 6.68057C1.1765 6.88547 0.753704 7.23245 0.456238 7.67764C0.158772 8.12283 0 8.64623 0 9.18166C0.000291767 9.89955 0.285603 10.588 0.79323 11.0956C1.30086 11.6032 1.98926 11.8885 2.70716 11.8888Z" fill="#1A1E22"/>
</svg>
