<svg width="20" height="24" viewBox="0 0 20 24" fill="none" xmlns="http://www.w3.org/2000/svg">
<path fill-rule="evenodd" clip-rule="evenodd" d="M15.5 2.2C13.3 1.7 11.3 0.9 10 0C8.7 0.9 6.7 1.7 4.5 2.2C2.9 2.5 1.3 2.7 0 2.6V10.6C0 14.9 2.1 18.8 5.6 21.1L10 24L14.4 21.1C17.9 18.8 20 14.8 20 10.6V2.6C18.6 2.7 17.1 2.5 15.5 2.2ZM10 4.5C12.3 4.5 14.2 6.4 14.2 8.7C14.2 11 12.3 12.9 10 12.9C7.7 12.9 5.8 11 5.8 8.7C5.8 6.4 7.7 4.5 10 4.5ZM13.3 19.4L10 21.6L6.7 19.4C5.8 18.8 5 18.1 4.4 17.3C5.8 15.9 7.8 15 10 15C12.2 15 14.2 15.9 15.6 17.3C14.9 18.1 14.2 18.8 13.3 19.4Z" fill="#1A1E22"/>
</svg>
