<svg width="938" height="430" viewBox="0 0 938 430" fill="none" xmlns="http://www.w3.org/2000/svg">
<path d="M822.554 125.898C818.961 126.366 814.587 127.616 811.932 128.397C809.277 129.178 805.996 130.271 805.996 135.426C805.996 135.426 805.84 138.55 805.684 143.705C803.341 175.101 791.626 190.877 784.597 197.906C784.597 146.673 768.196 132.458 747.265 132.458C727.74 132.458 718.368 145.423 713.213 155.732C709.621 162.917 704.778 172.289 699.155 180.724C693.844 188.847 684.941 198.531 680.567 202.124C680.567 150.89 664.166 132.458 643.235 132.458C627.303 132.458 614.494 142.611 608.246 162.761C600.124 169.009 590.752 201.811 590.752 234.926C590.752 286.004 618.243 298.5 631.832 298.5C670.414 298.5 680.567 239.924 680.567 218.681C686.034 214.464 692.438 208.684 697.437 203.373C695.719 213.214 694.781 224.148 694.781 234.926C694.781 286.004 722.273 298.5 735.862 298.5C774.444 298.5 784.597 241.643 784.597 218.681C789.283 214.932 801.467 200.562 803.81 193.533C802.716 223.836 801.623 257.731 801.623 266.01C801.623 282.724 800.373 305.997 798.967 324.742C796.624 357.388 796.156 390.502 798.499 406.747C799.436 413.776 802.248 418.618 805.684 422.367C809.589 426.585 813.338 429.24 817.399 429.708C820.211 430.021 822.398 427.834 822.085 424.866C821.304 417.837 819.586 403.311 819.586 367.697C819.586 330.365 821.304 284.285 821.304 284.285C821.304 284.285 830.52 298.187 843.641 298.187C856.762 298.187 868.477 288.659 876.599 270.071C883.472 254.451 888.002 232.739 889.564 208.997C891.282 181.974 887.377 151.515 878.474 140.425C873.631 134.489 865.978 131.052 858.011 132.927C845.671 135.738 832.707 160.106 823.803 176.976C823.803 176.976 827.552 138.55 827.865 131.209C828.177 127.928 825.99 125.429 822.554 125.898ZM634.332 277.1C625.428 277.1 609.027 268.822 609.027 233.364C609.027 214.776 611.526 200.093 611.526 199.781C617.618 226.023 640.267 240.081 662.135 228.366C662.135 250.39 650.577 277.1 634.332 277.1ZM649.796 215.245C638.237 215.245 624.022 199.468 624.022 178.069C624.022 158.231 638.393 148.703 646.984 152.296C659.792 157.763 663.385 184.161 663.385 210.871C662.916 211.652 657.449 215.245 649.796 215.245ZM738.205 277.1C729.302 277.1 712.901 268.822 712.901 233.364C712.901 214.776 715.4 200.093 715.4 199.781C721.492 226.023 744.141 237.581 766.009 225.866C766.165 247.891 754.45 277.1 738.205 277.1ZM753.825 213.37C742.267 213.37 728.052 199.625 728.052 178.069C728.052 158.231 742.423 148.703 751.014 152.296C766.165 158.544 767.259 186.504 767.883 208.059C767.415 208.684 761.323 213.37 753.825 213.37ZM859.729 158.544C870.82 158.544 868.477 203.998 866.446 223.523C864.415 242.892 853.482 276.007 838.018 276.007C826.303 276.007 822.241 265.073 822.241 255.545C822.241 244.142 822.866 218.213 823.335 205.716C835.831 183.536 851.919 158.544 859.729 158.544ZM543.735 409.246C516.088 409.246 498.437 374.57 490.627 360.824C489.065 358.168 488.284 356.294 486.097 354.107C481.88 349.89 474.07 348.953 468.29 348.953C462.511 348.953 461.73 352.077 461.886 353.951C464.698 378.943 497.344 426.116 535.769 426.116C573.413 426.116 576.85 396.594 576.85 324.429V228.834C576.85 217.119 578.256 188.222 579.037 179.162C580.911 157.138 583.41 143.549 585.285 133.239C586.222 128.397 586.69 124.804 582.004 125.117C577.943 125.429 575.756 125.898 571.851 126.991C568.727 127.928 566.853 130.115 566.228 133.083C565.291 137.613 564.822 140.112 563.885 148.391C560.605 141.362 555.763 135.895 548.421 133.864C543.891 132.614 539.83 132.458 534.207 133.552C532.489 133.864 523.117 134.801 513.588 146.516C497.5 166.51 493.282 198.063 492.501 226.804C490.471 293.97 517.806 298.5 527.49 298.5C548.734 298.5 556.387 272.57 556.387 272.57C556.387 272.57 556.856 281.943 556.856 328.49C557.012 375.038 556.075 409.246 543.735 409.246ZM556.075 228.209C554.201 246.641 543.735 276.319 531.395 276.319C519.055 276.319 513.588 252.421 514.526 220.243C515.463 189.315 525.147 153.702 544.204 153.702C560.917 153.702 558.73 187.129 558.574 196.188C558.106 206.341 557.012 219.306 556.075 228.209ZM922.366 245.235C925.646 245.548 927.052 243.986 927.052 240.549L934.706 27.8037C934.862 24.9921 931.738 22.3367 928.302 23.1177C924.865 23.8987 918.617 26.5541 915.649 27.8037C910.339 30.1467 908.308 32.8021 908.308 40.7683L911.432 227.897C911.432 234.301 912.057 238.05 914.556 240.705C916.743 243.048 919.867 244.923 922.366 245.235ZM148.391 138.55C148.547 135.426 147.141 134.02 144.017 134.333C141.049 134.801 133.083 136.519 131.834 136.832C130.584 137.144 129.022 137.613 128.241 138.394C127.304 139.331 126.835 140.581 126.679 142.143C125.429 153.389 124.961 181.193 124.023 206.497C123.242 227.741 122.305 237.894 122.305 261.793C122.305 283.817 130.74 298.5 146.985 298.5C164.48 298.5 176.663 277.881 176.663 277.881C176.819 283.661 181.037 303.342 192.908 303.342C196.032 303.342 198.687 302.092 198.531 298.968C198.219 285.848 197.906 265.541 198.219 250.078C199.625 222.274 201.812 182.443 203.998 151.202C203.998 151.202 204.779 138.081 204.936 136.207C205.092 132.927 203.842 130.428 200.25 130.74C196.969 131.052 191.658 131.833 190.253 132.146C186.66 132.927 184.629 134.02 184.317 137.925C183.848 143.392 181.818 173.07 180.256 194.47C178.381 218.525 176.976 235.707 175.726 253.358C171.665 267.26 162.136 274.445 152.452 274.289C137.925 273.976 141.83 243.517 143.236 219.931C144.486 195.72 148.235 144.798 148.391 138.55ZM19.8375 221.649C19.8375 216.963 19.3689 215.089 14.5267 215.089C13.1209 215.089 9.05965 214.62 5.62323 221.337C0.937206 230.709 0 244.298 0 253.983C0 286.941 23.8987 311.308 57.3257 311.308C73.883 311.308 110.903 299.906 110.903 256.95C110.903 216.807 71.54 190.877 58.4191 177.6C45.2983 164.323 35.3014 152.14 35.3014 112.621C35.3014 81.693 46.5479 24.9921 66.6978 24.9921C98.0941 24.9921 90.9089 118.713 83.5675 140.581C82.9427 142.299 82.4741 144.642 83.7237 145.735C85.2857 146.985 88.2535 146.829 91.3775 145.892C96.5321 144.33 99.4999 141.206 100.906 137.144C108.247 115.745 108.247 82.1616 108.247 63.1051C108.247 19.0564 88.4097 -6.10352e-05 69.8218 -6.10352e-05C22.3367 -6.10352e-05 14.9953 99.8123 15.4639 123.711C15.7763 146.048 17.1821 164.479 29.6782 182.599C45.4545 205.56 89.6593 221.337 89.6593 259.606C89.6593 271.946 77.1632 286.472 59.2001 286.472C21.5557 286.472 18.5879 244.767 18.9003 233.989C19.2127 228.209 19.8375 225.085 19.8375 221.649ZM240.081 125.898C236.488 126.366 232.114 127.616 229.459 128.397C226.804 129.178 223.523 130.271 223.523 135.426C223.523 135.426 219.15 249.453 219.15 266.166C219.15 282.88 217.9 306.154 216.494 324.898C214.151 357.544 213.683 390.658 215.87 406.903C216.807 413.932 219.618 418.774 223.055 422.523C226.96 426.741 230.709 429.396 234.77 429.865C237.582 430.177 239.768 427.99 239.456 425.022C238.675 417.993 236.957 403.467 236.957 367.853C236.957 330.521 238.675 284.442 238.675 284.442C238.675 284.442 247.891 298.344 261.012 298.344C274.133 298.344 285.848 288.815 293.97 270.227C300.843 254.607 305.373 232.895 306.935 209.153C308.653 182.13 304.748 151.671 295.844 140.581C291.002 134.645 283.348 131.209 275.382 133.083C263.042 135.895 250.234 158.231 241.174 173.07C241.799 161.512 244.923 138.706 245.235 131.209C245.704 127.928 243.517 125.429 240.081 125.898ZM277.257 158.544C288.347 158.544 286.004 203.998 283.973 223.523C281.943 242.892 271.009 276.007 255.545 276.007C243.83 276.007 239.768 265.073 239.768 255.545C239.768 244.142 240.393 218.213 240.862 205.716C253.358 183.536 269.446 158.544 277.257 158.544ZM398 174.789C399.874 151.515 393.314 129.803 371.914 129.803C353.014 129.803 339.581 144.173 330.209 165.104C321.774 184.161 316.619 216.182 316.619 239.456C316.619 265.385 321.774 298.5 354.264 298.5C380.974 298.5 398.781 273.508 410.183 255.076C410.027 261.636 409.871 272.883 409.871 276.788C409.871 280.693 407.684 295.376 428.147 301.936C430.333 302.717 432.833 301.468 433.457 299.125C433.614 298.656 433.614 298.187 433.614 297.563C432.364 266.947 432.208 241.018 432.833 218.681C438.3 207.435 466.26 161.199 466.26 161.199C466.26 161.199 465.479 170.103 465.635 175.882C465.791 179.631 467.041 182.755 469.696 184.942C473.445 188.066 478.443 189.003 482.661 189.003C484.691 189.003 486.409 187.441 486.409 185.254C486.409 180.1 486.878 170.727 488.284 158.856C489.534 148.078 491.564 136.363 491.408 134.645C491.408 133.864 490.627 133.239 489.533 132.614C485.941 131.052 473.601 129.959 467.978 135.426C463.136 140.268 444.704 167.135 435.019 183.224C437.206 161.98 439.549 146.985 442.205 132.771C442.517 130.74 442.517 129.334 441.58 127.928C440.643 126.679 439.393 126.054 437.519 126.21C435.8 126.366 428.928 127.616 425.96 128.397C422.992 129.178 421.274 130.271 420.961 132.771C419.556 143.549 418.462 149.64 414.245 196.813C410.183 243.829 375.975 276.319 357.856 276.319C339.737 276.319 336.769 258.2 336.769 238.05C338.956 238.675 341.299 238.831 343.486 238.987C378.006 239.143 396.282 196.657 398 174.789ZM348.797 169.634C355.513 154.326 365.822 146.204 371.758 148.859C378.006 151.671 379.099 162.917 378.006 174.633C376.132 194.626 362.542 219.775 344.735 219.775C341.924 219.775 339.424 219.618 337.55 219.15C337.55 202.436 343.954 180.568 348.797 169.634Z" fill="#1A1E22"/>
<path d="M918.461 301.153C928.899 301.153 937.361 292.621 937.361 282.096C937.361 271.572 928.899 263.04 918.461 263.04C908.023 263.04 899.561 271.572 899.561 282.096C899.561 292.621 908.023 301.153 918.461 301.153Z" fill="#1A1E22"/>
</svg>
