<svg width="27" height="27" viewBox="0 0 27 27" fill="none" xmlns="http://www.w3.org/2000/svg">
<path fill-rule="evenodd" clip-rule="evenodd" d="M13.3333 2.66667C7.4423 2.66667 2.66667 7.4423 2.66667 13.3333C2.66667 19.2244 7.4423 24 13.3333 24C19.2244 24 24 19.2244 24 13.3333C24 7.4423 19.2244 2.66667 13.3333 2.66667ZM0 13.3333C0 5.96954 5.96954 0 13.3333 0C20.6971 0 26.6667 5.96954 26.6667 13.3333C26.6667 20.6971 20.6971 26.6667 13.3333 26.6667C5.96954 26.6667 0 20.6971 0 13.3333Z" fill="#1A1E22"/>
<path fill-rule="evenodd" clip-rule="evenodd" d="M13.9313 0.141612C13.9313 0.141612 13.9296 0.140764 13.3333 1.33333C12.737 2.5259 12.7355 2.52512 12.7355 2.52512L12.734 2.52439L12.7315 2.5231L12.7278 2.52121L12.7258 2.52018L12.7432 2.52973C12.7639 2.54127 12.8023 2.56333 12.8558 2.59681C12.963 2.66382 13.1306 2.77623 13.3391 2.94123C13.7557 3.27107 14.3346 3.81032 14.9217 4.61756C16.0842 6.21595 17.3333 8.93962 17.3333 13.3333C17.3333 17.7271 16.0842 20.4507 14.9217 22.0491C14.3346 22.8564 13.7557 23.3956 13.3391 23.7254C13.1306 23.8904 12.963 24.0029 12.8558 24.0699C12.8023 24.1033 12.7639 24.1254 12.7432 24.1369L12.7259 24.1464L12.7278 24.1455L12.7315 24.1436L12.734 24.1423L12.7355 24.1416C12.7355 24.1416 12.7371 24.1408 13.3333 25.3333C13.9296 26.5259 13.9313 26.5251 13.9313 26.5251L13.9331 26.5241L13.9371 26.5221L13.9466 26.5173L13.9714 26.5044C13.9904 26.4943 14.0145 26.4813 14.0432 26.4653C14.1007 26.4332 14.1769 26.3888 14.2692 26.3312C14.4536 26.2159 14.7027 26.0471 14.9943 25.8162C15.5776 25.3544 16.3321 24.6437 17.0783 23.6176C18.5825 21.5493 20 18.273 20 13.3333C20 8.39372 18.5825 5.11738 17.0783 3.0491C16.3321 2.02301 15.5776 1.31226 14.9943 0.850439C14.7027 0.619601 14.4536 0.450767 14.2692 0.335481C14.1769 0.277818 14.1007 0.233472 14.0432 0.201392C14.0145 0.18535 13.9904 0.172365 13.9714 0.162306L13.9466 0.149393L13.9371 0.14455L13.9331 0.142525L13.9313 0.141612Z" fill="#1A1E22"/>
<path fill-rule="evenodd" clip-rule="evenodd" d="M12.7354 26.5251C12.7354 26.5251 12.7371 26.5259 13.3333 25.3333C13.9296 24.1408 13.9312 24.1416 13.9312 24.1416L13.9326 24.1423L13.9352 24.1436L13.9389 24.1455L13.941 24.1465L13.9234 24.1369C13.9028 24.1254 13.8644 24.1033 13.8108 24.0699C13.7036 24.0028 13.536 23.8904 13.3276 23.7254C12.911 23.3956 12.3321 22.8563 11.745 22.0491C10.5825 20.4507 9.33333 17.727 9.33333 13.3333C9.33333 8.93961 10.5825 6.21595 11.745 4.61756C12.3321 3.81032 12.911 3.27107 13.3276 2.94123C13.536 2.77623 13.7036 2.66382 13.8108 2.59681C13.8644 2.56333 13.9028 2.54127 13.9234 2.52973L13.9408 2.52023L13.9389 2.52121L13.9352 2.5231L13.9326 2.52439L13.9312 2.52512C13.9312 2.52512 13.9296 2.5259 13.3333 1.33333C12.737 0.140765 12.7354 0.141612 12.7354 0.141612L12.7335 0.142525L12.7295 0.144549L12.72 0.149394L12.6953 0.162305C12.6762 0.172366 12.6522 0.185349 12.6234 0.201393C12.566 0.233472 12.4898 0.277817 12.3975 0.335482C12.213 0.450768 11.964 0.619601 11.6724 0.850439C11.089 1.31226 10.3346 2.02302 9.58835 3.04911C8.08415 5.11738 6.66667 8.39372 6.66667 13.3333C6.66667 18.2729 8.08415 21.5493 9.58835 23.6176C10.3346 24.6437 11.089 25.3544 11.6724 25.8162C11.964 26.0471 12.213 26.2159 12.3975 26.3312C12.4898 26.3888 12.566 26.4332 12.6234 26.4653C12.6522 26.4813 12.6762 26.4943 12.6953 26.5044L12.72 26.5173L12.7295 26.5221L12.7354 26.5251Z" fill="#1A1E22"/>
<path d="M24 8V10.6667L2.66667 10.6667L2.66667 8L24 8Z" fill="#1A1E22"/>
<path d="M24 16V18.6667H2.66667L2.66667 16L24 16Z" fill="#1A1E22"/>
</svg>
