<svg width="12" height="12" viewBox="0 0 12 12" fill="none" xmlns="http://www.w3.org/2000/svg">
<path fill-rule="evenodd" clip-rule="evenodd" d="M2.26745 1.66639V0.416382H11.978L11.9781 9.33405L10.7509 8.10695V1.66639H2.26745ZM9.74915 2.66594H0.0219877L0.0219727 11.5836L2.46387 9.1418H9.74915V2.66594ZM5.5538 5.9039C5.5538 6.2732 5.2544 6.5726 4.88505 6.5726C4.51575 6.5726 4.2163 6.2732 4.2163 5.9039C4.2163 5.53455 4.51575 5.23515 4.88505 5.23515C5.2544 5.23515 5.5538 5.53455 5.5538 5.9039ZM7.03365 6.5726C7.40295 6.5726 7.70235 6.2732 7.70235 5.9039C7.70235 5.53455 7.40295 5.23515 7.03365 5.23515C6.6643 5.23515 6.3649 5.53455 6.3649 5.9039C6.3649 6.2732 6.6643 6.5726 7.03365 6.5726ZM3.40625 5.9039C3.40625 6.2732 3.10685 6.5726 2.7375 6.5726C2.36816 6.5726 2.06876 6.2732 2.06876 5.9039C2.06876 5.53455 2.36816 5.23515 2.7375 5.23515C3.10685 5.23515 3.40625 5.53455 3.40625 5.9039Z" fill="#1A1E22"/>
</svg>
