<svg width="10" height="12" viewBox="0 0 10 12" fill="none" xmlns="http://www.w3.org/2000/svg">
<path fill-rule="evenodd" clip-rule="evenodd" d="M4.99995 1.0045C6.10305 1.0045 6.99755 1.8975 6.99995 3H2.99995C3.0024 1.8975 3.8969 1.0045 4.99995 1.0045ZM4.99995 0.00450134C3.3446 0.00450134 2.0024 1.34522 1.99998 3H0.5V12H9.5V3H7.99995C7.99755 1.34522 6.6553 0.00450134 4.99995 0.00450134ZM5.3749 9.9665C6.1624 9.8329 6.63515 9.3088 6.63515 8.5608C6.63515 7.9189 6.2838 7.5135 5.4392 7.1892L4.95945 7C4.52025 6.81755 4.29055 6.6554 4.29055 6.3311C4.29055 5.97975 4.55405 5.7838 5.0811 5.7838C5.6081 5.7838 6.04055 5.97975 6.42565 6.2973V5.4392C6.18285 5.25575 5.82805 5.0852 5.3749 5.02395V4.5H4.62505V5.02865C3.83495 5.1512 3.3784 5.65825 3.3784 6.3784C3.3784 7.00675 3.72975 7.42565 4.47975 7.70945L4.97295 7.89865C5.52705 8.13515 5.68245 8.2838 5.68245 8.5946C5.68245 8.9865 5.4189 9.20945 4.8784 9.20945C4.30405 9.20945 3.77705 8.9662 3.36485 8.6216V9.47975C3.7481 9.7658 4.1831 9.92685 4.62505 9.98005V10.5H5.3749V9.9665Z" fill="#1A1E22"/>
</svg>
