<svg width="12" height="12" viewBox="0 0 12 12" fill="none" xmlns="http://www.w3.org/2000/svg">
<path fill-rule="evenodd" clip-rule="evenodd" d="M11.1968 2.99942C11.3351 3.23845 11.2535 3.5443 11.0145 3.6826C10.7754 3.8209 10.4696 3.7392 10.3313 3.5002L10.331 3.49975C10.1927 3.2607 10.2743 2.95485 10.5133 2.81654C10.7523 2.67823 11.0582 2.75987 11.1966 2.99889L11.1968 2.99942ZM1.66866 3.5002C1.53038 3.7392 1.22452 3.8209 0.985495 3.6826C0.74647 3.5443 0.6648 3.23845 0.80308 2.99942L0.803395 2.99889C0.9417 2.75987 1.24758 2.67823 1.48659 2.81654C1.7256 2.95485 1.80724 3.2607 1.66893 3.49975L1.66866 3.5002ZM3.4997 1.66897C3.2607 1.80727 2.95481 1.72563 2.8165 1.48662C2.6782 1.24761 2.75983 0.941735 2.99885 0.80343L2.99939 0.803115C3.2384 0.664835 3.5443 0.746505 3.68255 0.98553C3.82085 1.22455 3.7392 1.53042 3.50015 1.6687L3.4997 1.66897ZM9.0011 0.80343C9.2401 0.941735 9.32175 1.24761 9.1834 1.48662C9.0451 1.72563 8.73925 1.80727 8.50025 1.66897L8.49975 1.6687C8.26075 1.53042 8.1791 1.22455 8.31735 0.98553C8.45565 0.746505 8.7615 0.664835 9.00055 0.803115L9.0011 0.80343ZM5.9997 0.999995C5.72355 1.00001 5.4997 0.776165 5.49965 0.50002C5.49965 0.22388 5.72415 9.99321e-06 6.0003 -5.00679e-06C6.2764 9.99321e-06 6.50025 0.22388 6.50025 0.50002C6.50025 0.776165 6.27635 1.00001 6.00025 0.999995H5.9997ZM5.99995 1.84914L6.32005 2.11589C7.74095 3.3 8.49765 4.69455 8.6116 6.1152C9.38715 5.7314 10.3388 5.5 11.5 5.5H12V6C12 9.3137 9.3137 12 6 12C2.68629 12 0 9.3137 0 6V5.5H0.5C1.66115 5.5 2.61278 5.7314 3.38825 6.11515C3.50225 4.69455 4.25895 3.29995 5.67985 2.11589L5.99995 1.84914ZM7.62515 6.6046C7.6236 6.6567 7.621 6.7088 7.61725 6.76095C6.98885 7.28375 6.54835 7.91025 6.2403 8.5264C6.1494 8.7081 6.0698 8.8895 6 9.0678C5.9302 8.8895 5.8506 8.7081 5.7597 8.5264C5.4516 7.9102 5.0111 7.2837 4.3826 6.7608C4.3789 6.70875 4.37625 6.65665 4.3747 6.6046C4.3413 5.4705 4.82595 4.2651 5.99995 3.16655C7.1739 4.2651 7.65855 5.4705 7.62515 6.6046Z" fill="#1A1E22"/>
</svg>
