<svg width="12" height="13" viewBox="0 0 12 13" fill="none" xmlns="http://www.w3.org/2000/svg">
<path fill-rule="evenodd" clip-rule="evenodd" d="M9.09867 11.3404C9.03922 11.4176 8.93227 11.4809 8.67422 11.4809H7.69072V12.9967H8.84942C9.46212 12.9967 9.96452 12.8538 10.3061 12.4825C10.6428 12.1166 10.7717 11.5836 10.7717 10.9249V8.20945C10.7717 7.95435 10.8081 7.8553 10.8374 7.8157C10.8526 7.7952 10.8895 7.7571 11.0526 7.7449H12.0001V6.24965H11.0526C10.8895 6.23745 10.8526 6.19935 10.8374 6.17885C10.8081 6.13925 10.7717 6.0402 10.7717 5.78505V3.06967C10.7717 2.411 10.6428 1.87796 10.3061 1.51203C9.96452 1.14079 9.46212 0.997818 8.84942 0.997818H7.69072V2.51371H8.67422C8.93227 2.51371 9.03922 2.57699 9.09867 2.65413C9.17287 2.75032 9.23032 2.93845 9.23032 3.30742V5.9227C9.23032 6.3806 9.36377 6.7479 9.59247 6.99725C9.36377 7.24665 9.23032 7.61395 9.23032 8.0718V10.6871C9.23032 11.0561 9.17287 11.2442 9.09867 11.3404Z" fill="#1A1E22"/>
<path fill-rule="evenodd" clip-rule="evenodd" d="M2.90169 2.65413C2.96116 2.57698 3.06812 2.51371 3.32617 2.51371H4.30962V0.997818H3.15097C2.53828 0.997818 2.03585 1.14079 1.69429 1.51203C1.35762 1.87796 1.22873 2.411 1.22873 3.06967V5.78505C1.22873 6.0402 1.1923 6.13925 1.163 6.17885C1.14783 6.19935 1.11086 6.23745 0.947764 6.24965H0.000244141V7.7449H0.947744C1.11085 7.7571 1.14783 7.7952 1.163 7.8157C1.1923 7.8553 1.22873 7.95435 1.22873 8.20945V10.9249C1.22873 11.5836 1.35762 12.1166 1.69429 12.4825C2.03584 12.8538 2.53828 12.9967 3.15097 12.9967H4.30962V11.4809H3.32617C3.06812 11.4809 2.96115 11.4176 2.90169 11.3404C2.82753 11.2442 2.77007 11.0561 2.77007 10.6871V8.0718C2.77007 7.61395 2.63662 7.24665 2.40791 6.99725C2.63662 6.7479 2.77007 6.3806 2.77007 5.9227L2.77008 3.30742C2.77008 2.93845 2.82754 2.75032 2.90169 2.65413Z" fill="#1A1E22"/>
</svg>
