<svg width="10" height="12" viewBox="0 0 10 12" fill="none" xmlns="http://www.w3.org/2000/svg">
<path fill-rule="evenodd" clip-rule="evenodd" d="M4.99995 1.00452C6.10305 1.00452 6.99755 1.89752 6.99995 3.00002H2.99995C3.0024 1.89752 3.8969 1.00452 4.99995 1.00452ZM4.99995 0.0045166C3.3446 0.0045166 2.0024 1.34523 1.99998 3.00002H0.5V12H9.5V3.00002H7.99995C7.99755 1.34523 6.6553 0.0045166 4.99995 0.0045166ZM5.3749 9.96652C6.1624 9.83292 6.63515 9.30882 6.63515 8.56082C6.63515 7.91892 6.2838 7.51352 5.4392 7.18922L4.95945 7.00002C4.52025 6.81757 4.29055 6.65542 4.29055 6.33112C4.29055 5.97977 4.55405 5.78382 5.0811 5.78382C5.6081 5.78382 6.04055 5.97977 6.42565 6.29732V5.43922C6.18285 5.25577 5.82805 5.08522 5.3749 5.02397V4.50002H4.62505V5.02867C3.83495 5.15122 3.3784 5.65827 3.3784 6.37842C3.3784 7.00677 3.72975 7.42567 4.47975 7.70947L4.97295 7.89867C5.52705 8.13517 5.68245 8.28382 5.68245 8.59462C5.68245 8.98652 5.4189 9.20947 4.8784 9.20947C4.30405 9.20947 3.77705 8.96622 3.36485 8.62162V9.47977C3.7481 9.76582 4.1831 9.92687 4.62505 9.98007V10.5H5.3749V9.96652Z" fill="#1A1E22"/>
</svg>
